Fantastik-Regular.ufo
<glyph name="exclam" format="2">
  <advance width="390"/>
  <unicode hex="0021"/>
  <outline>
    <contour>
      <point x="40" y="91" type="line"/>
      <point x="349" y="91" type="line"/>
      <point x="349" y="0" type="line"/>
      <point x="40" y="0" type="line"/>
    </contour>
    <contour>
      <point x="40" y="695" type="line"/>
      <point x="349" y="695" type="line"/>
      <point x="349" y="147" type="line"/>
      <point x="40" y="147" type="line"/>
    </contour>
  </outline>
</glyph>
<glyph name="quotedbl" format="2">
  <advance width="485"/>
  <unicode hex="0022"/>
  <outline>
    <contour>
      <point x="185" y="408" type="line"/>
      <point x="58" y="408" type="line"/>
      <point x="32" y="700" type="line"/>
      <point x="234" y="700" type="line"/>
    </contour>
    <contour>
      <point x="417" y="408" type="line"/>
      <point x="290" y="408" type="line"/>
      <point x="264" y="700" type="line"/>
      <point x="466" y="700" type="line"/>
    </contour>
  </outline>
</glyph>
<glyph name="numbersign" format="2">
  <advance width="593"/>
  <unicode hex="0023"/>
  <outline>
    <contour>
      <point x="322" y="258" type="line"/>
      <point x="340" y="342" type="line"/>
      <point x="290" y="342" type="line"/>
      <point x="272" y="258" type="line"/>
    </contour>
    <contour>
      <point x="451" y="434" type="line"/>
      <point x="563" y="434" type="line"/>
      <point x="543" y="342" type="line"/>
      <point x="432" y="342" type="line"/>
      <point x="414" y="258" type="line"/>
      <point x="525" y="258" type="line"/>
      <point x="506" y="166" type="line"/>
      <point x="394" y="166" type="line"/>
      <point x="366" y="33" type="line"/>
      <point x="274" y="33" type="line"/>
      <point x="302" y="166" type="line"/>
      <point x="252" y="166" type="line"/>
      <point x="224" y="33" type="line"/>
      <point x="132" y="33" type="line"/>
      <point x="160" y="166" type="line"/>
      <point x="26" y="166" type="line"/>
      <point x="45" y="258" type="line"/>
      <point x="180" y="258" type="line"/>
      <point x="198" y="342" type="line"/>
      <point x="63" y="342" type="line"/>
      <point x="83" y="434" type="line"/>
      <point x="217" y="434" type="line"/>
      <point x="248" y="580" type="line"/>
      <point x="340" y="580" type="line"/>
      <point x="309" y="434" type="line"/>
      <point x="359" y="434" type="line"/>
      <point x="390" y="580" type="line"/>
      <point x="482" y="580" type="line"/>
    </contour>
  </outline>
</glyph>
<glyph name="percent" format="2">
  <advance width="1411"/>
  <unicode hex="0025"/>
  <outline>
    <contour>
      <point x="1108" y="695" type="line"/>
      <point x="788" y="0" type="line"/>
      <point x="354" y="0" type="line"/>
      <point x="674" y="695" type="line"/>
    </contour>
    <contour>
      <point x="442" y="389" type="line" smooth="yes"/>
      <point x="442" y="361"/>
      <point x="418" y="312"/>
      <point x="378" y="275"/>
      <point x="326" y="254"/>
      <point x="298" y="254" type="qcurve" smooth="yes"/>
      <point x="171" y="254" type="line" smooth="yes"/>
      <point x="141" y="254"/>
      <point x="89" y="276"/>
      <point x="50" y="313"/>
      <point x="27" y="364"/>
      <point x="27" y="393" type="qcurve" smooth="yes"/>
      <point x="27" y="555" type="line" smooth="yes"/>
      <point x="27" y="584"/>
      <point x="50" y="635"/>
      <point x="89" y="673"/>
      <point x="141" y="695"/>
      <point x="171" y="695" type="qcurve" smooth="yes"/>
      <point x="298" y="695" type="line" smooth="yes"/>
      <point x="328" y="695"/>
      <point x="380" y="673"/>
      <point x="419" y="635"/>
      <point x="442" y="584"/>
      <point x="442" y="555" type="qcurve" smooth="yes"/>
    </contour>
    <contour>
      <point x="315" y="330" type="line"/>
      <point x="341" y="337"/>
      <point x="366" y="379"/>
      <point x="366" y="407" type="qcurve" smooth="yes"/>
      <point x="366" y="555" type="line" smooth="yes"/>
      <point x="366" y="578"/>
      <point x="336" y="613"/>
      <point x="315" y="618" type="qcurve"/>
    </contour>
    <contour>
      <point x="1390" y="135" type="line" smooth="yes"/>
      <point x="1390" y="107"/>
      <point x="1366" y="58"/>
      <point x="1326" y="21"/>
      <point x="1274" y="0"/>
      <point x="1246" y="0" type="qcurve" smooth="yes"/>
      <point x="1119" y="0" type="line" smooth="yes"/>
      <point x="1089" y="0"/>
      <point x="1037" y="22"/>
      <point x="998" y="59"/>
      <point x="975" y="110"/>
      <point x="975" y="139" type="qcurve" smooth="yes"/>
      <point x="975" y="301" type="line" smooth="yes"/>
      <point x="975" y="330"/>
      <point x="998" y="381"/>
      <point x="1037" y="419"/>
      <point x="1089" y="441"/>
      <point x="1119" y="441" type="qcurve" smooth="yes"/>
      <point x="1246" y="441" type="line" smooth="yes"/>
      <point x="1276" y="441"/>
      <point x="1328" y="419"/>
      <point x="1367" y="381"/>
      <point x="1390" y="330"/>
      <point x="1390" y="301" type="qcurve" smooth="yes"/>
    </contour>
    <contour>
      <point x="1263" y="76" type="line"/>
      <point x="1289" y="83"/>
      <point x="1314" y="125"/>
      <point x="1314" y="153" type="qcurve" smooth="yes"/>
      <point x="1314" y="301" type="line" smooth="yes"/>
      <point x="1314" y="324"/>
      <point x="1284" y="359"/>
      <point x="1263" y="364" type="qcurve"/>
    </contour>
  </outline>
</glyph>
<glyph name="ampersand" format="2">
  <advance width="724"/>
  <unicode hex="0026"/>
  <outline>
    <contour>
      <point x="590" y="418" type="line"/>
      <point x="590" y="461" type="line"/>
      <point x="661" y="461" type="line"/>
      <point x="661" y="460" type="line"/>
      <point x="661" y="455" type="line"/>
      <point x="661" y="454" type="line"/>
      <point x="661" y="453" type="line"/>
      <point x="661" y="451" type="line"/>
      <point x="661" y="450" type="line"/>
      <point x="661" y="442" type="line"/>
      <point x="661" y="441" type="line"/>
      <point x="661" y="439" type="line"/>
      <point x="661" y="434"/>
      <point x="661" y="423"/>
      <point x="660" y="418" type="qcurve"/>
      <point x="665" y="419"/>
      <point x="674" y="419"/>
      <point x="679" y="419" type="qcurve"/>
      <point x="680" y="419" type="line"/>
      <point x="681" y="419" type="line"/>
      <point x="684" y="419" type="line"/>
      <point x="686" y="419" type="line"/>
      <point x="699" y="419" type="line"/>
      <point x="699" y="346" type="line"/>
      <point x="660" y="346" type="line"/>
      <point x="659" y="314"/>
      <point x="659" y="267"/>
      <point x="659" y="250" type="qcurve" smooth="yes"/>
      <point x="659" y="243" type="line"/>
      <point x="659" y="242" type="line"/>
      <point x="659" y="241" type="line"/>
      <point x="659" y="234" type="line"/>
      <point x="659" y="233" type="line"/>
      <point x="659" y="232" type="line"/>
      <point x="659" y="231" type="line"/>
      <point x="659" y="230" type="line"/>
      <point x="659" y="225" type="line"/>
      <point x="659" y="224" type="line"/>
      <point x="659" y="223" type="line"/>
      <point x="659" y="213" type="line"/>
      <point x="659" y="212" type="line"/>
      <point x="659" y="211" type="line"/>
      <point x="659" y="167"/>
      <point x="627" y="90"/>
      <point x="570" y="33"/>
      <point x="494" y="0"/>
      <point x="449" y="0" type="qcurve" smooth="yes"/>
      <point x="241" y="0" type="line" smooth="yes"/>
      <point x="196" y="0"/>
      <point x="120" y="33"/>
      <point x="63" y="91"/>
      <point x="31" y="168"/>
      <point x="31" y="212" type="qcurve" smooth="yes"/>
      <point x="31" y="269"/>
      <point x="83" y="357"/>
      <point x="131" y="386" type="qcurve"/>
      <point x="100" y="411"/>
      <point x="66" y="480"/>
      <point x="66" y="519" type="qcurve" smooth="yes"/>
      <point x="66" y="556"/>
      <point x="93" y="620"/>
      <point x="140" y="668"/>
      <point x="204" y="695"/>
      <point x="241" y="695" type="qcurve" smooth="yes"/>
      <point x="486" y="695" type="line" smooth="yes"/>
      <point x="523" y="695"/>
      <point x="585" y="669"/>
      <point x="631" y="623"/>
      <point x="658" y="561"/>
      <point x="660" y="525" type="qcurve"/>
      <point x="590" y="525" type="line"/>
      <point x="588" y="570"/>
      <point x="531" y="626"/>
      <point x="486" y="626" type="qcurve"/>
      <point x="449" y="627" type="line"/>
      <point x="449" y="417" type="line"/>
    </contour>
    <contour>
      <point x="590" y="346" type="line"/>
      <point x="449" y="346" type="line"/>
      <point x="449" y="70" type="line"/>
      <point x="479" y="70"/>
      <point x="531" y="92"/>
      <point x="568" y="129"/>
      <point x="590" y="180"/>
      <point x="590" y="209" type="qcurve" smooth="yes"/>
    </contour>
  </outline>
</glyph>
<glyph name="quotesingle" format="2">
  <advance width="260"/>
  <unicode hex="0027"/>
  <outline>
    <contour>
      <point x="183" y="408" type="line"/>
      <point x="56" y="408" type="line"/>
      <point x="30" y="700" type="line"/>
      <point x="232" y="700" type="line"/>
    </contour>
  </outline>
</glyph>
<glyph name="parenleft" format="2">
  <advance width="481"/>
  <unicode hex="0028"/>
  <outline>
    <contour>
      <point x="238" y="-83" type="line" smooth="yes"/>
      <point x="195" y="-83"/>
      <point x="120" y="-51"/>
      <point x="63" y="6"/>
      <point x="30" y="81"/>
      <point x="30" y="125" type="qcurve" smooth="yes"/>
      <point x="30" y="591" type="line" smooth="yes"/>
      <point x="30" y="634"/>
      <point x="63" y="710"/>
      <point x="119" y="767"/>
      <point x="195" y="800"/>
      <point x="238" y="800" type="qcurve" smooth="yes"/>
      <point x="460" y="800" type="line"/>
      <point x="460" y="730" type="line"/>
      <point x="337" y="732" type="line"/>
      <point x="337" y="-14" type="line"/>
      <point x="460" y="-14" type="line"/>
      <point x="460" y="-83" type="line"/>
    </contour>
  </outline>
</glyph>
<glyph name="parenright" format="2">
  <advance width="481"/>
  <unicode hex="0029"/>
  <outline>
    <contour>
      <point x="460" y="125" type="line" smooth="yes"/>
      <point x="460" y="81"/>
      <point x="427" y="6"/>
      <point x="370" y="-51"/>
      <point x="295" y="-83"/>
      <point x="252" y="-83" type="qcurve" smooth="yes"/>
      <point x="30" y="-83" type="line"/>
      <point x="30" y="-14" type="line"/>
      <point x="153" y="-14" type="line"/>
      <point x="153" y="732" type="line"/>
      <point x="30" y="730" type="line"/>
      <point x="30" y="800" type="line"/>
      <point x="252" y="800" type="line" smooth="yes"/>
      <point x="295" y="800"/>
      <point x="371" y="767"/>
      <point x="427" y="710"/>
      <point x="460" y="634"/>
      <point x="460" y="591" type="qcurve" smooth="yes"/>
    </contour>
  </outline>
</glyph>
<glyph name="asterisk" format="2">
  <advance width="502"/>
  <unicode hex="002A"/>
  <outline>
    <contour>
      <point x="191" y="246" type="line"/>
      <point x="165" y="226"/>
      <point x="111" y="180"/>
      <point x="88" y="163" type="qcurve"/>
      <point x="20" y="248" type="line"/>
      <point x="158" y="359" type="line"/>
      <point x="20" y="469" type="line"/>
      <point x="88" y="555" type="line"/>
      <point x="191" y="472" type="line"/>
      <point x="191" y="606" type="line"/>
      <point x="299" y="606" type="line"/>
      <point x="299" y="472" type="line"/>
      <point x="403" y="555" type="line"/>
      <point x="471" y="470" type="line"/>
      <point x="332" y="359" type="line"/>
      <point x="471" y="247" type="line"/>
      <point x="403" y="163" type="line"/>
      <point x="299" y="246" type="line"/>
      <point x="299" y="129" type="line"/>
      <point x="191" y="129" type="line"/>
    </contour>
  </outline>
</glyph>
<glyph name="plus" format="2">
  <advance width="537"/>
  <unicode hex="002B"/>
  <outline>
    <contour>
      <point x="233" y="566" type="line"/>
      <point x="308" y="566" type="line"/>
      <point x="308" y="360" type="line"/>
      <point x="504" y="360" type="line"/>
      <point x="504" y="285" type="line"/>
      <point x="308" y="285" type="line"/>
      <point x="308" y="87" type="line"/>
      <point x="233" y="87" type="line"/>
      <point x="233" y="285" type="line"/>
      <point x="25" y="285" type="line"/>
      <point x="25" y="360" type="line"/>
      <point x="233" y="360" type="line"/>
    </contour>
  </outline>
</glyph>
<glyph name="comma" format="2">
  <advance width="166"/>
  <unicode hex="002C"/>
  <outline>
    <contour>
      <point x="36" y="92" type="line"/>
      <point x="144" y="92" type="line"/>
      <point x="144" y="1" type="line"/>
      <point x="36" y="-66" type="line"/>
    </contour>
  </outline>
</glyph>
<glyph name="hyphen" format="2">
  <advance width="396"/>
  <unicode hex="002D"/>
  <outline>
    <contour>
      <point x="362" y="324" type="line"/>
      <point x="30" y="324" type="line"/>
      <point x="30" y="406" type="line"/>
      <point x="362" y="406" type="line"/>
    </contour>
  </outline>
</glyph>
<glyph name="slash" format="2">
  <advance width="301"/>
  <unicode hex="002F"/>
  <outline>
    <contour>
      <point x="245" y="729" type="line"/>
      <point x="97" y="-46" type="line"/>
      <point x="39" y="-46" type="line"/>
      <point x="187" y="729" type="line"/>
    </contour>
  </outline>
</glyph>
<glyph name="two" format="2">
  <advance width="697"/>
  <unicode hex="0032"/>
  <outline>
    <contour>
      <point x="661" y="328" type="line" smooth="yes"/>
      <point x="661" y="289"/>
      <point x="637" y="222"/>
      <point x="592" y="171"/>
      <point x="527" y="142"/>
      <point x="487" y="142" type="qcurve" smooth="yes"/>
      <point x="245" y="142" type="line"/>
      <point x="245" y="70" type="line"/>
      <point x="661" y="70" type="line"/>
      <point x="661" y="0" type="line"/>
      <point x="36" y="0" type="line"/>
      <point x="36" y="178" type="line" smooth="yes"/>
      <point x="36" y="193"/>
      <point x="37" y="223"/>
      <point x="40" y="237" type="qcurve" smooth="yes"/>
      <point x="47" y="273"/>
      <point x="85" y="334"/>
      <point x="140" y="379"/>
      <point x="208" y="404"/>
      <point x="244" y="404" type="qcurve"/>
      <point x="244" y="625" type="line"/>
      <point x="215" y="625"/>
      <point x="165" y="603"/>
      <point x="128" y="566"/>
      <point x="106" y="515"/>
      <point x="106" y="487" type="qcurve"/>
      <point x="36" y="487" type="line"/>
      <point x="36" y="521"/>
      <point x="58" y="585"/>
      <point x="98" y="639"/>
      <point x="153" y="678"/>
      <point x="186" y="687" type="qcurve" smooth="yes"/>
      <point x="205" y="692"/>
      <point x="243" y="696"/>
      <point x="262" y="696" type="qcurve" smooth="yes"/>
      <point x="301" y="696"/>
      <point x="379" y="697"/>
      <point x="418" y="697" type="qcurve" smooth="yes"/>
      <point x="470" y="697" type="line" smooth="yes"/>
      <point x="508" y="697"/>
      <point x="577" y="674"/>
      <point x="630" y="629"/>
      <point x="661" y="565"/>
      <point x="661" y="524" type="qcurve" smooth="yes"/>
    </contour>
  </outline>
</glyph>
<glyph name="three" format="2">
  <advance width="693"/>
  <unicode hex="0033"/>
  <outline>
    <contour>
      <point x="483" y="694" type="line" smooth="yes"/>
      <point x="519" y="694"/>
      <point x="582" y="667"/>
      <point x="630" y="620"/>
      <point x="657" y="557"/>
      <point x="657" y="521" type="qcurve" smooth="yes"/>
      <point x="657" y="485"/>
      <point x="630" y="422"/>
      <point x="582" y="374"/>
      <point x="519" y="347"/>
      <point x="483" y="347" type="qcurve"/>
      <point x="519" y="347"/>
      <point x="582" y="320"/>
      <point x="630" y="273"/>
      <point x="657" y="210"/>
      <point x="657" y="174" type="qcurve" smooth="yes"/>
      <point x="657" y="138"/>
      <point x="630" y="75"/>
      <point x="582" y="27"/>
      <point x="519" y="0"/>
      <point x="483" y="0" type="qcurve" smooth="yes"/>
      <point x="240" y="0" type="line" smooth="yes"/>
      <point x="197" y="0"/>
      <point x="121" y="33"/>
      <point x="65" y="89"/>
      <point x="32" y="165"/>
      <point x="32" y="208" type="qcurve"/>
      <point x="101" y="208" type="line"/>
      <point x="101" y="179"/>
      <point x="123" y="129"/>
      <point x="161" y="91"/>
      <point x="211" y="69"/>
      <point x="240" y="69" type="qcurve"/>
      <point x="240" y="312" type="line"/>
      <point x="163" y="312" type="line"/>
      <point x="163" y="382" type="line"/>
      <point x="240" y="382" type="line"/>
      <point x="240" y="625" type="line"/>
      <point x="211" y="625"/>
      <point x="160" y="603"/>
      <point x="123" y="566"/>
      <point x="101" y="515"/>
      <point x="101" y="486" type="qcurve"/>
      <point x="32" y="486" type="line"/>
      <point x="32" y="529"/>
      <point x="65" y="605"/>
      <point x="121" y="661"/>
      <point x="197" y="694"/>
      <point x="240" y="694" type="qcurve" smooth="yes"/>
    </contour>
  </outline>
</glyph>
<glyph name="four" format="2">
  <advance width="677"/>
  <unicode hex="0034"/>
  <outline>
    <contour>
      <point x="104" y="417" type="line"/>
      <point x="159" y="417" type="line"/>
      <point x="159" y="541" type="line"/>
    </contour>
    <contour>
      <point x="34" y="417" type="line"/>
      <point x="159" y="695" type="line"/>
      <point x="577" y="695" type="line"/>
      <point x="577" y="417" type="line"/>
      <point x="646" y="417" type="line"/>
      <point x="646" y="348" type="line"/>
      <point x="577" y="348" type="line"/>
      <point x="577" y="0" type="line"/>
      <point x="159" y="0" type="line"/>
      <point x="159" y="348" type="line"/>
      <point x="34" y="348" type="line"/>
    </contour>
  </outline>
</glyph>
<glyph name="five" format="2">
  <advance width="709"/>
  <unicode hex="0035"/>
  <outline>
    <contour>
      <point x="666" y="173" type="line" smooth="yes"/>
      <point x="666" y="137"/>
      <point x="639" y="74"/>
      <point x="591" y="27"/>
      <point x="528" y="0"/>
      <point x="492" y="0" type="qcurve" smooth="yes"/>
      <point x="249" y="0" type="line" smooth="yes"/>
      <point x="206" y="0"/>
      <point x="130" y="33"/>
      <point x="73" y="89"/>
      <point x="40" y="165"/>
      <point x="40" y="208" type="qcurve"/>
      <point x="110" y="208" type="line"/>
      <point x="110" y="179"/>
      <point x="132" y="128"/>
      <point x="169" y="91"/>
      <point x="220" y="69"/>
      <point x="249" y="69" type="qcurve"/>
      <point x="249" y="382" type="line"/>
      <point x="40" y="382" type="line"/>
      <point x="40" y="694" type="line"/>
      <point x="666" y="694" type="line"/>
      <point x="666" y="625" type="line"/>
      <point x="249" y="625" type="line"/>
      <point x="249" y="451" type="line"/>
      <point x="492" y="451" type="line" smooth="yes"/>
      <point x="528" y="451"/>
      <point x="591" y="424"/>
      <point x="639" y="376"/>
      <point x="666" y="313"/>
      <point x="666" y="277" type="qcurve" smooth="yes"/>
    </contour>
  </outline>
</glyph>
<glyph name="six" format="2">
  <advance width="697"/>
  <unicode hex="0036"/>
  <outline>
    <contour>
      <point x="595" y="487" type="line"/>
      <point x="595" y="516"/>
      <point x="573" y="567"/>
      <point x="536" y="604"/>
      <point x="485" y="626"/>
      <point x="456" y="626" type="qcurve"/>
      <point x="456" y="417" type="line"/>
      <point x="499" y="417"/>
      <point x="575" y="385"/>
      <point x="632" y="329"/>
      <point x="665" y="253"/>
      <point x="665" y="210" type="qcurve" smooth="yes"/>
      <point x="665" y="166"/>
      <point x="633" y="89"/>
      <point x="577" y="32"/>
      <point x="501" y="0"/>
      <point x="456" y="0" type="qcurve" smooth="yes"/>
      <point x="248" y="0" type="line" smooth="yes"/>
      <point x="205" y="0"/>
      <point x="129" y="33"/>
      <point x="72" y="90"/>
      <point x="39" y="166"/>
      <point x="39" y="209" type="qcurve" smooth="yes"/>
      <point x="39" y="522" type="line" smooth="yes"/>
      <point x="39" y="558"/>
      <point x="66" y="621"/>
      <point x="114" y="668"/>
      <point x="177" y="695"/>
      <point x="213" y="695" type="qcurve" smooth="yes"/>
      <point x="456" y="695" type="line" smooth="yes"/>
      <point x="499" y="695"/>
      <point x="575" y="662"/>
      <point x="632" y="606"/>
      <point x="665" y="530"/>
      <point x="665" y="487" type="qcurve"/>
    </contour>
    <contour>
      <point x="595" y="209" type="qcurve" smooth="yes"/>
      <point x="595" y="237"/>
      <point x="573" y="288"/>
      <point x="535" y="326"/>
      <point x="484" y="348"/>
      <point x="456" y="348" type="qcurve"/>
      <point x="456" y="70" type="line"/>
      <point x="485" y="70"/>
      <point x="536" y="92"/>
      <point x="573" y="129"/>
      <point x="595" y="180"/>
    </contour>
  </outline>
</glyph>
<glyph name="seven" format="2">
  <advance width="787"/>
  <unicode hex="0037"/>
  <outline>
    <contour>
      <point x="765" y="695" type="line"/>
      <point x="452" y="0" type="line"/>
      <point x="35" y="0" type="line"/>
      <point x="316" y="626" type="line"/>
      <point x="35" y="626" type="line"/>
      <point x="35" y="695" type="line"/>
    </contour>
  </outline>
</glyph>
<glyph name="eight" format="2">
  <advance width="697"/>
  <unicode hex="0038"/>
  <outline>
    <contour>
      <point x="558" y="386" type="qcurve"/>
      <point x="606" y="357"/>
      <point x="657" y="266"/>
      <point x="657" y="211" type="qcurve" smooth="yes"/>
      <point x="657" y="167"/>
      <point x="625" y="90"/>
      <point x="569" y="33"/>
      <point x="493" y="0"/>
      <point x="449" y="0" type="qcurve" smooth="yes"/>
      <point x="241" y="0" type="line" smooth="yes"/>
      <point x="196" y="0"/>
      <point x="120" y="33"/>
      <point x="63" y="91"/>
      <point x="31" y="168"/>
      <point x="31" y="212" type="qcurve" smooth="yes"/>
      <point x="31" y="269"/>
      <point x="83" y="357"/>
      <point x="131" y="386" type="qcurve"/>
      <point x="100" y="411"/>
      <point x="66" y="480"/>
      <point x="66" y="519" type="qcurve" smooth="yes"/>
      <point x="66" y="556"/>
      <point x="93" y="620"/>
      <point x="140" y="668"/>
      <point x="204" y="695"/>
      <point x="241" y="695" type="qcurve" smooth="yes"/>
      <point x="449" y="695" type="line" smooth="yes"/>
      <point x="486" y="695"/>
      <point x="549" y="668"/>
      <point x="596" y="621"/>
      <point x="623" y="557"/>
      <point x="623" y="520" type="qcurve" smooth="yes"/>
      <point x="623" y="480"/>
      <point x="589" y="411"/>
    </contour>
    <contour>
      <point x="553" y="522" type="qcurve" smooth="yes"/>
      <point x="553" y="567"/>
      <point x="494" y="626"/>
      <point x="449" y="626" type="qcurve"/>
      <point x="449" y="417" type="line"/>
      <point x="494" y="417"/>
      <point x="553" y="477"/>
    </contour>
    <contour>
      <point x="588" y="209" type="qcurve" smooth="yes"/>
      <point x="588" y="237"/>
      <point x="566" y="288"/>
      <point x="528" y="326"/>
      <point x="477" y="348"/>
      <point x="449" y="348" type="qcurve"/>
      <point x="449" y="70" type="line"/>
      <point x="478" y="70"/>
      <point x="529" y="92"/>
      <point x="566" y="129"/>
      <point x="588" y="180"/>
    </contour>
  </outline>
</glyph>
<glyph name="nine" format="2">
  <advance width="697"/>
  <unicode hex="0039"/>
  <outline>
    <contour>
      <point x="663" y="209" type="line" smooth="yes"/>
      <point x="663" y="166"/>
      <point x="630" y="90"/>
      <point x="573" y="33"/>
      <point x="497" y="0"/>
      <point x="454" y="0" type="qcurve" smooth="yes"/>
      <point x="246" y="0" type="line" smooth="yes"/>
      <point x="203" y="0"/>
      <point x="127" y="33"/>
      <point x="70" y="90"/>
      <point x="37" y="166"/>
      <point x="37" y="209" type="qcurve" smooth="yes"/>
      <point x="37" y="244" type="line"/>
      <point x="454" y="244" type="line"/>
      <point x="454" y="70" type="line"/>
      <point x="483" y="70"/>
      <point x="534" y="92"/>
      <point x="572" y="129"/>
      <point x="594" y="180"/>
      <point x="594" y="209" type="qcurve" smooth="yes"/>
      <point x="594" y="313" type="line"/>
      <point x="246" y="313" type="line" smooth="yes"/>
      <point x="208" y="313"/>
      <point x="134" y="336"/>
      <point x="74" y="381"/>
      <point x="37" y="446"/>
      <point x="37" y="487" type="qcurve" smooth="yes"/>
      <point x="37" y="530"/>
      <point x="70" y="606"/>
      <point x="127" y="663"/>
      <point x="203" y="696"/>
      <point x="246" y="696" type="qcurve" smooth="yes"/>
      <point x="454" y="696" type="line" smooth="yes"/>
      <point x="497" y="696"/>
      <point x="573" y="663"/>
      <point x="630" y="606"/>
      <point x="663" y="530"/>
      <point x="663" y="487" type="qcurve" smooth="yes"/>
    </contour>
    <contour>
      <point x="454" y="383" type="line"/>
      <point x="594" y="383" type="line"/>
      <point x="594" y="487" type="line" smooth="yes"/>
      <point x="594" y="516"/>
      <point x="572" y="567"/>
      <point x="534" y="604"/>
      <point x="483" y="626"/>
      <point x="454" y="626" type="qcurve"/>
    </contour>
  </outline>
</glyph>
<glyph name="colon" format="2">
  <advance width="533"/>
  <unicode hex="003A"/>
  <outline>
    <contour>
      <point x="201" y="511" type="qcurve" smooth="yes"/>
      <point x="201" y="538"/>
      <point x="238" y="576"/>
      <point x="265" y="576" type="qcurve" smooth="yes"/>
      <point x="292" y="576"/>
      <point x="330" y="538"/>
      <point x="330" y="511" type="qcurve" smooth="yes"/>
      <point x="330" y="484"/>
      <point x="292" y="447"/>
      <point x="265" y="447" type="qcurve" smooth="yes"/>
      <point x="238" y="447"/>
      <point x="201" y="484"/>
    </contour>
    <contour>
      <point x="201" y="138" type="qcurve" smooth="yes"/>
      <point x="201" y="165"/>
      <point x="238" y="203"/>
      <point x="265" y="203" type="qcurve" smooth="yes"/>
      <point x="292" y="203"/>
      <point x="330" y="165"/>
      <point x="330" y="138" type="qcurve" smooth="yes"/>
      <point x="330" y="111"/>
      <point x="292" y="74"/>
      <point x="265" y="74" type="qcurve" smooth="yes"/>
      <point x="238" y="74"/>
      <point x="201" y="111"/>
    </contour>
  </outline>
</glyph>
<glyph name="semicolon" format="2">
  <advance width="179"/>
  <unicode hex="003B"/>
  <outline>
    <contour>
      <point x="20" y="511" type="qcurve" smooth="yes"/>
      <point x="20" y="538"/>
      <point x="57" y="576"/>
      <point x="84" y="576" type="qcurve" smooth="yes"/>
      <point x="111" y="576"/>
      <point x="149" y="538"/>
      <point x="149" y="511" type="qcurve" smooth="yes"/>
      <point x="149" y="484"/>
      <point x="111" y="447"/>
      <point x="84" y="447" type="qcurve" smooth="yes"/>
      <point x="57" y="447"/>
      <point x="20" y="484"/>
    </contour>
    <contour>
      <point x="35" y="91" type="line"/>
      <point x="143" y="91" type="line"/>
      <point x="143" y="0" type="line"/>
      <point x="35" y="-67" type="line"/>
    </contour>
  </outline>
</glyph>
<glyph name="less" format="2">
  <advance width="502"/>
  <unicode hex="003C"/>
  <outline>
    <contour>
      <point x="461" y="28" type="line"/>
      <point x="22" y="308" type="line"/>
      <point x="22" y="391" type="line"/>
      <point x="461" y="671" type="line"/>
      <point x="493" y="593" type="line"/>
      <point x="110" y="349" type="line"/>
      <point x="493" y="106" type="line"/>
    </contour>
  </outline>
</glyph>
<glyph name="equal" format="2">
  <advance width="833"/>
  <unicode hex="003D"/>
  <outline>
    <contour>
      <point x="808" y="215" type="line"/>
      <point x="25" y="215" type="line"/>
      <point x="25" y="290" type="line"/>
      <point x="808" y="290" type="line"/>
    </contour>
    <contour>
      <point x="808" y="400" type="line"/>
      <point x="25" y="400" type="line"/>
      <point x="25" y="475" type="line"/>
      <point x="808" y="475" type="line"/>
    </contour>
  </outline>
</glyph>
<glyph name="greater" format="2">
  <advance width="502"/>
  <unicode hex="003E"/>
  <outline>
    <contour>
      <point x="20" y="106" type="line"/>
      <point x="403" y="349" type="line"/>
      <point x="20" y="593" type="line"/>
      <point x="51" y="671" type="line"/>
      <point x="492" y="391" type="line"/>
      <point x="492" y="308" type="line"/>
      <point x="51" y="28" type="line"/>
    </contour>
  </outline>
</glyph>
<glyph name="question" format="2">
  <advance width="811"/>
  <unicode hex="003F"/>
  <outline>
    <contour>
      <point x="772" y="418" type="line" smooth="yes"/>
      <point x="772" y="379"/>
      <point x="748" y="312"/>
      <point x="703" y="261"/>
      <point x="638" y="232"/>
      <point x="598" y="232" type="qcurve" smooth="yes"/>
      <point x="547" y="232" type="line"/>
      <point x="547" y="147" type="line"/>
      <point x="238" y="147" type="line"/>
      <point x="237" y="626" type="line"/>
      <point x="208" y="626"/>
      <point x="158" y="604"/>
      <point x="121" y="567"/>
      <point x="99" y="516"/>
      <point x="99" y="488" type="qcurve"/>
      <point x="29" y="488" type="line"/>
      <point x="29" y="522"/>
      <point x="51" y="586"/>
      <point x="91" y="640"/>
      <point x="146" y="679"/>
      <point x="179" y="688" type="qcurve" smooth="yes"/>
      <point x="198" y="693"/>
      <point x="236" y="697"/>
      <point x="255" y="697" type="qcurve" smooth="yes"/>
      <point x="319" y="697"/>
      <point x="446" y="696"/>
      <point x="510" y="696" type="qcurve" smooth="yes"/>
      <point x="539" y="696"/>
      <point x="577" y="698"/>
      <point x="584" y="698" type="qcurve" smooth="yes"/>
      <point x="621" y="698"/>
      <point x="689" y="673"/>
      <point x="741" y="628"/>
      <point x="772" y="564"/>
      <point x="772" y="525" type="qcurve" smooth="yes"/>
    </contour>
    <contour>
      <point x="237" y="91" type="line"/>
      <point x="546" y="91" type="line"/>
      <point x="546" y="0" type="line"/>
      <point x="237" y="0" type="line"/>
    </contour>
  </outline>
</glyph>
<glyph name="at" format="2">
  <advance width="933"/>
  <unicode hex="0040"/>
  <outline>
    <contour>
      <point x="25" y="239" type="qcurve" smooth="yes"/>
      <point x="25" y="327"/>
      <point x="93" y="484"/>
      <point x="211" y="602"/>
      <point x="367" y="670"/>
      <point x="456" y="670" type="qcurve" smooth="yes"/>
      <point x="544" y="670"/>
      <point x="701" y="602"/>
      <point x="818" y="485"/>
      <point x="887" y="328"/>
      <point x="887" y="239" type="qcurve" smooth="yes"/>
      <point x="887" y="158"/>
      <point x="837" y="25"/>
      <point x="786" y="-36" type="qcurve"/>
      <point x="560" y="-37" type="line"/>
      <point x="333" y="-37" type="line" smooth="yes"/>
      <point x="305" y="-37"/>
      <point x="254" y="-16"/>
      <point x="215" y="21"/>
      <point x="191" y="70"/>
      <point x="191" y="99" type="qcurve" smooth="yes"/>
      <point x="191" y="183" type="line" smooth="yes"/>
      <point x="191" y="212"/>
      <point x="214" y="264"/>
      <point x="233" y="283" type="qcurve" smooth="yes"/>
      <point x="252" y="303"/>
      <point x="304" y="325"/>
      <point x="342" y="325" type="qcurve"/>
      <point x="447" y="326" type="line"/>
      <point x="447" y="439" type="line"/>
      <point x="193" y="439" type="line"/>
      <point x="192" y="487" type="line"/>
      <point x="579" y="487" type="line" smooth="yes"/>
      <point x="608" y="487"/>
      <point x="660" y="465"/>
      <point x="698" y="426"/>
      <point x="720" y="374"/>
      <point x="720" y="345" type="qcurve" smooth="yes"/>
      <point x="720" y="11" type="line"/>
      <point x="761" y="10" type="line"/>
      <point x="797" y="58"/>
      <point x="838" y="173"/>
      <point x="838" y="239" type="qcurve" smooth="yes"/>
      <point x="838" y="318"/>
      <point x="778" y="457"/>
      <point x="674" y="561"/>
      <point x="535" y="621"/>
      <point x="456" y="621" type="qcurve" smooth="yes"/>
      <point x="377" y="621"/>
      <point x="238" y="561"/>
      <point x="134" y="457"/>
      <point x="74" y="318"/>
      <point x="74" y="239" type="qcurve" smooth="yes"/>
      <point x="74" y="160"/>
      <point x="134" y="21"/>
      <point x="238" y="-83"/>
      <point x="377" y="-143"/>
      <point x="456" y="-143" type="qcurve" smooth="yes"/>
      <point x="511" y="-143"/>
      <point x="609" y="-113"/>
      <point x="654" y="-87" type="qcurve"/>
      <point x="737" y="-87" type="line"/>
      <point x="674" y="-138"/>
      <point x="537" y="-192"/>
      <point x="456" y="-192" type="qcurve" smooth="yes"/>
      <point x="368" y="-192"/>
      <point x="211" y="-124"/>
      <point x="94" y="-7"/>
      <point x="25" y="150"/>
    </contour>
    <contour>
      <point x="450" y="278" type="line"/>
      <point x="333" y="278" type="line" smooth="yes"/>
      <point x="313" y="278"/>
      <point x="278" y="263"/>
      <point x="253" y="237"/>
      <point x="238" y="202"/>
      <point x="238" y="183" type="qcurve" smooth="yes"/>
      <point x="238" y="120" type="line" smooth="yes"/>
      <point x="238" y="75"/>
      <point x="283" y="10"/>
      <point x="333" y="10" type="qcurve"/>
      <point x="450" y="11" type="line"/>
    </contour>
  </outline>
</glyph>
<glyph name="B" format="2">
  <advance width="683"/>
  <unicode hex="0042"/>
  <outline>
    <contour>
      <point x="561" y="386" type="qcurve"/>
      <point x="609" y="357"/>
      <point x="661" y="267"/>
      <point x="661" y="210" type="qcurve" smooth="yes"/>
      <point x="661" y="166"/>
      <point x="629" y="90"/>
      <point x="573" y="33"/>
      <point x="496" y="0"/>
      <point x="452" y="0" type="qcurve" smooth="yes"/>
      <point x="35" y="0" type="line"/>
      <point x="35" y="695" type="line"/>
      <point x="452" y="695" type="line" smooth="yes"/>
      <point x="489" y="695"/>
      <point x="552" y="668"/>
      <point x="599" y="621"/>
      <point x="626" y="557"/>
      <point x="626" y="520" type="qcurve" smooth="yes"/>
      <point x="626" y="480"/>
      <point x="592" y="411"/>
    </contour>
    <contour>
      <point x="556" y="521" type="qcurve" smooth="yes"/>
      <point x="556" y="566"/>
      <point x="497" y="625"/>
      <point x="452" y="625" type="qcurve"/>
      <point x="452" y="417" type="line"/>
      <point x="497" y="417"/>
      <point x="556" y="476"/>
    </contour>
    <contour>
      <point x="591" y="208" type="qcurve" smooth="yes"/>
      <point x="591" y="237"/>
      <point x="569" y="288"/>
      <point x="532" y="325"/>
      <point x="481" y="347"/>
      <point x="452" y="347" type="qcurve"/>
      <point x="452" y="69" type="line"/>
      <point x="481" y="69"/>
      <point x="532" y="91"/>
      <point x="569" y="128"/>
      <point x="591" y="179"/>
    </contour>
  </outline>
</glyph>
<glyph name="D" format="2">
  <advance width="706"/>
  <unicode hex="0044"/>
  <outline>
    <contour>
      <point x="670" y="258" type="line" smooth="yes"/>
      <point x="670" y="244"/>
      <point x="669" y="215"/>
      <point x="668" y="201" type="qcurve" smooth="yes"/>
      <point x="666" y="159"/>
      <point x="633" y="86"/>
      <point x="577" y="31"/>
      <point x="503" y="0"/>
      <point x="460" y="0" type="qcurve" smooth="yes"/>
      <point x="43" y="0" type="line"/>
      <point x="43" y="695" type="line"/>
      <point x="460" y="695" type="line" smooth="yes"/>
      <point x="503" y="695"/>
      <point x="579" y="662"/>
      <point x="636" y="606"/>
      <point x="669" y="530"/>
      <point x="669" y="487" type="qcurve" smooth="yes"/>
      <point x="669" y="444"/>
      <point x="670" y="360"/>
      <point x="670" y="315" type="qcurve" smooth="yes"/>
    </contour>
    <contour>
      <point x="460" y="69" type="line"/>
      <point x="495" y="69"/>
      <point x="547" y="94"/>
      <point x="582" y="136"/>
      <point x="599" y="194"/>
      <point x="599" y="227" type="qcurve" smooth="yes"/>
      <point x="599" y="487" type="line" smooth="yes"/>
      <point x="599" y="515"/>
      <point x="577" y="566"/>
      <point x="539" y="604"/>
      <point x="488" y="626"/>
      <point x="460" y="626" type="qcurve"/>
    </contour>
  </outline>
</glyph>
<glyph name="E" format="2">
  <advance width="665"/>
  <unicode hex="0045"/>
  <outline>
    <contour>
      <point x="629" y="69" type="line"/>
      <point x="629" y="0" type="line"/>
      <point x="38" y="0" type="line"/>
      <point x="38" y="695" type="line"/>
      <point x="629" y="695" type="line"/>
      <point x="629" y="625" type="line"/>
      <point x="456" y="625" type="line"/>
      <point x="456" y="417" type="line"/>
      <point x="629" y="417" type="line"/>
      <point x="629" y="347" type="line"/>
      <point x="456" y="347" type="line"/>
      <point x="456" y="69" type="line"/>
    </contour>
  </outline>
</glyph>
<glyph name="F" format="2">
  <advance width="665"/>
  <unicode hex="0046"/>
  <outline>
    <contour>
      <point x="632" y="417" type="line"/>
      <point x="632" y="348" type="line"/>
      <point x="458" y="348" type="line"/>
      <point x="458" y="0" type="line"/>
      <point x="41" y="0" type="line"/>
      <point x="41" y="695" type="line"/>
      <point x="632" y="695" type="line"/>
      <point x="632" y="626" type="line"/>
      <point x="458" y="626" type="line"/>
      <point x="458" y="417" type="line"/>
    </contour>
  </outline>
</glyph>
<glyph name="G" format="2">
  <advance width="687"/>
  <unicode hex="0047"/>
  <outline>
    <contour>
      <point x="588" y="487" type="line"/>
      <point x="588" y="516"/>
      <point x="566" y="566"/>
      <point x="528" y="604"/>
      <point x="477" y="625"/>
      <point x="449" y="625" type="qcurve"/>
      <point x="449" y="69" type="line"/>
      <point x="477" y="69"/>
      <point x="528" y="91"/>
      <point x="566" y="129"/>
      <point x="588" y="179"/>
      <point x="588" y="208" type="qcurve" smooth="yes"/>
      <point x="588" y="243" type="line"/>
      <point x="518" y="243" type="line"/>
      <point x="518" y="313" type="line"/>
      <point x="657" y="313" type="line"/>
      <point x="657" y="208" type="line" smooth="yes"/>
      <point x="657" y="165"/>
      <point x="624" y="89"/>
      <point x="568" y="33"/>
      <point x="492" y="0"/>
      <point x="449" y="0" type="qcurve" smooth="yes"/>
      <point x="240" y="0" type="line" smooth="yes"/>
      <point x="197" y="0"/>
      <point x="121" y="33"/>
      <point x="65" y="89"/>
      <point x="32" y="165"/>
      <point x="32" y="208" type="qcurve" smooth="yes"/>
      <point x="32" y="487" type="line" smooth="yes"/>
      <point x="32" y="530"/>
      <point x="65" y="606"/>
      <point x="121" y="662"/>
      <point x="197" y="695"/>
      <point x="240" y="695" type="qcurve" smooth="yes"/>
      <point x="449" y="695" type="line" smooth="yes"/>
      <point x="492" y="695"/>
      <point x="568" y="662"/>
      <point x="624" y="606"/>
      <point x="657" y="530"/>
      <point x="657" y="487" type="qcurve"/>
    </contour>
  </outline>
</glyph>
<glyph name="J" format="2">
  <advance width="565"/>
  <unicode hex="004A"/>
  <outline>
    <contour>
      <point x="524" y="695" type="line"/>
      <point x="524" y="209" type="line" smooth="yes"/>
      <point x="524" y="166"/>
      <point x="491" y="90"/>
      <point x="435" y="33"/>
      <point x="359" y="0"/>
      <point x="316" y="0" type="qcurve" smooth="yes"/>
      <point x="38" y="0" type="line"/>
      <point x="38" y="69" type="line"/>
      <point x="107" y="69" type="line"/>
      <point x="107" y="695" type="line"/>
    </contour>
  </outline>
</glyph>
<glyph name="N" format="2">
  <advance width="719"/>
  <unicode hex="004E"/>
  <outline>
    <contour>
      <point x="669" y="695" type="line"/>
      <point x="669" y="0" type="line"/>
      <point x="600" y="0" type="line"/>
      <point x="600" y="232" type="line"/>
      <point x="461" y="540" type="line"/>
      <point x="461" y="0" type="line"/>
      <point x="44" y="0" type="line"/>
      <point x="44" y="695" type="line"/>
      <point x="461" y="695" type="line"/>
      <point x="600" y="386" type="line"/>
      <point x="600" y="695" type="line"/>
    </contour>
  </outline>
</glyph>
<glyph name="O" format="2">
  <advance width="706"/>
  <unicode hex="004F"/>
  <outline>
    <contour>
      <point x="665" y="201" type="line" smooth="yes"/>
      <point x="665" y="159"/>
      <point x="630" y="86"/>
      <point x="573" y="32"/>
      <point x="497" y="0"/>
      <point x="457" y="0" type="qcurve" smooth="yes"/>
      <point x="248" y="0" type="line" smooth="yes"/>
      <point x="205" y="0"/>
      <point x="129" y="33"/>
      <point x="73" y="89"/>
      <point x="40" y="165"/>
      <point x="40" y="208" type="qcurve" smooth="yes"/>
      <point x="40" y="486" type="line" smooth="yes"/>
      <point x="40" y="529"/>
      <point x="73" y="605"/>
      <point x="129" y="662"/>
      <point x="205" y="695"/>
      <point x="248" y="695" type="qcurve" smooth="yes"/>
      <point x="457" y="695" type="line" smooth="yes"/>
      <point x="500" y="695"/>
      <point x="576" y="662"/>
      <point x="632" y="605"/>
      <point x="665" y="529"/>
      <point x="665" y="486" type="qcurve" smooth="yes"/>
    </contour>
    <contour>
      <point x="457" y="69" type="line"/>
      <point x="494" y="69"/>
      <point x="546" y="95"/>
      <point x="580" y="139"/>
      <point x="596" y="199"/>
      <point x="596" y="232" type="qcurve" smooth="yes"/>
      <point x="596" y="486" type="line" smooth="yes"/>
      <point x="596" y="515"/>
      <point x="574" y="566"/>
      <point x="537" y="603"/>
      <point x="486" y="625"/>
      <point x="457" y="625" type="qcurve"/>
    </contour>
  </outline>
</glyph>
<glyph name="T" format="2">
  <advance width="732"/>
  <unicode hex="0054"/>
  <outline>
    <contour>
      <point x="715" y="695" type="line"/>
      <point x="715" y="625" type="line"/>
      <point x="575" y="625" type="line"/>
      <point x="575" y="0" type="line"/>
      <point x="161" y="0" type="line"/>
      <point x="160" y="625" type="line"/>
      <point x="20" y="625" type="line"/>
      <point x="20" y="695" type="line"/>
    </contour>
  </outline>
</glyph>
<glyph name="U" format="2">
  <advance width="714"/>
  <unicode hex="0055"/>
  <outline>
    <contour>
      <point x="672" y="308" type="qcurve" smooth="yes"/>
      <point x="672" y="281"/>
      <point x="673" y="249"/>
      <point x="673" y="244" type="qcurve" smooth="yes"/>
      <point x="673" y="233"/>
      <point x="672" y="212"/>
      <point x="671" y="201" type="qcurve" smooth="yes"/>
      <point x="669" y="159"/>
      <point x="635" y="86"/>
      <point x="579" y="31"/>
      <point x="504" y="0"/>
      <point x="462" y="0" type="qcurve" smooth="yes"/>
      <point x="254" y="0" type="line" smooth="yes"/>
      <point x="211" y="0"/>
      <point x="135" y="33"/>
      <point x="78" y="89"/>
      <point x="45" y="165"/>
      <point x="45" y="208" type="qcurve" smooth="yes"/>
      <point x="45" y="695" type="line"/>
      <point x="462" y="695" type="line"/>
      <point x="462" y="69" type="line"/>
      <point x="500" y="69"/>
      <point x="554" y="96"/>
      <point x="576" y="128" type="qcurve" smooth="yes"/>
      <point x="597" y="159"/>
      <point x="601" y="220"/>
      <point x="601" y="255" type="qcurve" smooth="yes"/>
      <point x="601" y="695" type="line"/>
      <point x="671" y="695" type="line"/>
      <point x="671" y="598"/>
      <point x="672" y="405"/>
    </contour>
  </outline>
</glyph>
<glyph name="Y" format="2">
  <advance width="782"/>
  <unicode hex="0059"/>
  <outline>
    <contour>
      <point x="340" y="695" type="line"/>
      <point x="757" y="695" type="line"/>
      <point x="444" y="0" type="line"/>
      <point x="27" y="0" type="line"/>
      <point x="221" y="430" type="line"/>
      <point x="101" y="695" type="line"/>
      <point x="188" y="695" type="line"/>
      <point x="264" y="526" type="line"/>
    </contour>
  </outline>
</glyph>
<glyph name="Z" format="2">
  <advance width="748"/>
  <unicode hex="005A"/>
  <outline>
    <contour>
      <point x="722" y="626" type="line"/>
      <point x="444" y="70" type="line"/>
      <point x="722" y="70" type="line"/>
      <point x="722" y="0" type="line"/>
      <point x="27" y="0" type="line"/>
      <point x="27" y="70" type="line"/>
      <point x="305" y="626" type="line"/>
      <point x="27" y="626" type="line"/>
      <point x="27" y="695" type="line"/>
      <point x="722" y="695" type="line"/>
    </contour>
  </outline>
</glyph>
<glyph name="bracketleft" format="2">
  <advance width="403"/>
  <unicode hex="005B"/>
  <outline>
    <contour>
      <point x="382" y="842" type="line"/>
      <point x="382" y="719" type="line"/>
      <point x="234" y="719" type="line"/>
      <point x="234" y="-14" type="line"/>
      <point x="382" y="-14" type="line"/>
      <point x="382" y="-137" type="line"/>
      <point x="13" y="-137" type="line"/>
      <point x="13" y="842" type="line"/>
    </contour>
  </outline>
</glyph>
<glyph name="backslash" format="2">
  <advance width="286"/>
  <unicode hex="005C"/>
  <outline>
    <contour>
      <point x="97" y="729" type="line"/>
      <point x="245" y="-46" type="line"/>
      <point x="187" y="-46" type="line"/>
      <point x="39" y="729" type="line"/>
    </contour>
  </outline>
</glyph>
<glyph name="bracketright" format="2">
  <advance width="403"/>
  <unicode hex="005D"/>
  <outline>
    <contour>
      <point x="13" y="-137" type="line"/>
      <point x="13" y="-14" type="line"/>
      <point x="161" y="-14" type="line"/>
      <point x="161" y="719" type="line"/>
      <point x="13" y="719" type="line"/>
      <point x="13" y="842" type="line"/>
      <point x="382" y="842" type="line"/>
      <point x="382" y="-137" type="line"/>
    </contour>
  </outline>
</glyph>
<glyph name="asciicircum" format="2">
  <advance width="685"/>
  <unicode hex="005E"/>
  <outline>
    <contour>
      <point x="586" y="209" type="line"/>
      <point x="343" y="592" type="line"/>
      <point x="99" y="209" type="line"/>
      <point x="21" y="240" type="line"/>
      <point x="301" y="681" type="line"/>
      <point x="384" y="681" type="line"/>
      <point x="664" y="240" type="line"/>
    </contour>
  </outline>
</glyph>
<glyph name="underscore" format="2">
  <advance width="694"/>
  <unicode hex="005F"/>
  <outline>
    <contour>
      <point x="662" y="-111" type="line"/>
      <point x="31" y="-111" type="line"/>
      <point x="31" y="-36" type="line"/>
      <point x="662" y="-36" type="line"/>
    </contour>
  </outline>
</glyph>
<glyph name="grave" format="2">
  <advance width="833"/>
  <unicode hex="0060"/>
  <outline>
    <contour>
      <point x="284" y="893" type="line"/>
      <point x="404" y="948" type="line"/>
      <point x="473" y="774" type="line"/>
      <point x="387" y="740" type="line"/>
    </contour>
  </outline>
</glyph>
<glyph name="c" format="2">
  <advance width="697"/>
  <unicode hex="0063"/>
  <outline>
    <contour>
      <point x="592" y="487" type="line"/>
      <point x="592" y="516"/>
      <point x="570" y="567"/>
      <point x="533" y="604"/>
      <point x="482" y="626"/>
      <point x="453" y="626" type="qcurve"/>
      <point x="453" y="70" type="line"/>
      <point x="482" y="70"/>
      <point x="533" y="92"/>
      <point x="570" y="129"/>
      <point x="592" y="180"/>
      <point x="592" y="209" type="qcurve"/>
      <point x="661" y="209" type="line"/>
      <point x="661" y="166"/>
      <point x="628" y="90"/>
      <point x="572" y="33"/>
      <point x="496" y="0"/>
      <point x="453" y="0" type="qcurve" smooth="yes"/>
      <point x="244" y="0" type="line" smooth="yes"/>
      <point x="201" y="0"/>
      <point x="125" y="33"/>
      <point x="69" y="90"/>
      <point x="36" y="166"/>
      <point x="36" y="209" type="qcurve" smooth="yes"/>
      <point x="36" y="487" type="line" smooth="yes"/>
      <point x="36" y="530"/>
      <point x="69" y="606"/>
      <point x="125" y="663"/>
      <point x="201" y="696"/>
      <point x="244" y="696" type="qcurve" smooth="yes"/>
      <point x="453" y="696" type="line" smooth="yes"/>
      <point x="496" y="696"/>
      <point x="572" y="663"/>
      <point x="628" y="606"/>
      <point x="661" y="530"/>
      <point x="661" y="487" type="qcurve"/>
    </contour>
  </outline>
</glyph>
<glyph name="h" format="2">
  <advance width="622"/>
  <unicode hex="0068"/>
  <outline>
    <contour>
      <point x="595" y="695" type="line"/>
      <point x="595" y="0" type="line"/>
      <point x="526" y="0" type="line"/>
      <point x="526" y="129" type="line"/>
      <point x="410" y="129" type="line"/>
      <point x="410" y="0" type="line"/>
      <point x="35" y="0" type="line"/>
      <point x="35" y="695" type="line"/>
      <point x="410" y="695" type="line"/>
      <point x="410" y="198" type="line"/>
      <point x="526" y="198" type="line"/>
      <point x="526" y="695" type="line"/>
    </contour>
  </outline>
</glyph>
<glyph name="k" format="2">
  <advance width="697"/>
  <unicode hex="006B"/>
  <outline>
    <contour>
      <point x="510" y="386" type="line"/>
      <point x="684" y="0" type="line"/>
      <point x="614" y="0" type="line"/>
      <point x="475" y="309" type="line"/>
      <point x="458" y="270" type="line"/>
      <point x="458" y="0" type="line"/>
      <point x="41" y="0" type="line"/>
      <point x="41" y="695" type="line"/>
      <point x="458" y="695" type="line"/>
      <point x="458" y="424" type="line"/>
      <point x="580" y="695" type="line"/>
      <point x="649" y="695" type="line"/>
    </contour>
  </outline>
</glyph>
<glyph name="l" format="2">
  <advance width="683"/>
  <unicode hex="006C"/>
  <outline>
    <contour>
      <point x="666" y="69" type="line"/>
      <point x="666" y="0" type="line"/>
      <point x="40" y="0" type="line"/>
      <point x="40" y="695" type="line"/>
      <point x="457" y="695" type="line"/>
      <point x="457" y="69" type="line"/>
    </contour>
  </outline>
</glyph>
<glyph name="m" format="2">
  <advance width="1138"/>
  <unicode hex="006D"/>
  <outline>
    <contour>
      <point x="1089" y="695" type="line"/>
      <point x="1089" y="0" type="line"/>
      <point x="672" y="0" type="line"/>
      <point x="672" y="540" type="line"/>
      <point x="568" y="309" type="line"/>
      <point x="463" y="540" type="line"/>
      <point x="463" y="0" type="line"/>
      <point x="46" y="0" type="line"/>
      <point x="46" y="695" type="line"/>
      <point x="463" y="695" type="line"/>
      <point x="470" y="681"/>
      <point x="483" y="651"/>
      <point x="490" y="637" type="qcurve" smooth="yes"/>
      <point x="492" y="633" type="line"/>
      <point x="492" y="632" type="line"/>
      <point x="493" y="631"/>
      <point x="493" y="629"/>
      <point x="494" y="628" type="qcurve"/>
      <point x="495" y="626" type="line"/>
      <point x="495" y="625" type="line"/>
      <point x="496" y="623" type="line"/>
      <point x="497" y="616"/>
      <point x="502" y="610" type="qcurve"/>
      <point x="506" y="602" type="line"/>
      <point x="506" y="600" type="line"/>
      <point x="506" y="599"/>
      <point x="507" y="598" type="qcurve"/>
      <point x="507" y="597"/>
      <point x="508" y="597" type="qcurve"/>
      <point x="508" y="596"/>
      <point x="509" y="595" type="qcurve"/>
      <point x="509" y="594" type="line"/>
      <point x="509" y="593" type="line"/>
      <point x="510" y="593"/>
      <point x="510" y="592" type="qcurve"/>
      <point x="510" y="591"/>
      <point x="511" y="590" type="qcurve"/>
      <point x="511" y="589"/>
      <point x="512" y="589" type="qcurve"/>
      <point x="512" y="588"/>
      <point x="513" y="587" type="qcurve"/>
      <point x="513" y="586" type="line"/>
      <point x="513" y="585" type="line"/>
      <point x="514" y="585"/>
      <point x="514" y="584" type="qcurve"/>
      <point x="514" y="583" type="line"/>
      <point x="515" y="582"/>
      <point x="515" y="580"/>
      <point x="516" y="579" type="qcurve"/>
      <point x="518" y="575"/>
      <point x="520" y="569"/>
      <point x="522" y="565" type="qcurve" smooth="yes"/>
      <point x="524" y="561" type="line" smooth="yes"/>
      <point x="528" y="553"/>
      <point x="535" y="535"/>
      <point x="539" y="527" type="qcurve"/>
      <point x="541" y="524" type="line"/>
      <point x="547" y="508"/>
      <point x="554" y="495" type="qcurve"/>
      <point x="555" y="492" type="line"/>
      <point x="558" y="485"/>
      <point x="564" y="473"/>
      <point x="566" y="467" type="qcurve"/>
      <point x="568" y="463" type="line"/>
      <point x="594" y="523"/>
      <point x="646" y="637"/>
      <point x="672" y="695" type="qcurve"/>
    </contour>
  </outline>
</glyph>
<glyph name="p" format="2">
  <advance width="649"/>
  <unicode hex="0070"/>
  <outline>
    <contour>
      <point x="460" y="0" type="line"/>
      <point x="43" y="0" type="line"/>
      <point x="43" y="695" type="line"/>
      <point x="460" y="695" type="line" smooth="yes"/>
      <point x="497" y="695"/>
      <point x="560" y="668"/>
      <point x="607" y="620"/>
      <point x="634" y="556"/>
      <point x="634" y="520" type="qcurve" smooth="yes"/>
      <point x="634" y="484"/>
      <point x="606" y="422"/>
      <point x="559" y="375"/>
      <point x="496" y="348"/>
      <point x="460" y="348" type="qcurve"/>
    </contour>
    <contour>
      <point x="564" y="521" type="qcurve" smooth="yes"/>
      <point x="564" y="542"/>
      <point x="548" y="581"/>
      <point x="519" y="609"/>
      <point x="481" y="626"/>
      <point x="460" y="626" type="qcurve"/>
      <point x="460" y="417" type="line"/>
      <point x="481" y="417"/>
      <point x="519" y="433"/>
      <point x="548" y="462"/>
      <point x="564" y="500"/>
    </contour>
  </outline>
</glyph>
<glyph name="q" format="2">
  <advance width="709"/>
  <unicode hex="0071"/>
  <outline>
    <contour>
      <point x="532" y="14" type="line"/>
      <point x="488" y="0"/>
      <point x="456" y="0" type="qcurve" smooth="yes"/>
      <point x="247" y="0" type="line" smooth="yes"/>
      <point x="204" y="0"/>
      <point x="128" y="33"/>
      <point x="72" y="89"/>
      <point x="39" y="165"/>
      <point x="39" y="208" type="qcurve" smooth="yes"/>
      <point x="39" y="486" type="line" smooth="yes"/>
      <point x="39" y="529"/>
      <point x="72" y="605"/>
      <point x="128" y="662"/>
      <point x="204" y="695"/>
      <point x="247" y="695" type="qcurve" smooth="yes"/>
      <point x="456" y="695" type="line" smooth="yes"/>
      <point x="499" y="695"/>
      <point x="575" y="662"/>
      <point x="631" y="605"/>
      <point x="664" y="529"/>
      <point x="664" y="486" type="qcurve" smooth="yes"/>
      <point x="664" y="422"/>
      <point x="665" y="295"/>
      <point x="665" y="232" type="qcurve" smooth="yes"/>
      <point x="665" y="190"/>
      <point x="648" y="118"/>
      <point x="622" y="83" type="qcurve"/>
      <point x="587" y="162" type="line"/>
      <point x="589" y="169"/>
      <point x="592" y="200"/>
      <point x="594" y="242"/>
      <point x="595" y="292"/>
      <point x="595" y="318" type="qcurve" smooth="yes"/>
      <point x="595" y="486" type="line" smooth="yes"/>
      <point x="595" y="515"/>
      <point x="573" y="566"/>
      <point x="536" y="603"/>
      <point x="485" y="625"/>
      <point x="456" y="625" type="qcurve"/>
      <point x="456" y="69" type="line"/>
      <point x="480" y="69"/>
      <point x="503" y="78" type="qcurve"/>
    </contour>
    <contour>
      <point x="635" y="0" type="line"/>
      <point x="565" y="0" type="line"/>
      <point x="548" y="37"/>
      <point x="515" y="112"/>
      <point x="498" y="150" type="qcurve"/>
      <point x="567" y="150" type="line"/>
    </contour>
  </outline>
</glyph>
<glyph name="r" format="2">
  <advance width="704"/>
  <unicode hex="0072"/>
  <outline>
    <contour>
      <point x="529" y="360" type="qcurve"/>
      <point x="608" y="180"/>
      <point x="691" y="0" type="qcurve"/>
      <point x="621" y="0" type="line"/>
      <point x="465" y="347" type="line"/>
      <point x="465" y="0" type="line"/>
      <point x="48" y="0" type="line"/>
      <point x="48" y="695" type="line"/>
      <point x="465" y="695" type="line" smooth="yes"/>
      <point x="501" y="695"/>
      <point x="565" y="668"/>
      <point x="612" y="620"/>
      <point x="639" y="556"/>
      <point x="639" y="520" type="qcurve" smooth="yes"/>
      <point x="639" y="457"/>
      <point x="589" y="383"/>
    </contour>
    <contour>
      <point x="569" y="521" type="qcurve" smooth="yes"/>
      <point x="569" y="566"/>
      <point x="510" y="625"/>
      <point x="465" y="625" type="qcurve"/>
      <point x="465" y="417" type="line"/>
      <point x="510" y="417"/>
      <point x="569" y="476"/>
    </contour>
  </outline>
</glyph>
<glyph name="s" format="2">
  <advance width="719"/>
  <unicode hex="0073"/>
  <outline>
    <contour>
      <point x="252" y="0" type="line" smooth="yes"/>
      <point x="209" y="0"/>
      <point x="133" y="33"/>
      <point x="77" y="89"/>
      <point x="44" y="165"/>
      <point x="44" y="208" type="qcurve" smooth="yes"/>
      <point x="44" y="278" type="line"/>
      <point x="461" y="278" type="line"/>
      <point x="461" y="69" type="line"/>
      <point x="490" y="69"/>
      <point x="541" y="91"/>
      <point x="578" y="128"/>
      <point x="600" y="179"/>
      <point x="600" y="208" type="qcurve" smooth="yes"/>
      <point x="600" y="237"/>
      <point x="578" y="288"/>
      <point x="541" y="325"/>
      <point x="490" y="347"/>
      <point x="461" y="347" type="qcurve" smooth="yes"/>
      <point x="218" y="347" type="line" smooth="yes"/>
      <point x="182" y="347"/>
      <point x="119" y="374"/>
      <point x="71" y="422"/>
      <point x="44" y="485"/>
      <point x="44" y="521" type="qcurve" smooth="yes"/>
      <point x="44" y="557"/>
      <point x="71" y="620"/>
      <point x="119" y="668"/>
      <point x="182" y="695"/>
      <point x="218" y="695" type="qcurve" smooth="yes"/>
      <point x="461" y="695" type="line" smooth="yes"/>
      <point x="504" y="695"/>
      <point x="580" y="662"/>
      <point x="637" y="605"/>
      <point x="670" y="529"/>
      <point x="670" y="486" type="qcurve"/>
      <point x="600" y="486" type="line"/>
      <point x="600" y="515"/>
      <point x="578" y="566"/>
      <point x="541" y="603"/>
      <point x="490" y="625"/>
      <point x="461" y="625" type="qcurve"/>
      <point x="461" y="417" type="line"/>
      <point x="504" y="417"/>
      <point x="579" y="385"/>
      <point x="636" y="329"/>
      <point x="669" y="254"/>
      <point x="669" y="211" type="qcurve" smooth="yes"/>
      <point x="669" y="168"/>
      <point x="637" y="92"/>
      <point x="580" y="34"/>
      <point x="504" y="0"/>
      <point x="461" y="0" type="qcurve" smooth="yes"/>
    </contour>
  </outline>
</glyph>
<glyph name="x" format="2">
  <advance width="782"/>
  <unicode hex="0078"/>
  <outline>
    <contour>
      <point x="45" y="0" type="line"/>
      <point x="239" y="230" type="line"/>
      <point x="30" y="695" type="line"/>
      <point x="447" y="695" type="line"/>
      <point x="511" y="553" type="line"/>
      <point x="631" y="695" type="line"/>
      <point x="760" y="695" type="line"/>
      <point x="556" y="453" type="line"/>
      <point x="760" y="0" type="line"/>
      <point x="343" y="0" type="line"/>
      <point x="284" y="131" type="line"/>
      <point x="174" y="0" type="line"/>
    </contour>
  </outline>
</glyph>
<glyph name="braceleft" format="2">
  <advance width="387"/>
  <unicode hex="007B"/>
  <outline>
    <contour>
      <point x="358" y="746" type="line"/>
      <point x="356" y="746" type="line"/>
      <point x="327" y="746"/>
      <point x="290" y="699"/>
      <point x="284" y="672" type="qcurve"/>
      <point x="278" y="652"/>
      <point x="278" y="627" type="qcurve" smooth="yes"/>
      <point x="278" y="622"/>
      <point x="280" y="584"/>
      <point x="283" y="546" type="qcurve" smooth="yes"/>
      <point x="285" y="508"/>
      <point x="286" y="471"/>
      <point x="286" y="469" type="qcurve"/>
      <point x="286" y="433"/>
      <point x="279" y="413" type="qcurve"/>
      <point x="265" y="363"/>
      <point x="220" y="344" type="qcurve"/>
      <point x="225" y="342"/>
      <point x="234" y="336"/>
      <point x="239" y="334" type="qcurve"/>
      <point x="269" y="315"/>
      <point x="279" y="275" type="qcurve"/>
      <point x="286" y="255"/>
      <point x="286" y="219" type="qcurve"/>
      <point x="286" y="217"/>
      <point x="285" y="181"/>
      <point x="283" y="143" type="qcurve" smooth="yes"/>
      <point x="280" y="105"/>
      <point x="278" y="66"/>
      <point x="278" y="61" type="qcurve" smooth="yes"/>
      <point x="278" y="35"/>
      <point x="284" y="16" type="qcurve"/>
      <point x="290" y="-11"/>
      <point x="327" y="-58"/>
      <point x="356" y="-58" type="qcurve"/>
      <point x="358" y="-58" type="line"/>
      <point x="358" y="-125" type="line"/>
      <point x="327" y="-126"/>
      <point x="274" y="-130"/>
      <point x="260" y="-130" type="qcurve" smooth="yes"/>
      <point x="173" y="-130"/>
      <point x="98" y="-61"/>
      <point x="98" y="22" type="qcurve" smooth="yes"/>
      <point x="98" y="31"/>
      <point x="101" y="92"/>
      <point x="101" y="134" type="qcurve"/>
      <point x="102" y="133" type="line"/>
      <point x="101" y="137"/>
      <point x="101" y="162"/>
      <point x="102" y="189"/>
      <point x="103" y="210"/>
      <point x="103" y="212" type="qcurve"/>
      <point x="99" y="224"/>
      <point x="86" y="250"/>
      <point x="68" y="273"/>
      <point x="43" y="287"/>
      <point x="28" y="287" type="qcurve"/>
      <point x="28" y="401" type="line"/>
      <point x="43" y="401"/>
      <point x="68" y="415"/>
      <point x="86" y="438"/>
      <point x="99" y="464"/>
      <point x="103" y="476" type="qcurve"/>
      <point x="103" y="477"/>
      <point x="102" y="499"/>
      <point x="101" y="526"/>
      <point x="101" y="551"/>
      <point x="102" y="555" type="qcurve"/>
      <point x="101" y="554" type="line"/>
      <point x="101" y="596"/>
      <point x="98" y="657"/>
      <point x="98" y="666" type="qcurve" smooth="yes"/>
      <point x="98" y="749"/>
      <point x="173" y="818"/>
      <point x="260" y="818" type="qcurve" smooth="yes"/>
      <point x="274" y="818"/>
      <point x="327" y="814"/>
      <point x="358" y="813" type="qcurve"/>
    </contour>
  </outline>
</glyph>
<glyph name="braceright" format="2">
  <advance width="387"/>
  <unicode hex="007D"/>
  <outline>
    <contour>
      <point x="28" y="813" type="line"/>
      <point x="59" y="814"/>
      <point x="112" y="818"/>
      <point x="126" y="818" type="qcurve" smooth="yes"/>
      <point x="213" y="818"/>
      <point x="288" y="749"/>
      <point x="288" y="666" type="qcurve" smooth="yes"/>
      <point x="288" y="657"/>
      <point x="285" y="596"/>
      <point x="285" y="554" type="qcurve"/>
      <point x="284" y="555" type="line"/>
      <point x="285" y="551"/>
      <point x="285" y="526"/>
      <point x="284" y="499"/>
      <point x="283" y="477"/>
      <point x="283" y="476" type="qcurve"/>
      <point x="287" y="464"/>
      <point x="300" y="438"/>
      <point x="318" y="415"/>
      <point x="343" y="401"/>
      <point x="358" y="401" type="qcurve"/>
      <point x="358" y="287" type="line"/>
      <point x="343" y="287"/>
      <point x="318" y="273"/>
      <point x="300" y="250"/>
      <point x="287" y="224"/>
      <point x="283" y="212" type="qcurve"/>
      <point x="283" y="210"/>
      <point x="284" y="189"/>
      <point x="285" y="162"/>
      <point x="285" y="137"/>
      <point x="284" y="133" type="qcurve"/>
      <point x="285" y="134" type="line"/>
      <point x="285" y="92"/>
      <point x="288" y="31"/>
      <point x="288" y="22" type="qcurve" smooth="yes"/>
      <point x="288" y="-61"/>
      <point x="213" y="-130"/>
      <point x="126" y="-130" type="qcurve" smooth="yes"/>
      <point x="112" y="-130"/>
      <point x="59" y="-126"/>
      <point x="28" y="-125" type="qcurve"/>
      <point x="28" y="-58" type="line"/>
      <point x="30" y="-58" type="line"/>
      <point x="59" y="-58"/>
      <point x="96" y="-11"/>
      <point x="102" y="16" type="qcurve"/>
      <point x="108" y="35"/>
      <point x="108" y="61" type="qcurve" smooth="yes"/>
      <point x="108" y="66"/>
      <point x="106" y="105"/>
      <point x="104" y="143" type="qcurve" smooth="yes"/>
      <point x="101" y="181"/>
      <point x="100" y="217"/>
      <point x="100" y="219" type="qcurve"/>
      <point x="100" y="255"/>
      <point x="107" y="275" type="qcurve"/>
      <point x="117" y="315"/>
      <point x="147" y="334" type="qcurve"/>
      <point x="152" y="336"/>
      <point x="161" y="342"/>
      <point x="166" y="344" type="qcurve"/>
      <point x="121" y="363"/>
      <point x="107" y="413" type="qcurve"/>
      <point x="100" y="433"/>
      <point x="100" y="469" type="qcurve"/>
      <point x="100" y="471"/>
      <point x="101" y="508"/>
      <point x="104" y="546" type="qcurve" smooth="yes"/>
      <point x="106" y="584"/>
      <point x="108" y="622"/>
      <point x="108" y="627" type="qcurve" smooth="yes"/>
      <point x="108" y="652"/>
      <point x="102" y="672" type="qcurve"/>
      <point x="96" y="699"/>
      <point x="59" y="746"/>
      <point x="30" y="746" type="qcurve"/>
      <point x="28" y="746" type="line"/>
    </contour>
  </outline>
</glyph>
<glyph name="asciitilde" format="2">
  <advance width="587"/>
  <unicode hex="007E"/>
  <outline>
    <contour>
      <point x="563" y="484" type="line"/>
      <point x="556" y="454"/>
      <point x="541" y="378"/>
      <point x="512" y="309"/>
      <point x="462" y="262"/>
      <point x="420" y="262" type="qcurve" smooth="yes"/>
      <point x="401" y="262"/>
      <point x="357" y="271"/>
      <point x="311" y="283"/>
      <point x="266" y="298"/>
      <point x="246" y="304" type="qcurve"/>
      <point x="246" y="305" type="line"/>
      <point x="243" y="305"/>
      <point x="219" y="312"/>
      <point x="194" y="319"/>
      <point x="172" y="326"/>
      <point x="171" y="326" type="qcurve"/>
      <point x="159" y="326"/>
      <point x="130" y="321"/>
      <point x="104" y="309"/>
      <point x="83" y="289"/>
      <point x="79" y="274" type="qcurve"/>
      <point x="13" y="292" type="line"/>
      <point x="20" y="323"/>
      <point x="35" y="400"/>
      <point x="64" y="467"/>
      <point x="114" y="513"/>
      <point x="156" y="513" type="qcurve" smooth="yes"/>
      <point x="183" y="513"/>
      <point x="251" y="493"/>
      <point x="319" y="470"/>
      <point x="384" y="450"/>
      <point x="408" y="450" type="qcurve" smooth="yes"/>
      <point x="421" y="450"/>
      <point x="450" y="455"/>
      <point x="476" y="468"/>
      <point x="495" y="488"/>
      <point x="498" y="503" type="qcurve"/>
    </contour>
  </outline>
</glyph>
<glyph name="exclamdown" format="2">
  <advance width="390"/>
  <unicode hex="00A1"/>
  <outline>
    <contour>
      <point x="40" y="548" type="line"/>
      <point x="349" y="548" type="line"/>
      <point x="349" y="0" type="line"/>
      <point x="40" y="0" type="line"/>
    </contour>
    <contour>
      <point x="40" y="695" type="line"/>
      <point x="349" y="695" type="line"/>
      <point x="349" y="604" type="line"/>
      <point x="40" y="604" type="line"/>
    </contour>
  </outline>
</glyph>
<glyph name="sterling" format="2">
  <advance width="954"/>
  <unicode hex="00A3"/>
  <outline>
    <contour>
      <point x="291" y="506" type="line" smooth="yes"/>
      <point x="291" y="547"/>
      <point x="322" y="611"/>
      <point x="375" y="656"/>
      <point x="444" y="679"/>
      <point x="482" y="679" type="qcurve" smooth="yes"/>
      <point x="534" y="679" type="line" smooth="yes"/>
      <point x="573" y="679"/>
      <point x="651" y="678"/>
      <point x="690" y="678" type="qcurve" smooth="yes"/>
      <point x="709" y="678"/>
      <point x="747" y="674"/>
      <point x="766" y="669" type="qcurve" smooth="yes"/>
      <point x="799" y="660"/>
      <point x="854" y="621"/>
      <point x="894" y="567"/>
      <point x="916" y="503"/>
      <point x="916" y="469" type="qcurve"/>
      <point x="846" y="469" type="line"/>
      <point x="846" y="497"/>
      <point x="824" y="548"/>
      <point x="787" y="585"/>
      <point x="736" y="607"/>
      <point x="708" y="607" type="qcurve"/>
      <point x="708" y="432" type="line"/>
      <point x="881" y="432" type="line"/>
      <point x="881" y="357" type="line"/>
      <point x="708" y="357" type="line"/>
      <point x="708" y="328" type="line" smooth="yes"/>
      <point x="708" y="289"/>
      <point x="684" y="222"/>
      <point x="639" y="171"/>
      <point x="574" y="142"/>
      <point x="534" y="142" type="qcurve" smooth="yes"/>
      <point x="292" y="142" type="line"/>
      <point x="292" y="70" type="line"/>
      <point x="911" y="70" type="line"/>
      <point x="911" y="0" type="line"/>
      <point x="83" y="0" type="line"/>
      <point x="83" y="178" type="line" smooth="yes"/>
      <point x="83" y="193"/>
      <point x="84" y="223"/>
      <point x="87" y="237" type="qcurve" smooth="yes"/>
      <point x="94" y="273"/>
      <point x="132" y="334"/>
      <point x="160" y="357" type="qcurve"/>
      <point x="42" y="357" type="line"/>
      <point x="42" y="432" type="line"/>
      <point x="291" y="432" type="line"/>
    </contour>
  </outline>
</glyph>
<glyph name="yen" format="2">
  <advance width="782"/>
  <unicode hex="00A5"/>
  <outline>
    <contour>
      <point x="783" y="400" type="line"/>
      <point x="624" y="400" type="line"/>
      <point x="575" y="290" type="line"/>
      <point x="783" y="290" type="line"/>
      <point x="783" y="215" type="line"/>
      <point x="541" y="215" type="line"/>
      <point x="444" y="0" type="line"/>
      <point x="27" y="0" type="line"/>
      <point x="124" y="215" type="line"/>
      <point x="0" y="215" type="line"/>
      <point x="0" y="290" type="line"/>
      <point x="158" y="290" type="line"/>
      <point x="207" y="400" type="line"/>
      <point x="0" y="400" type="line"/>
      <point x="0" y="475" type="line"/>
      <point x="201" y="475" type="line"/>
      <point x="101" y="695" type="line"/>
      <point x="188" y="695" type="line"/>
      <point x="264" y="526" type="line"/>
      <point x="340" y="695" type="line"/>
      <point x="757" y="695" type="line"/>
      <point x="658" y="475" type="line"/>
      <point x="783" y="475" type="line"/>
    </contour>
  </outline>
</glyph>
<glyph name="section" format="2">
  <advance width="682"/>
  <unicode hex="00A7"/>
  <outline>
    <contour>
      <point x="26" y="-178" type="line"/>
      <point x="26" y="-109" type="line"/>
      <point x="450" y="-109" type="line" smooth="yes"/>
      <point x="479" y="-109"/>
      <point x="530" y="-87"/>
      <point x="567" y="-50"/>
      <point x="589" y="1"/>
      <point x="589" y="30" type="qcurve" smooth="yes"/>
      <point x="589" y="59"/>
      <point x="567" y="110"/>
      <point x="530" y="147"/>
      <point x="479" y="169"/>
      <point x="450" y="169" type="qcurve" smooth="yes"/>
      <point x="207" y="169" type="line" smooth="yes"/>
      <point x="171" y="169"/>
      <point x="108" y="196"/>
      <point x="60" y="244"/>
      <point x="33" y="307"/>
      <point x="33" y="343" type="qcurve"/>
      <point x="450" y="343" type="line"/>
      <point x="450" y="239" type="line"/>
      <point x="477" y="240"/>
      <point x="525" y="263"/>
      <point x="561" y="300"/>
      <point x="582" y="350"/>
      <point x="582" y="378" type="qcurve" smooth="yes"/>
      <point x="582" y="407"/>
      <point x="560" y="458"/>
      <point x="523" y="495"/>
      <point x="472" y="517"/>
      <point x="443" y="517" type="qcurve" smooth="yes"/>
      <point x="200" y="517" type="line" smooth="yes"/>
      <point x="164" y="517"/>
      <point x="101" y="544"/>
      <point x="53" y="592"/>
      <point x="26" y="655"/>
      <point x="26" y="691" type="qcurve" smooth="yes"/>
      <point x="26" y="727"/>
      <point x="53" y="790"/>
      <point x="101" y="838"/>
      <point x="164" y="865"/>
      <point x="200" y="865" type="qcurve" smooth="yes"/>
      <point x="443" y="865" type="line" smooth="yes"/>
      <point x="486" y="865"/>
      <point x="562" y="832"/>
      <point x="619" y="775"/>
      <point x="652" y="699"/>
      <point x="652" y="656" type="qcurve"/>
      <point x="582" y="656" type="line"/>
      <point x="582" y="685"/>
      <point x="560" y="736"/>
      <point x="523" y="773"/>
      <point x="472" y="795"/>
      <point x="443" y="795" type="qcurve"/>
      <point x="443" y="587" type="line"/>
      <point x="486" y="587"/>
      <point x="561" y="555"/>
      <point x="618" y="499"/>
      <point x="651" y="424"/>
      <point x="651" y="381" type="qcurve" smooth="yes"/>
      <point x="651" y="327"/>
      <point x="603" y="236"/>
      <point x="561" y="207" type="qcurve"/>
      <point x="606" y="179"/>
      <point x="658" y="90"/>
      <point x="658" y="33" type="qcurve" smooth="yes"/>
      <point x="658" y="-10"/>
      <point x="626" y="-86"/>
      <point x="569" y="-144"/>
      <point x="493" y="-178"/>
      <point x="450" y="-178" type="qcurve" smooth="yes"/>
    </contour>
  </outline>
</glyph>
<glyph name="dieresis" format="2">
  <advance width="639"/>
  <unicode hex="00A8"/>
  <outline>
    <contour>
      <point x="128" y="824" type="qcurve" smooth="yes"/>
      <point x="128" y="858"/>
      <point x="174" y="905"/>
      <point x="208" y="905" type="qcurve" smooth="yes"/>
      <point x="242" y="905"/>
      <point x="289" y="858"/>
      <point x="289" y="824" type="qcurve" smooth="yes"/>
      <point x="289" y="790"/>
      <point x="242" y="744"/>
      <point x="208" y="744" type="qcurve" smooth="yes"/>
      <point x="174" y="744"/>
      <point x="128" y="790"/>
    </contour>
    <contour>
      <point x="401" y="824" type="qcurve" smooth="yes"/>
      <point x="401" y="858"/>
      <point x="447" y="905"/>
      <point x="481" y="905" type="qcurve" smooth="yes"/>
      <point x="515" y="905"/>
      <point x="562" y="858"/>
      <point x="562" y="824" type="qcurve" smooth="yes"/>
      <point x="562" y="790"/>
      <point x="515" y="744"/>
      <point x="481" y="744" type="qcurve" smooth="yes"/>
      <point x="447" y="744"/>
      <point x="401" y="790"/>
    </contour>
  </outline>
</glyph>
<glyph name="copyright" format="2">
  <advance width="680"/>
  <unicode hex="00A9"/>
  <outline>
    <contour>
      <point x="340" y="51" type="qcurve" smooth="yes"/>
      <point x="275" y="51"/>
      <point x="160" y="100"/>
      <point x="75" y="185"/>
      <point x="26" y="300"/>
      <point x="26" y="365" type="qcurve" smooth="yes"/>
      <point x="26" y="430"/>
      <point x="75" y="545"/>
      <point x="160" y="630"/>
      <point x="275" y="679"/>
      <point x="340" y="679" type="qcurve" smooth="yes"/>
      <point x="405" y="679"/>
      <point x="520" y="630"/>
      <point x="605" y="545"/>
      <point x="654" y="430"/>
      <point x="654" y="365" type="qcurve" smooth="yes"/>
      <point x="654" y="300"/>
      <point x="605" y="185"/>
      <point x="520" y="100"/>
      <point x="405" y="51"/>
    </contour>
    <contour>
      <point x="340" y="615" type="qcurve" smooth="yes"/>
      <point x="288" y="615"/>
      <point x="197" y="576"/>
      <point x="129" y="508"/>
      <point x="90" y="417"/>
      <point x="90" y="365" type="qcurve" smooth="yes"/>
      <point x="90" y="313"/>
      <point x="129" y="222"/>
      <point x="197" y="154"/>
      <point x="288" y="115"/>
      <point x="340" y="115" type="qcurve" smooth="yes"/>
      <point x="392" y="115"/>
      <point x="483" y="154"/>
      <point x="551" y="222"/>
      <point x="590" y="313"/>
      <point x="590" y="365" type="qcurve" smooth="yes"/>
      <point x="590" y="417"/>
      <point x="551" y="508"/>
      <point x="483" y="576"/>
      <point x="392" y="615"/>
    </contour>
    <contour>
      <point x="486" y="259" type="line"/>
      <point x="461" y="225"/>
      <point x="385" y="185"/>
      <point x="340" y="185" type="qcurve" smooth="yes"/>
      <point x="302" y="185"/>
      <point x="237" y="213"/>
      <point x="187" y="262"/>
      <point x="159" y="327"/>
      <point x="159" y="365" type="qcurve" smooth="yes"/>
      <point x="159" y="402"/>
      <point x="187" y="468"/>
      <point x="237" y="518"/>
      <point x="302" y="546"/>
      <point x="340" y="546" type="qcurve" smooth="yes"/>
      <point x="377" y="546"/>
      <point x="441" y="518"/>
      <point x="465" y="495" type="qcurve"/>
      <point x="421" y="449" type="line"/>
      <point x="405" y="464"/>
      <point x="363" y="482"/>
      <point x="340" y="482" type="qcurve" smooth="yes"/>
      <point x="316" y="482"/>
      <point x="273" y="463"/>
      <point x="242" y="432"/>
      <point x="223" y="389"/>
      <point x="223" y="365" type="qcurve" smooth="yes"/>
      <point x="223" y="341"/>
      <point x="242" y="299"/>
      <point x="273" y="267"/>
      <point x="316" y="249"/>
      <point x="340" y="249" type="qcurve" smooth="yes"/>
      <point x="369" y="249"/>
      <point x="418" y="275"/>
      <point x="434" y="297" type="qcurve"/>
    </contour>
  </outline>
</glyph>
<glyph name="ordfeminine" format="2">
  <advance width="381"/>
  <unicode hex="00AA"/>
  <outline>
    <contour>
      <point x="363" y="393" type="line"/>
      <point x="275" y="392" type="line"/>
      <point x="103" y="392" type="line" smooth="yes"/>
      <point x="72" y="392"/>
      <point x="25" y="436"/>
      <point x="25" y="467" type="qcurve" smooth="yes"/>
      <point x="25" y="513" type="line" smooth="yes"/>
      <point x="25" y="545"/>
      <point x="48" y="568" type="qcurve" smooth="yes"/>
      <point x="59" y="579"/>
      <point x="87" y="591"/>
      <point x="108" y="591" type="qcurve" smooth="yes"/>
      <point x="165" y="591" type="line"/>
      <point x="165" y="653" type="line"/>
      <point x="26" y="653" type="line"/>
      <point x="26" y="680" type="line"/>
      <point x="285" y="680" type="line" smooth="yes"/>
      <point x="318" y="680"/>
      <point x="363" y="634"/>
      <point x="363" y="602" type="qcurve" smooth="yes"/>
    </contour>
    <contour>
      <point x="103" y="565" type="line" smooth="yes"/>
      <point x="81" y="565"/>
      <point x="51" y="534"/>
      <point x="51" y="513" type="qcurve" smooth="yes"/>
      <point x="51" y="478" type="line" smooth="yes"/>
      <point x="51" y="454"/>
      <point x="75" y="418"/>
      <point x="103" y="418" type="qcurve"/>
      <point x="167" y="419" type="line"/>
      <point x="167" y="565" type="line"/>
    </contour>
  </outline>
</glyph>
<glyph name="registered" format="2">
  <advance width="682"/>
  <unicode hex="00AE"/>
  <outline>
    <contour>
      <point x="338" y="65" type="qcurve" smooth="yes"/>
      <point x="275" y="65"/>
      <point x="164" y="111"/>
      <point x="119" y="156" type="qcurve" smooth="yes"/>
      <point x="27" y="248"/>
      <point x="27" y="376" type="qcurve" smooth="yes"/>
      <point x="27" y="439"/>
      <point x="74" y="551"/>
      <point x="119" y="596" type="qcurve" smooth="yes"/>
      <point x="164" y="641"/>
      <point x="275" y="687"/>
      <point x="338" y="687" type="qcurve" smooth="yes"/>
      <point x="401" y="687"/>
      <point x="513" y="641"/>
      <point x="558" y="596" type="qcurve" smooth="yes"/>
      <point x="603" y="551"/>
      <point x="650" y="439"/>
      <point x="650" y="376" type="qcurve" smooth="yes"/>
      <point x="650" y="248"/>
      <point x="558" y="156" type="qcurve" smooth="yes"/>
      <point x="513" y="111"/>
      <point x="401" y="65"/>
    </contour>
    <contour>
      <point x="338" y="641" type="qcurve" smooth="yes"/>
      <point x="283" y="641"/>
      <point x="187" y="599"/>
      <point x="115" y="527"/>
      <point x="73" y="431"/>
      <point x="73" y="376" type="qcurve" smooth="yes"/>
      <point x="73" y="321"/>
      <point x="115" y="225"/>
      <point x="187" y="153"/>
      <point x="283" y="111"/>
      <point x="338" y="111" type="qcurve" smooth="yes"/>
      <point x="393" y="111"/>
      <point x="490" y="153"/>
      <point x="562" y="225"/>
      <point x="604" y="321"/>
      <point x="604" y="376" type="qcurve" smooth="yes"/>
      <point x="604" y="431"/>
      <point x="562" y="527"/>
      <point x="490" y="599"/>
      <point x="393" y="641"/>
    </contour>
    <contour>
      <point x="428" y="383" type="qcurve"/>
      <point x="449" y="335"/>
      <point x="492" y="239"/>
      <point x="514" y="191" type="qcurve"/>
      <point x="476" y="191" type="line"/>
      <point x="394" y="376" type="line"/>
      <point x="394" y="191" type="line"/>
      <point x="172" y="191" type="line"/>
      <point x="172" y="561" type="line"/>
      <point x="394" y="561" type="line" smooth="yes"/>
      <point x="433" y="561"/>
      <point x="486" y="507"/>
      <point x="486" y="468" type="qcurve" smooth="yes"/>
      <point x="486" y="434"/>
      <point x="459" y="395"/>
    </contour>
    <contour>
      <point x="449" y="468" type="qcurve" smooth="yes"/>
      <point x="449" y="492"/>
      <point x="417" y="524"/>
      <point x="394" y="524" type="qcurve"/>
      <point x="394" y="413" type="line"/>
      <point x="417" y="413"/>
      <point x="449" y="444"/>
    </contour>
  </outline>
</glyph>
<glyph name="macron" format="2">
  <advance width="596"/>
  <unicode hex="00AF"/>
  <outline>
    <contour>
      <point x="92" y="856" type="line"/>
      <point x="493" y="856" type="line"/>
      <point x="493" y="745" type="line"/>
      <point x="92" y="745" type="line"/>
    </contour>
  </outline>
</glyph>
<glyph name="degree" format="2">
  <advance width="410"/>
  <unicode hex="00B0"/>
  <outline>
    <contour>
      <point x="207" y="316" type="qcurve" smooth="yes"/>
      <point x="169" y="316"/>
      <point x="102" y="344"/>
      <point x="53" y="393"/>
      <point x="25" y="460"/>
      <point x="25" y="498" type="qcurve" smooth="yes"/>
      <point x="25" y="535"/>
      <point x="53" y="601"/>
      <point x="102" y="651"/>
      <point x="169" y="680"/>
      <point x="207" y="680" type="qcurve" smooth="yes"/>
      <point x="244" y="680"/>
      <point x="310" y="651"/>
      <point x="360" y="601"/>
      <point x="389" y="535"/>
      <point x="389" y="498" type="qcurve" smooth="yes"/>
      <point x="389" y="460"/>
      <point x="360" y="393"/>
      <point x="310" y="344"/>
      <point x="244" y="316"/>
    </contour>
    <contour>
      <point x="207" y="616" type="qcurve" smooth="yes"/>
      <point x="183" y="616"/>
      <point x="140" y="597"/>
      <point x="108" y="565"/>
      <point x="89" y="522"/>
      <point x="89" y="498" type="qcurve" smooth="yes"/>
      <point x="89" y="474"/>
      <point x="108" y="431"/>
      <point x="140" y="399"/>
      <point x="183" y="380"/>
      <point x="207" y="380" type="qcurve" smooth="yes"/>
      <point x="231" y="380"/>
      <point x="274" y="399"/>
      <point x="306" y="431"/>
      <point x="325" y="474"/>
      <point x="325" y="498" type="qcurve" smooth="yes"/>
      <point x="325" y="522"/>
      <point x="306" y="565"/>
      <point x="274" y="597"/>
      <point x="231" y="616"/>
    </contour>
  </outline>
</glyph>
<glyph name="acute" format="2">
  <advance width="402"/>
  <unicode hex="00B4"/>
  <outline>
    <contour>
      <point x="220" y="743" type="line"/>
      <point x="134" y="777" type="line"/>
      <point x="195" y="947" type="line"/>
      <point x="317" y="888" type="line"/>
    </contour>
  </outline>
</glyph>
<glyph name="paragraph" format="2">
  <advance width="753"/>
  <unicode hex="00B6"/>
  <outline>
    <contour>
      <point x="732" y="620" type="line"/>
      <point x="652" y="620" type="line"/>
      <point x="652" y="-172" type="line"/>
      <point x="577" y="-172" type="line"/>
      <point x="577" y="620" type="line"/>
      <point x="439" y="620" type="line"/>
      <point x="439" y="-172" type="line"/>
      <point x="364" y="-172" type="line"/>
      <point x="364" y="347" type="line"/>
      <point x="218" y="347" type="line" smooth="yes"/>
      <point x="182" y="347"/>
      <point x="119" y="374"/>
      <point x="71" y="422"/>
      <point x="44" y="485"/>
      <point x="44" y="521" type="qcurve" smooth="yes"/>
      <point x="44" y="557"/>
      <point x="71" y="620"/>
      <point x="119" y="668"/>
      <point x="182" y="695"/>
      <point x="218" y="695" type="qcurve" smooth="yes"/>
      <point x="732" y="695" type="line"/>
    </contour>
  </outline>
</glyph>
<glyph name="periodcentered" format="2">
  <advance width="265"/>
  <unicode hex="00B7"/>
  <outline>
    <contour>
      <point x="43" y="314" type="qcurve" smooth="yes"/>
      <point x="43" y="352"/>
      <point x="95" y="405"/>
      <point x="133" y="405" type="qcurve" smooth="yes"/>
      <point x="171" y="405"/>
      <point x="224" y="352"/>
      <point x="224" y="314" type="qcurve" smooth="yes"/>
      <point x="224" y="276"/>
      <point x="171" y="224"/>
      <point x="133" y="224" type="qcurve" smooth="yes"/>
      <point x="95" y="224"/>
      <point x="43" y="276"/>
    </contour>
  </outline>
</glyph>
<glyph name="cedilla" format="2">
  <advance width="762"/>
  <unicode hex="00B8"/>
  <outline>
    <contour>
      <point x="526" y="-192" type="line" smooth="yes"/>
      <point x="526" y="-226"/>
      <point x="480" y="-270"/>
      <point x="446" y="-270" type="qcurve" smooth="yes"/>
      <point x="345" y="-270" type="line" smooth="yes"/>
      <point x="326" y="-270"/>
      <point x="292" y="-255"/>
      <point x="266" y="-228"/>
      <point x="251" y="-191"/>
      <point x="251" y="-170" type="qcurve"/>
      <point x="297" y="-170" type="line"/>
      <point x="297" y="-193"/>
      <point x="325" y="-227"/>
      <point x="345" y="-227" type="qcurve" smooth="yes"/>
      <point x="415" y="-227" type="line"/>
      <point x="415" y="-198"/>
      <point x="416" y="-135"/>
      <point x="416" y="-106" type="qcurve"/>
      <point x="309" y="-106" type="line"/>
      <point x="309" y="0" type="line"/>
      <point x="403" y="0" type="line"/>
      <point x="403" y="-71" type="line"/>
      <point x="446" y="-71" type="line" smooth="yes"/>
      <point x="480" y="-71"/>
      <point x="526" y="-117"/>
      <point x="526" y="-150" type="qcurve" smooth="yes"/>
    </contour>
  </outline>
</glyph>
<glyph name="ordmasculine" format="2">
  <advance width="397"/>
  <unicode hex="00BA"/>
  <outline>
    <contour>
      <point x="28" y="606" type="line" smooth="yes"/>
      <point x="28" y="637"/>
      <point x="75" y="681"/>
      <point x="106" y="681" type="qcurve" smooth="yes"/>
      <point x="298" y="681" type="line" smooth="yes"/>
      <point x="313" y="681"/>
      <point x="341" y="669"/>
      <point x="363" y="649"/>
      <point x="376" y="621"/>
      <point x="376" y="606" type="qcurve" smooth="yes"/>
      <point x="376" y="466" type="line" smooth="yes"/>
      <point x="376" y="435"/>
      <point x="328" y="392"/>
      <point x="298" y="392" type="qcurve" smooth="yes"/>
      <point x="106" y="392" type="line" smooth="yes"/>
      <point x="75" y="392"/>
      <point x="28" y="435"/>
      <point x="28" y="466" type="qcurve" smooth="yes"/>
    </contour>
    <contour>
      <point x="234" y="654" type="line"/>
      <point x="234" y="418" type="line"/>
      <point x="298" y="418" type="line" smooth="yes"/>
      <point x="326" y="418"/>
      <point x="350" y="453"/>
      <point x="350" y="478" type="qcurve" smooth="yes"/>
      <point x="350" y="595" type="line" smooth="yes"/>
      <point x="350" y="619"/>
      <point x="326" y="655"/>
      <point x="298" y="655" type="qcurve"/>
    </contour>
  </outline>
</glyph>
<glyph name="questiondown" format="2">
  <advance width="811"/>
  <unicode hex="00BF"/>
  <outline>
    <contour>
      <point x="564" y="607" type="line"/>
      <point x="255" y="607" type="line"/>
      <point x="255" y="698" type="line"/>
      <point x="564" y="698" type="line"/>
    </contour>
    <contour>
      <point x="29" y="280" type="line" smooth="yes"/>
      <point x="29" y="319"/>
      <point x="53" y="386"/>
      <point x="98" y="437"/>
      <point x="162" y="466"/>
      <point x="203" y="466" type="qcurve" smooth="yes"/>
      <point x="254" y="466" type="line"/>
      <point x="254" y="551" type="line"/>
      <point x="563" y="551" type="line"/>
      <point x="564" y="72" type="line"/>
      <point x="592" y="72"/>
      <point x="643" y="94"/>
      <point x="680" y="131"/>
      <point x="702" y="181"/>
      <point x="702" y="210" type="qcurve"/>
      <point x="772" y="210" type="line"/>
      <point x="772" y="176"/>
      <point x="750" y="112"/>
      <point x="710" y="58"/>
      <point x="655" y="19"/>
      <point x="622" y="10" type="qcurve" smooth="yes"/>
      <point x="603" y="5"/>
      <point x="565" y="1"/>
      <point x="546" y="1" type="qcurve" smooth="yes"/>
      <point x="482" y="1"/>
      <point x="355" y="2"/>
      <point x="291" y="2" type="qcurve" smooth="yes"/>
      <point x="262" y="2"/>
      <point x="224" y="0"/>
      <point x="217" y="0" type="qcurve" smooth="yes"/>
      <point x="180" y="0"/>
      <point x="112" y="25"/>
      <point x="60" y="70"/>
      <point x="29" y="134"/>
      <point x="29" y="173" type="qcurve" smooth="yes"/>
    </contour>
  </outline>
</glyph>
<glyph name="Atilde" format="2">
  <advance width="698"/>
  <unicode hex="00C3"/>
  <outline>
    <contour>
      <point x="536" y="910" type="line"/>
      <point x="531" y="890"/>
      <point x="521" y="838"/>
      <point x="501" y="792"/>
      <point x="467" y="760"/>
      <point x="439" y="760" type="qcurve" smooth="yes"/>
      <point x="413" y="760"/>
      <point x="348" y="781"/>
      <point x="321" y="788" type="qcurve"/>
      <point x="321" y="789" type="line"/>
      <point x="319" y="789"/>
      <point x="303" y="793"/>
      <point x="286" y="799"/>
      <point x="271" y="803"/>
      <point x="270" y="803" type="qcurve"/>
      <point x="253" y="803"/>
      <point x="213" y="788"/>
      <point x="208" y="768" type="qcurve"/>
      <point x="163" y="780" type="line"/>
      <point x="168" y="801"/>
      <point x="178" y="853"/>
      <point x="198" y="899"/>
      <point x="231" y="930"/>
      <point x="260" y="930" type="qcurve" smooth="yes"/>
      <point x="279" y="930"/>
      <point x="324" y="917"/>
      <point x="371" y="900"/>
      <point x="414" y="887"/>
      <point x="431" y="887" type="qcurve" smooth="yes"/>
      <point x="449" y="887"/>
      <point x="487" y="903"/>
      <point x="492" y="923" type="qcurve"/>
    </contour>
    <contour>
      <point x="71" y="0" type="line"/>
      <point x="1" y="0" type="line"/>
      <point x="314" y="695" type="line"/>
      <point x="384" y="695" type="line"/>
      <point x="696" y="0" type="line"/>
      <point x="279" y="0" type="line"/>
      <point x="248" y="69" type="line"/>
      <point x="102" y="69" type="line"/>
    </contour>
    <contour>
      <point x="217" y="139" type="line"/>
      <point x="175" y="231" type="line"/>
      <point x="133" y="139" type="line"/>
    </contour>
  </outline>
</glyph>
<glyph name="Adieresis" format="2">
  <advance width="698"/>
  <unicode hex="00C4"/>
  <outline>
    <contour>
      <point x="132" y="824" type="qcurve" smooth="yes"/>
      <point x="132" y="858"/>
      <point x="178" y="905"/>
      <point x="212" y="905" type="qcurve" smooth="yes"/>
      <point x="246" y="905"/>
      <point x="293" y="858"/>
      <point x="293" y="824" type="qcurve" smooth="yes"/>
      <point x="293" y="790"/>
      <point x="246" y="744"/>
      <point x="212" y="744" type="qcurve" smooth="yes"/>
      <point x="178" y="744"/>
      <point x="132" y="790"/>
    </contour>
    <contour>
      <point x="405" y="824" type="qcurve" smooth="yes"/>
      <point x="405" y="858"/>
      <point x="451" y="905"/>
      <point x="485" y="905" type="qcurve" smooth="yes"/>
      <point x="519" y="905"/>
      <point x="566" y="858"/>
      <point x="566" y="824" type="qcurve" smooth="yes"/>
      <point x="566" y="790"/>
      <point x="519" y="744"/>
      <point x="485" y="744" type="qcurve" smooth="yes"/>
      <point x="451" y="744"/>
      <point x="405" y="790"/>
    </contour>
    <contour>
      <point x="71" y="0" type="line"/>
      <point x="1" y="0" type="line"/>
      <point x="314" y="695" type="line"/>
      <point x="384" y="695" type="line"/>
      <point x="696" y="0" type="line"/>
      <point x="279" y="0" type="line"/>
      <point x="248" y="69" type="line"/>
      <point x="102" y="69" type="line"/>
    </contour>
    <contour>
      <point x="217" y="139" type="line"/>
      <point x="175" y="231" type="line"/>
      <point x="133" y="139" type="line"/>
    </contour>
  </outline>
</glyph>
<glyph name="Egrave" format="2">
  <advance width="665"/>
  <unicode hex="00C8"/>
  <outline>
    <contour>
      <point x="629" y="69" type="line"/>
      <point x="629" y="0" type="line"/>
      <point x="38" y="0" type="line"/>
      <point x="38" y="695" type="line"/>
      <point x="629" y="695" type="line"/>
      <point x="629" y="625" type="line"/>
      <point x="456" y="625" type="line"/>
      <point x="456" y="417" type="line"/>
      <point x="629" y="417" type="line"/>
      <point x="629" y="347" type="line"/>
      <point x="456" y="347" type="line"/>
      <point x="456" y="69" type="line"/>
    </contour>
    <contour>
      <point x="241" y="888" type="line"/>
      <point x="363" y="947" type="line"/>
      <point x="424" y="777" type="line"/>
      <point x="338" y="743" type="line"/>
    </contour>
  </outline>
</glyph>
<glyph name="Ecircumflex" format="2">
  <advance width="665"/>
  <unicode hex="00CA"/>
  <outline>
    <contour>
      <point x="629" y="69" type="line"/>
      <point x="629" y="0" type="line"/>
      <point x="38" y="0" type="line"/>
      <point x="38" y="695" type="line"/>
      <point x="629" y="695" type="line"/>
      <point x="629" y="625" type="line"/>
      <point x="456" y="625" type="line"/>
      <point x="456" y="417" type="line"/>
      <point x="629" y="417" type="line"/>
      <point x="629" y="347" type="line"/>
      <point x="456" y="347" type="line"/>
      <point x="456" y="69" type="line"/>
    </contour>
    <contour>
      <point x="363" y="888" type="line"/>
      <point x="485" y="947" type="line"/>
      <point x="546" y="777" type="line"/>
      <point x="460" y="743" type="line"/>
    </contour>
    <contour>
      <point x="206" y="743" type="line"/>
      <point x="120" y="777" type="line"/>
      <point x="181" y="947" type="line"/>
      <point x="303" y="888" type="line"/>
    </contour>
  </outline>
</glyph>
<glyph name="Edieresis" format="2">
  <advance width="665"/>
  <unicode hex="00CB"/>
  <outline>
    <contour>
      <point x="116" y="824" type="qcurve" smooth="yes"/>
      <point x="116" y="858"/>
      <point x="162" y="905"/>
      <point x="196" y="905" type="qcurve" smooth="yes"/>
      <point x="230" y="905"/>
      <point x="277" y="858"/>
      <point x="277" y="824" type="qcurve" smooth="yes"/>
      <point x="277" y="790"/>
      <point x="230" y="744"/>
      <point x="196" y="744" type="qcurve" smooth="yes"/>
      <point x="162" y="744"/>
      <point x="116" y="790"/>
    </contour>
    <contour>
      <point x="389" y="824" type="qcurve" smooth="yes"/>
      <point x="389" y="858"/>
      <point x="435" y="905"/>
      <point x="469" y="905" type="qcurve" smooth="yes"/>
      <point x="503" y="905"/>
      <point x="550" y="858"/>
      <point x="550" y="824" type="qcurve" smooth="yes"/>
      <point x="550" y="790"/>
      <point x="503" y="744"/>
      <point x="469" y="744" type="qcurve" smooth="yes"/>
      <point x="435" y="744"/>
      <point x="389" y="790"/>
    </contour>
    <contour>
      <point x="629" y="69" type="line"/>
      <point x="629" y="0" type="line"/>
      <point x="38" y="0" type="line"/>
      <point x="38" y="695" type="line"/>
      <point x="629" y="695" type="line"/>
      <point x="629" y="625" type="line"/>
      <point x="456" y="625" type="line"/>
      <point x="456" y="417" type="line"/>
      <point x="629" y="417" type="line"/>
      <point x="629" y="347" type="line"/>
      <point x="456" y="347" type="line"/>
      <point x="456" y="69" type="line"/>
    </contour>
  </outline>
</glyph>
<glyph name="Igrave" format="2">
  <advance width="501"/>
  <unicode hex="00CC"/>
  <outline>
    <contour>
      <point x="456" y="695" type="line"/>
      <point x="456" y="0" type="line"/>
      <point x="39" y="0" type="line"/>
      <point x="39" y="695" type="line"/>
    </contour>
    <contour>
      <point x="159" y="888" type="line"/>
      <point x="281" y="947" type="line"/>
      <point x="342" y="777" type="line"/>
      <point x="256" y="743" type="line"/>
    </contour>
  </outline>
</glyph>
<glyph name="Iacute" format="2">
  <advance width="501"/>
  <unicode hex="00CD"/>
  <outline>
    <contour>
      <point x="456" y="695" type="line"/>
      <point x="456" y="0" type="line"/>
      <point x="39" y="0" type="line"/>
      <point x="39" y="695" type="line"/>
    </contour>
    <contour>
      <point x="245" y="740" type="line"/>
      <point x="159" y="774" type="line"/>
      <point x="220" y="944" type="line"/>
      <point x="342" y="885" type="line"/>
    </contour>
  </outline>
</glyph>
<glyph name="Icircumflex" format="2">
  <advance width="501"/>
  <unicode hex="00CE"/>
  <outline>
    <contour>
      <point x="456" y="695" type="line"/>
      <point x="456" y="0" type="line"/>
      <point x="39" y="0" type="line"/>
      <point x="39" y="695" type="line"/>
    </contour>
    <contour>
      <point x="281" y="888" type="line"/>
      <point x="403" y="947" type="line"/>
      <point x="464" y="777" type="line"/>
      <point x="378" y="743" type="line"/>
    </contour>
    <contour>
      <point x="124" y="743" type="line"/>
      <point x="38" y="777" type="line"/>
      <point x="99" y="947" type="line"/>
      <point x="221" y="888" type="line"/>
    </contour>
  </outline>
</glyph>
<glyph name="Idieresis" format="2">
  <advance width="501"/>
  <unicode hex="00CF"/>
  <outline>
    <contour>
      <point x="34" y="824" type="qcurve" smooth="yes"/>
      <point x="34" y="858"/>
      <point x="80" y="905"/>
      <point x="114" y="905" type="qcurve" smooth="yes"/>
      <point x="148" y="905"/>
      <point x="195" y="858"/>
      <point x="195" y="824" type="qcurve" smooth="yes"/>
      <point x="195" y="790"/>
      <point x="148" y="744"/>
      <point x="114" y="744" type="qcurve" smooth="yes"/>
      <point x="80" y="744"/>
      <point x="34" y="790"/>
    </contour>
    <contour>
      <point x="307" y="824" type="qcurve" smooth="yes"/>
      <point x="307" y="858"/>
      <point x="353" y="905"/>
      <point x="387" y="905" type="qcurve" smooth="yes"/>
      <point x="421" y="905"/>
      <point x="468" y="858"/>
      <point x="468" y="824" type="qcurve" smooth="yes"/>
      <point x="468" y="790"/>
      <point x="421" y="744"/>
      <point x="387" y="744" type="qcurve" smooth="yes"/>
      <point x="353" y="744"/>
      <point x="307" y="790"/>
    </contour>
    <contour>
      <point x="456" y="695" type="line"/>
      <point x="456" y="0" type="line"/>
      <point x="39" y="0" type="line"/>
      <point x="39" y="695" type="line"/>
    </contour>
  </outline>
</glyph>
<glyph name="Ntilde" format="2">
  <advance width="719"/>
  <unicode hex="00D1"/>
  <outline>
    <contour>
      <point x="546" y="910" type="line"/>
      <point x="541" y="890"/>
      <point x="531" y="838"/>
      <point x="511" y="792"/>
      <point x="477" y="760"/>
      <point x="449" y="760" type="qcurve" smooth="yes"/>
      <point x="423" y="760"/>
      <point x="358" y="781"/>
      <point x="331" y="788" type="qcurve"/>
      <point x="331" y="789" type="line"/>
      <point x="329" y="789"/>
      <point x="313" y="793"/>
      <point x="296" y="799"/>
      <point x="281" y="803"/>
      <point x="280" y="803" type="qcurve"/>
      <point x="263" y="803"/>
      <point x="223" y="788"/>
      <point x="218" y="768" type="qcurve"/>
      <point x="173" y="780" type="line"/>
      <point x="178" y="801"/>
      <point x="188" y="853"/>
      <point x="208" y="899"/>
      <point x="241" y="930"/>
      <point x="270" y="930" type="qcurve" smooth="yes"/>
      <point x="289" y="930"/>
      <point x="334" y="917"/>
      <point x="381" y="900"/>
      <point x="424" y="887"/>
      <point x="441" y="887" type="qcurve" smooth="yes"/>
      <point x="459" y="887"/>
      <point x="497" y="903"/>
      <point x="502" y="923" type="qcurve"/>
    </contour>
    <contour>
      <point x="669" y="695" type="line"/>
      <point x="669" y="0" type="line"/>
      <point x="600" y="0" type="line"/>
      <point x="600" y="232" type="line"/>
      <point x="461" y="540" type="line"/>
      <point x="461" y="0" type="line"/>
      <point x="44" y="0" type="line"/>
      <point x="44" y="695" type="line"/>
      <point x="461" y="695" type="line"/>
      <point x="600" y="386" type="line"/>
      <point x="600" y="695" type="line"/>
    </contour>
  </outline>
</glyph>
<glyph name="multiply" format="2">
  <advance width="488"/>
  <unicode hex="00D7"/>
  <outline>
    <contour>
      <point x="445" y="480" type="line"/>
      <point x="294" y="359" type="line"/>
      <point x="445" y="238" type="line"/>
      <point x="398" y="180" type="line"/>
      <point x="234" y="311" type="line"/>
      <point x="71" y="180" type="line"/>
      <point x="24" y="239" type="line"/>
      <point x="174" y="359" type="line"/>
      <point x="24" y="479" type="line"/>
      <point x="71" y="538" type="line"/>
      <point x="234" y="407" type="line"/>
      <point x="398" y="538" type="line"/>
    </contour>
  </outline>
</glyph>
<glyph name="Ucircumflex" format="2">
  <advance width="714"/>
  <unicode hex="00DB"/>
  <outline>
    <contour>
      <point x="387" y="888" type="line"/>
      <point x="509" y="947" type="line"/>
      <point x="570" y="777" type="line"/>
      <point x="484" y="743" type="line"/>
    </contour>
    <contour>
      <point x="230" y="743" type="line"/>
      <point x="144" y="777" type="line"/>
      <point x="205" y="947" type="line"/>
      <point x="327" y="888" type="line"/>
    </contour>
    <contour>
      <point x="672" y="308" type="qcurve" smooth="yes"/>
      <point x="672" y="281"/>
      <point x="673" y="249"/>
      <point x="673" y="244" type="qcurve" smooth="yes"/>
      <point x="673" y="233"/>
      <point x="672" y="212"/>
      <point x="671" y="201" type="qcurve" smooth="yes"/>
      <point x="669" y="159"/>
      <point x="635" y="86"/>
      <point x="579" y="31"/>
      <point x="504" y="0"/>
      <point x="462" y="0" type="qcurve" smooth="yes"/>
      <point x="254" y="0" type="line" smooth="yes"/>
      <point x="211" y="0"/>
      <point x="135" y="33"/>
      <point x="78" y="89"/>
      <point x="45" y="165"/>
      <point x="45" y="208" type="qcurve" smooth="yes"/>
      <point x="45" y="695" type="line"/>
      <point x="462" y="695" type="line"/>
      <point x="462" y="69" type="line"/>
      <point x="500" y="69"/>
      <point x="554" y="96"/>
      <point x="576" y="128" type="qcurve" smooth="yes"/>
      <point x="597" y="159"/>
      <point x="601" y="220"/>
      <point x="601" y="255" type="qcurve" smooth="yes"/>
      <point x="601" y="695" type="line"/>
      <point x="671" y="695" type="line"/>
      <point x="671" y="598"/>
      <point x="672" y="405"/>
    </contour>
  </outline>
</glyph>
<glyph name="Udieresis" format="2">
  <advance width="714"/>
  <unicode hex="00DC"/>
  <outline>
    <contour>
      <point x="140" y="824" type="qcurve" smooth="yes"/>
      <point x="140" y="858"/>
      <point x="186" y="905"/>
      <point x="220" y="905" type="qcurve" smooth="yes"/>
      <point x="254" y="905"/>
      <point x="301" y="858"/>
      <point x="301" y="824" type="qcurve" smooth="yes"/>
      <point x="301" y="790"/>
      <point x="254" y="744"/>
      <point x="220" y="744" type="qcurve" smooth="yes"/>
      <point x="186" y="744"/>
      <point x="140" y="790"/>
    </contour>
    <contour>
      <point x="413" y="824" type="qcurve" smooth="yes"/>
      <point x="413" y="858"/>
      <point x="459" y="905"/>
      <point x="493" y="905" type="qcurve" smooth="yes"/>
      <point x="527" y="905"/>
      <point x="574" y="858"/>
      <point x="574" y="824" type="qcurve" smooth="yes"/>
      <point x="574" y="790"/>
      <point x="527" y="744"/>
      <point x="493" y="744" type="qcurve" smooth="yes"/>
      <point x="459" y="744"/>
      <point x="413" y="790"/>
    </contour>
    <contour>
      <point x="672" y="308" type="qcurve" smooth="yes"/>
      <point x="672" y="281"/>
      <point x="673" y="249"/>
      <point x="673" y="244" type="qcurve" smooth="yes"/>
      <point x="673" y="233"/>
      <point x="672" y="212"/>
      <point x="671" y="201" type="qcurve" smooth="yes"/>
      <point x="669" y="159"/>
      <point x="635" y="86"/>
      <point x="579" y="31"/>
      <point x="504" y="0"/>
      <point x="462" y="0" type="qcurve" smooth="yes"/>
      <point x="254" y="0" type="line" smooth="yes"/>
      <point x="211" y="0"/>
      <point x="135" y="33"/>
      <point x="78" y="89"/>
      <point x="45" y="165"/>
      <point x="45" y="208" type="qcurve" smooth="yes"/>
      <point x="45" y="695" type="line"/>
      <point x="462" y="695" type="line"/>
      <point x="462" y="69" type="line"/>
      <point x="500" y="69"/>
      <point x="554" y="96"/>
      <point x="576" y="128" type="qcurve" smooth="yes"/>
      <point x="597" y="159"/>
      <point x="601" y="220"/>
      <point x="601" y="255" type="qcurve" smooth="yes"/>
      <point x="601" y="695" type="line"/>
      <point x="671" y="695" type="line"/>
      <point x="671" y="598"/>
      <point x="672" y="405"/>
    </contour>
  </outline>
</glyph>
<glyph name="Thorn" format="2">
  <advance width="693"/>
  <unicode hex="00DE"/>
  <outline>
    <contour>
      <point x="666" y="201" type="line" smooth="yes"/>
      <point x="666" y="159"/>
      <point x="631" y="86"/>
      <point x="574" y="32"/>
      <point x="498" y="0"/>
      <point x="458" y="0" type="qcurve" smooth="yes"/>
      <point x="115" y="0" type="line"/>
      <point x="115" y="-164" type="line"/>
      <point x="40" y="-164" type="line"/>
      <point x="40" y="867" type="line"/>
      <point x="115" y="867" type="line"/>
      <point x="115" y="695" type="line"/>
      <point x="458" y="695" type="line" smooth="yes"/>
      <point x="501" y="695"/>
      <point x="577" y="662"/>
      <point x="633" y="605"/>
      <point x="666" y="529"/>
      <point x="666" y="486" type="qcurve" smooth="yes"/>
    </contour>
    <contour>
      <point x="458" y="69" type="line"/>
      <point x="495" y="69"/>
      <point x="547" y="95"/>
      <point x="581" y="139"/>
      <point x="597" y="199"/>
      <point x="597" y="232" type="qcurve" smooth="yes"/>
      <point x="597" y="486" type="line" smooth="yes"/>
      <point x="597" y="515"/>
      <point x="575" y="566"/>
      <point x="538" y="603"/>
      <point x="487" y="625"/>
      <point x="458" y="625" type="qcurve"/>
    </contour>
  </outline>
</glyph>
<glyph name="aacute" format="2">
  <advance width="696"/>
  <unicode hex="00E1"/>
  <outline>
    <contour>
      <point x="133" y="139" type="line"/>
      <point x="217" y="139" type="line"/>
      <point x="175" y="231" type="line"/>
    </contour>
    <contour>
      <point x="102" y="69" type="line"/>
      <point x="71" y="0" type="line"/>
      <point x="1" y="0" type="line"/>
      <point x="314" y="695" type="line"/>
      <point x="384" y="695" type="line"/>
      <point x="696" y="0" type="line"/>
      <point x="279" y="0" type="line"/>
      <point x="248" y="69" type="line"/>
    </contour>
    <contour>
      <point x="449" y="888" type="line"/>
      <point x="352" y="743" type="line"/>
      <point x="266" y="777" type="line"/>
      <point x="327" y="947" type="line"/>
    </contour>
  </outline>
</glyph>
<glyph name="acircumflex" format="2">
  <advance width="698"/>
  <unicode hex="00E2"/>
  <outline>
    <contour>
      <point x="133" y="139" type="line"/>
      <point x="217" y="139" type="line"/>
      <point x="175" y="231" type="line"/>
    </contour>
    <contour>
      <point x="102" y="69" type="line"/>
      <point x="71" y="0" type="line"/>
      <point x="1" y="0" type="line"/>
      <point x="314" y="695" type="line"/>
      <point x="384" y="695" type="line"/>
      <point x="696" y="0" type="line"/>
      <point x="279" y="0" type="line"/>
      <point x="248" y="69" type="line"/>
    </contour>
    <contour>
      <point x="319" y="888" type="line"/>
      <point x="222" y="743" type="line"/>
      <point x="136" y="777" type="line"/>
      <point x="197" y="947" type="line"/>
    </contour>
    <contour>
      <point x="476" y="743" type="line"/>
      <point x="379" y="888" type="line"/>
      <point x="501" y="947" type="line"/>
      <point x="562" y="777" type="line"/>
    </contour>
  </outline>
</glyph>
<glyph name="aring" format="2">
  <advance width="698"/>
  <unicode hex="00E5"/>
  <outline>
    <contour>
      <point x="349" y="740" type="qcurve" smooth="yes"/>
      <point x="328" y="740"/>
      <point x="290" y="756"/>
      <point x="262" y="785"/>
      <point x="246" y="822"/>
      <point x="246" y="843" type="qcurve" smooth="yes"/>
      <point x="246" y="886"/>
      <point x="306" y="944"/>
      <point x="349" y="944" type="qcurve" smooth="yes"/>
      <point x="370" y="944"/>
      <point x="407" y="928"/>
      <point x="435" y="901"/>
      <point x="452" y="864"/>
      <point x="452" y="843" type="qcurve" smooth="yes"/>
      <point x="452" y="822"/>
      <point x="435" y="785"/>
      <point x="407" y="756"/>
      <point x="370" y="740"/>
    </contour>
    <contour>
      <point x="352" y="890" type="qcurve" smooth="yes"/>
      <point x="330" y="890"/>
      <point x="303" y="864"/>
      <point x="303" y="844" type="qcurve" smooth="yes"/>
      <point x="303" y="827"/>
      <point x="330" y="798"/>
      <point x="352" y="798" type="qcurve" smooth="yes"/>
      <point x="372" y="798"/>
      <point x="400" y="827"/>
      <point x="400" y="844" type="qcurve" smooth="yes"/>
      <point x="400" y="864"/>
      <point x="372" y="890"/>
    </contour>
    <contour>
      <point x="71" y="0" type="line"/>
      <point x="1" y="0" type="line"/>
      <point x="314" y="695" type="line"/>
      <point x="384" y="695" type="line"/>
      <point x="696" y="0" type="line"/>
      <point x="279" y="0" type="line"/>
      <point x="248" y="69" type="line"/>
      <point x="102" y="69" type="line"/>
    </contour>
    <contour>
      <point x="217" y="139" type="line"/>
      <point x="175" y="231" type="line"/>
      <point x="133" y="139" type="line"/>
    </contour>
  </outline>
</glyph>
<glyph name="ae" format="2">
  <advance width="1084"/>
  <unicode hex="00E6"/>
  <outline>
    <contour>
      <point x="181" y="139" type="line"/>
      <point x="469" y="139" type="line"/>
      <point x="469" y="583" type="line"/>
    </contour>
    <contour>
      <point x="138" y="69" type="line"/>
      <point x="89" y="0" type="line"/>
      <point x="19" y="0" type="line"/>
      <point x="463" y="695" type="line"/>
      <point x="1060" y="695" type="line"/>
      <point x="1060" y="625" type="line"/>
      <point x="887" y="625" type="line"/>
      <point x="887" y="417" type="line"/>
      <point x="1060" y="417" type="line"/>
      <point x="1060" y="347" type="line"/>
      <point x="887" y="347" type="line"/>
      <point x="887" y="69" type="line"/>
      <point x="1060" y="69" type="line"/>
      <point x="1060" y="0" type="line"/>
      <point x="469" y="0" type="line"/>
      <point x="469" y="69" type="line"/>
    </contour>
  </outline>
</glyph>
<glyph name="ccedilla" format="2">
  <advance width="697"/>
  <unicode hex="00E7"/>
  <outline>
    <contour>
      <point x="592" y="487" type="line"/>
      <point x="592" y="516"/>
      <point x="570" y="567"/>
      <point x="533" y="604"/>
      <point x="482" y="626"/>
      <point x="453" y="626" type="qcurve"/>
      <point x="453" y="70" type="line"/>
      <point x="482" y="70"/>
      <point x="533" y="92"/>
      <point x="570" y="129"/>
      <point x="592" y="180"/>
      <point x="592" y="209" type="qcurve"/>
      <point x="661" y="209" type="line"/>
      <point x="661" y="166"/>
      <point x="628" y="90"/>
      <point x="572" y="33"/>
      <point x="496" y="0"/>
      <point x="453" y="0" type="qcurve" smooth="yes"/>
      <point x="363" y="0" type="line"/>
      <point x="363" y="-71" type="line"/>
      <point x="406" y="-71" type="line" smooth="yes"/>
      <point x="440" y="-71"/>
      <point x="486" y="-117"/>
      <point x="486" y="-150" type="qcurve" smooth="yes"/>
      <point x="486" y="-192" type="line" smooth="yes"/>
      <point x="486" y="-226"/>
      <point x="440" y="-270"/>
      <point x="406" y="-270" type="qcurve" smooth="yes"/>
      <point x="305" y="-270" type="line" smooth="yes"/>
      <point x="286" y="-270"/>
      <point x="252" y="-255"/>
      <point x="226" y="-228"/>
      <point x="211" y="-191"/>
      <point x="211" y="-170" type="qcurve"/>
      <point x="257" y="-170" type="line"/>
      <point x="257" y="-193"/>
      <point x="285" y="-227"/>
      <point x="305" y="-227" type="qcurve" smooth="yes"/>
      <point x="375" y="-227" type="line"/>
      <point x="375" y="-198"/>
      <point x="376" y="-135"/>
      <point x="376" y="-106" type="qcurve"/>
      <point x="269" y="-106" type="line"/>
      <point x="269" y="0" type="line"/>
      <point x="244" y="0" type="line" smooth="yes"/>
      <point x="201" y="0"/>
      <point x="125" y="33"/>
      <point x="69" y="90"/>
      <point x="36" y="166"/>
      <point x="36" y="209" type="qcurve" smooth="yes"/>
      <point x="36" y="487" type="line" smooth="yes"/>
      <point x="36" y="530"/>
      <point x="69" y="606"/>
      <point x="125" y="663"/>
      <point x="201" y="696"/>
      <point x="244" y="696" type="qcurve" smooth="yes"/>
      <point x="453" y="696" type="line" smooth="yes"/>
      <point x="496" y="696"/>
      <point x="572" y="663"/>
      <point x="628" y="606"/>
      <point x="661" y="530"/>
      <point x="661" y="487" type="qcurve"/>
    </contour>
  </outline>
</glyph>
<glyph name="eacute" format="2">
  <advance width="665"/>
  <unicode hex="00E9"/>
  <outline>
    <contour>
      <point x="629" y="69" type="line"/>
      <point x="629" y="0" type="line"/>
      <point x="38" y="0" type="line"/>
      <point x="38" y="695" type="line"/>
      <point x="629" y="695" type="line"/>
      <point x="629" y="625" type="line"/>
      <point x="456" y="625" type="line"/>
      <point x="456" y="417" type="line"/>
      <point x="629" y="417" type="line"/>
      <point x="629" y="347" type="line"/>
      <point x="456" y="347" type="line"/>
      <point x="456" y="69" type="line"/>
    </contour>
    <contour>
      <point x="327" y="740" type="line"/>
      <point x="241" y="774" type="line"/>
      <point x="302" y="944" type="line"/>
      <point x="424" y="885" type="line"/>
    </contour>
  </outline>
</glyph>
<glyph name="ocircumflex" format="2">
  <advance width="706"/>
  <unicode hex="00F4"/>
  <outline>
    <contour>
      <point x="383" y="888" type="line"/>
      <point x="505" y="947" type="line"/>
      <point x="566" y="777" type="line"/>
      <point x="480" y="743" type="line"/>
    </contour>
    <contour>
      <point x="226" y="743" type="line"/>
      <point x="140" y="777" type="line"/>
      <point x="201" y="947" type="line"/>
      <point x="323" y="888" type="line"/>
    </contour>
    <contour>
      <point x="665" y="201" type="line" smooth="yes"/>
      <point x="665" y="159"/>
      <point x="630" y="86"/>
      <point x="573" y="32"/>
      <point x="497" y="0"/>
      <point x="457" y="0" type="qcurve" smooth="yes"/>
      <point x="248" y="0" type="line" smooth="yes"/>
      <point x="205" y="0"/>
      <point x="129" y="33"/>
      <point x="73" y="89"/>
      <point x="40" y="165"/>
      <point x="40" y="208" type="qcurve" smooth="yes"/>
      <point x="40" y="486" type="line" smooth="yes"/>
      <point x="40" y="529"/>
      <point x="73" y="605"/>
      <point x="129" y="662"/>
      <point x="205" y="695"/>
      <point x="248" y="695" type="qcurve" smooth="yes"/>
      <point x="457" y="695" type="line" smooth="yes"/>
      <point x="500" y="695"/>
      <point x="576" y="662"/>
      <point x="632" y="605"/>
      <point x="665" y="529"/>
      <point x="665" y="486" type="qcurve" smooth="yes"/>
    </contour>
    <contour>
      <point x="457" y="69" type="line"/>
      <point x="494" y="69"/>
      <point x="546" y="95"/>
      <point x="580" y="139"/>
      <point x="596" y="199"/>
      <point x="596" y="232" type="qcurve" smooth="yes"/>
      <point x="596" y="486" type="line" smooth="yes"/>
      <point x="596" y="515"/>
      <point x="574" y="566"/>
      <point x="537" y="603"/>
      <point x="486" y="625"/>
      <point x="457" y="625" type="qcurve"/>
    </contour>
  </outline>
</glyph>
<glyph name="otilde" format="2">
  <advance width="706"/>
  <unicode hex="00F5"/>
  <outline>
    <contour>
      <point x="539" y="910" type="line"/>
      <point x="534" y="890"/>
      <point x="524" y="838"/>
      <point x="504" y="792"/>
      <point x="470" y="760"/>
      <point x="442" y="760" type="qcurve" smooth="yes"/>
      <point x="416" y="760"/>
      <point x="351" y="781"/>
      <point x="324" y="788" type="qcurve"/>
      <point x="324" y="789" type="line"/>
      <point x="322" y="789"/>
      <point x="306" y="793"/>
      <point x="289" y="799"/>
      <point x="274" y="803"/>
      <point x="273" y="803" type="qcurve"/>
      <point x="256" y="803"/>
      <point x="216" y="788"/>
      <point x="211" y="768" type="qcurve"/>
      <point x="166" y="780" type="line"/>
      <point x="171" y="801"/>
      <point x="181" y="853"/>
      <point x="201" y="899"/>
      <point x="234" y="930"/>
      <point x="263" y="930" type="qcurve" smooth="yes"/>
      <point x="282" y="930"/>
      <point x="327" y="917"/>
      <point x="374" y="900"/>
      <point x="417" y="887"/>
      <point x="434" y="887" type="qcurve" smooth="yes"/>
      <point x="452" y="887"/>
      <point x="490" y="903"/>
      <point x="495" y="923" type="qcurve"/>
    </contour>
    <contour>
      <point x="665" y="201" type="line" smooth="yes"/>
      <point x="665" y="159"/>
      <point x="630" y="86"/>
      <point x="573" y="32"/>
      <point x="497" y="0"/>
      <point x="457" y="0" type="qcurve" smooth="yes"/>
      <point x="248" y="0" type="line" smooth="yes"/>
      <point x="205" y="0"/>
      <point x="129" y="33"/>
      <point x="73" y="89"/>
      <point x="40" y="165"/>
      <point x="40" y="208" type="qcurve" smooth="yes"/>
      <point x="40" y="486" type="line" smooth="yes"/>
      <point x="40" y="529"/>
      <point x="73" y="605"/>
      <point x="129" y="662"/>
      <point x="205" y="695"/>
      <point x="248" y="695" type="qcurve" smooth="yes"/>
      <point x="457" y="695" type="line" smooth="yes"/>
      <point x="500" y="695"/>
      <point x="576" y="662"/>
      <point x="632" y="605"/>
      <point x="665" y="529"/>
      <point x="665" y="486" type="qcurve" smooth="yes"/>
    </contour>
    <contour>
      <point x="457" y="69" type="line"/>
      <point x="494" y="69"/>
      <point x="546" y="95"/>
      <point x="580" y="139"/>
      <point x="596" y="199"/>
      <point x="596" y="232" type="qcurve" smooth="yes"/>
      <point x="596" y="486" type="line" smooth="yes"/>
      <point x="596" y="515"/>
      <point x="574" y="566"/>
      <point x="537" y="603"/>
      <point x="486" y="625"/>
      <point x="457" y="625" type="qcurve"/>
    </contour>
  </outline>
</glyph>
<glyph name="oslash" format="2">
  <advance width="706"/>
  <unicode hex="00F8"/>
  <outline>
    <contour>
      <point x="665" y="201" type="line" smooth="yes"/>
      <point x="665" y="169"/>
      <point x="645" y="113"/>
      <point x="610" y="65"/>
      <point x="563" y="28"/>
      <point x="535" y="16" type="qcurve" smooth="yes"/>
      <point x="524" y="11"/>
      <point x="500" y="5"/>
      <point x="489" y="3" type="qcurve"/>
      <point x="480" y="-46" type="line"/>
      <point x="422" y="-46" type="line"/>
      <point x="431" y="0" type="line"/>
      <point x="248" y="0" type="line" smooth="yes"/>
      <point x="205" y="0"/>
      <point x="129" y="33"/>
      <point x="73" y="89"/>
      <point x="40" y="165"/>
      <point x="40" y="208" type="qcurve" smooth="yes"/>
      <point x="40" y="486" type="line" smooth="yes"/>
      <point x="40" y="529"/>
      <point x="73" y="605"/>
      <point x="129" y="662"/>
      <point x="205" y="695"/>
      <point x="248" y="695" type="qcurve" smooth="yes"/>
      <point x="457" y="695" type="line" smooth="yes"/>
      <point x="502" y="695"/>
      <point x="538" y="679" type="qcurve" smooth="yes"/>
      <point x="548" y="675"/>
      <point x="558" y="668" type="qcurve"/>
      <point x="570" y="729" type="line"/>
      <point x="628" y="729" type="line"/>
      <point x="609" y="628" type="line"/>
      <point x="621" y="615"/>
      <point x="641" y="584"/>
      <point x="649" y="567" type="qcurve" smooth="yes"/>
      <point x="665" y="531"/>
      <point x="665" y="486" type="qcurve" smooth="yes"/>
    </contour>
    <contour>
      <point x="457" y="137" type="line"/>
      <point x="544" y="594" type="line"/>
      <point x="530" y="607"/>
      <point x="512" y="614" type="qcurve" smooth="yes"/>
      <point x="485" y="625"/>
      <point x="457" y="625" type="qcurve"/>
    </contour>
    <contour>
      <point x="503" y="75" type="line"/>
      <point x="508" y="77"/>
      <point x="516" y="80"/>
      <point x="520" y="82" type="qcurve" smooth="yes"/>
      <point x="559" y="102"/>
      <point x="596" y="181"/>
      <point x="596" y="232" type="qcurve" smooth="yes"/>
      <point x="596" y="486" type="line" smooth="yes"/>
      <point x="596" y="508"/>
      <point x="590" y="528" type="qcurve"/>
    </contour>
  </outline>
</glyph>
<glyph name="yacute" format="2">
  <advance width="782"/>
  <unicode hex="00FD"/>
  <outline>
    <contour>
      <point x="340" y="695" type="line"/>
      <point x="757" y="695" type="line"/>
      <point x="444" y="0" type="line"/>
      <point x="27" y="0" type="line"/>
      <point x="221" y="430" type="line"/>
      <point x="101" y="695" type="line"/>
      <point x="188" y="695" type="line"/>
      <point x="264" y="526" type="line"/>
    </contour>
    <contour>
      <point x="385" y="740" type="line"/>
      <point x="299" y="774" type="line"/>
      <point x="360" y="944" type="line"/>
      <point x="482" y="885" type="line"/>
    </contour>
  </outline>
</glyph>
<glyph name="Amacron" format="2">
  <advance width="698"/>
  <unicode hex="0100"/>
  <outline>
    <contour>
      <point x="133" y="139" type="line"/>
      <point x="217" y="139" type="line"/>
      <point x="175" y="231" type="line"/>
    </contour>
    <contour>
      <point x="102" y="69" type="line"/>
      <point x="71" y="0" type="line"/>
      <point x="1" y="0" type="line"/>
      <point x="314" y="695" type="line"/>
      <point x="384" y="695" type="line"/>
      <point x="696" y="0" type="line"/>
      <point x="279" y="0" type="line"/>
      <point x="248" y="69" type="line"/>
    </contour>
    <contour>
      <point x="148" y="745" type="line"/>
      <point x="148" y="856" type="line"/>
      <point x="549" y="856" type="line"/>
      <point x="549" y="745" type="line"/>
    </contour>
  </outline>
</glyph>
<glyph name="Abreve" format="2">
  <advance width="698"/>
  <unicode hex="0102"/>
  <outline>
    <contour>
      <point x="349" y="827" type="qcurve" smooth="yes"/>
      <point x="375" y="827"/>
      <point x="411" y="870"/>
      <point x="411" y="899" type="qcurve"/>
      <point x="505" y="899" type="line"/>
      <point x="505" y="865"/>
      <point x="481" y="805"/>
      <point x="439" y="760"/>
      <point x="382" y="733"/>
      <point x="349" y="733" type="qcurve" smooth="yes"/>
      <point x="317" y="733"/>
      <point x="261" y="760"/>
      <point x="218" y="805"/>
      <point x="193" y="865"/>
      <point x="193" y="899" type="qcurve"/>
      <point x="287" y="899" type="line"/>
      <point x="287" y="870"/>
      <point x="323" y="827"/>
    </contour>
    <contour>
      <point x="71" y="0" type="line"/>
      <point x="1" y="0" type="line"/>
      <point x="314" y="695" type="line"/>
      <point x="384" y="695" type="line"/>
      <point x="696" y="0" type="line"/>
      <point x="279" y="0" type="line"/>
      <point x="248" y="69" type="line"/>
      <point x="102" y="69" type="line"/>
    </contour>
    <contour>
      <point x="217" y="139" type="line"/>
      <point x="175" y="231" type="line"/>
      <point x="133" y="139" type="line"/>
    </contour>
  </outline>
</glyph>
<glyph name="aogonek" format="2">
  <advance width="698"/>
  <unicode hex="0105"/>
  <outline>
    <contour>
      <point x="71" y="0" type="line"/>
      <point x="1" y="0" type="line"/>
      <point x="314" y="695" type="line"/>
      <point x="384" y="695" type="line"/>
      <point x="696" y="0" type="line"/>
      <point x="638" y="0" type="line"/>
      <point x="638" y="-106" type="line"/>
      <point x="531" y="-106" type="line"/>
      <point x="531" y="-135"/>
      <point x="532" y="-198"/>
      <point x="532" y="-227" type="qcurve"/>
      <point x="602" y="-227" type="line" smooth="yes"/>
      <point x="622" y="-227"/>
      <point x="650" y="-193"/>
      <point x="650" y="-170" type="qcurve"/>
      <point x="696" y="-170" type="line"/>
      <point x="696" y="-191"/>
      <point x="681" y="-228"/>
      <point x="655" y="-255"/>
      <point x="621" y="-270"/>
      <point x="602" y="-270" type="qcurve" smooth="yes"/>
      <point x="501" y="-270" type="line" smooth="yes"/>
      <point x="467" y="-270"/>
      <point x="421" y="-226"/>
      <point x="421" y="-192" type="qcurve" smooth="yes"/>
      <point x="421" y="-150" type="line" smooth="yes"/>
      <point x="421" y="-117"/>
      <point x="467" y="-71"/>
      <point x="501" y="-71" type="qcurve" smooth="yes"/>
      <point x="544" y="-71" type="line"/>
      <point x="544" y="0" type="line"/>
      <point x="279" y="0" type="line"/>
      <point x="248" y="69" type="line"/>
      <point x="102" y="69" type="line"/>
    </contour>
    <contour>
      <point x="217" y="139" type="line"/>
      <point x="175" y="231" type="line"/>
      <point x="133" y="139" type="line"/>
    </contour>
  </outline>
</glyph>
<glyph name="Dcroat" format="2">
  <advance width="752"/>
  <unicode hex="0110"/>
  <outline>
    <contour>
      <point x="726" y="258" type="line" smooth="yes"/>
      <point x="726" y="244"/>
      <point x="725" y="215"/>
      <point x="724" y="201" type="qcurve" smooth="yes"/>
      <point x="722" y="159"/>
      <point x="689" y="86"/>
      <point x="633" y="31"/>
      <point x="559" y="0"/>
      <point x="516" y="0" type="qcurve" smooth="yes"/>
      <point x="99" y="0" type="line"/>
      <point x="99" y="321" type="line"/>
      <point x="31" y="321" type="line"/>
      <point x="31" y="383" type="line"/>
      <point x="99" y="383" type="line"/>
      <point x="99" y="695" type="line"/>
      <point x="516" y="695" type="line" smooth="yes"/>
      <point x="559" y="695"/>
      <point x="635" y="662"/>
      <point x="692" y="606"/>
      <point x="725" y="530"/>
      <point x="725" y="487" type="qcurve" smooth="yes"/>
      <point x="725" y="444"/>
      <point x="726" y="360"/>
      <point x="726" y="315" type="qcurve" smooth="yes"/>
    </contour>
    <contour>
      <point x="516" y="69" type="line"/>
      <point x="551" y="69"/>
      <point x="603" y="94"/>
      <point x="638" y="136"/>
      <point x="655" y="194"/>
      <point x="655" y="227" type="qcurve" smooth="yes"/>
      <point x="655" y="487" type="line" smooth="yes"/>
      <point x="655" y="515"/>
      <point x="633" y="566"/>
      <point x="595" y="604"/>
      <point x="544" y="626"/>
      <point x="516" y="626" type="qcurve"/>
      <point x="516" y="383" type="line"/>
      <point x="572" y="383" type="line"/>
      <point x="572" y="321" type="line"/>
      <point x="516" y="321" type="line"/>
    </contour>
  </outline>
</glyph>
<glyph name="Emacron" format="2">
  <advance width="665"/>
  <unicode hex="0112"/>
  <outline>
    <contour>
      <point x="629" y="69" type="line"/>
      <point x="629" y="0" type="line"/>
      <point x="38" y="0" type="line"/>
      <point x="38" y="695" type="line"/>
      <point x="629" y="695" type="line"/>
      <point x="629" y="625" type="line"/>
      <point x="456" y="625" type="line"/>
      <point x="456" y="417" type="line"/>
      <point x="629" y="417" type="line"/>
      <point x="629" y="347" type="line"/>
      <point x="456" y="347" type="line"/>
      <point x="456" y="69" type="line"/>
    </contour>
    <contour>
      <point x="132" y="856" type="line"/>
      <point x="533" y="856" type="line"/>
      <point x="533" y="745" type="line"/>
      <point x="132" y="745" type="line"/>
    </contour>
  </outline>
</glyph>
<glyph name="edotaccent" format="2">
  <advance width="665"/>
  <unicode hex="0117"/>
  <outline>
    <contour>
      <point x="265" y="838" type="qcurve" smooth="yes"/>
      <point x="265" y="856"/>
      <point x="279" y="888"/>
      <point x="302" y="913"/>
      <point x="334" y="927"/>
      <point x="352" y="927" type="qcurve" smooth="yes"/>
      <point x="370" y="927"/>
      <point x="402" y="913"/>
      <point x="426" y="888"/>
      <point x="440" y="856"/>
      <point x="440" y="838" type="qcurve" smooth="yes"/>
      <point x="440" y="820"/>
      <point x="426" y="787"/>
      <point x="402" y="763"/>
      <point x="370" y="749"/>
      <point x="352" y="749" type="qcurve" smooth="yes"/>
      <point x="316" y="749"/>
      <point x="265" y="801"/>
    </contour>
    <contour>
      <point x="629" y="69" type="line"/>
      <point x="629" y="0" type="line"/>
      <point x="38" y="0" type="line"/>
      <point x="38" y="695" type="line"/>
      <point x="629" y="695" type="line"/>
      <point x="629" y="625" type="line"/>
      <point x="456" y="625" type="line"/>
      <point x="456" y="417" type="line"/>
      <point x="629" y="417" type="line"/>
      <point x="629" y="347" type="line"/>
      <point x="456" y="347" type="line"/>
      <point x="456" y="69" type="line"/>
    </contour>
  </outline>
</glyph>
<glyph name="eogonek" format="2">
  <advance width="665"/>
  <unicode hex="0119"/>
  <outline>
    <contour>
      <point x="629" y="69" type="line"/>
      <point x="629" y="0" type="line"/>
      <point x="571" y="0" type="line"/>
      <point x="571" y="-106" type="line"/>
      <point x="464" y="-106" type="line"/>
      <point x="464" y="-135"/>
      <point x="465" y="-198"/>
      <point x="465" y="-227" type="qcurve"/>
      <point x="535" y="-227" type="line" smooth="yes"/>
      <point x="555" y="-227"/>
      <point x="583" y="-193"/>
      <point x="583" y="-170" type="qcurve"/>
      <point x="629" y="-170" type="line"/>
      <point x="629" y="-191"/>
      <point x="614" y="-228"/>
      <point x="588" y="-255"/>
      <point x="554" y="-270"/>
      <point x="535" y="-270" type="qcurve" smooth="yes"/>
      <point x="434" y="-270" type="line" smooth="yes"/>
      <point x="400" y="-270"/>
      <point x="354" y="-226"/>
      <point x="354" y="-192" type="qcurve" smooth="yes"/>
      <point x="354" y="-150" type="line" smooth="yes"/>
      <point x="354" y="-117"/>
      <point x="400" y="-71"/>
      <point x="434" y="-71" type="qcurve" smooth="yes"/>
      <point x="477" y="-71" type="line"/>
      <point x="477" y="0" type="line"/>
      <point x="38" y="0" type="line"/>
      <point x="38" y="695" type="line"/>
      <point x="629" y="695" type="line"/>
      <point x="629" y="625" type="line"/>
      <point x="456" y="625" type="line"/>
      <point x="456" y="417" type="line"/>
      <point x="629" y="417" type="line"/>
      <point x="629" y="347" type="line"/>
      <point x="456" y="347" type="line"/>
      <point x="456" y="69" type="line"/>
    </contour>
  </outline>
</glyph>
<glyph name="Gdotaccent" format="2">
  <advance width="687"/>
  <unicode hex="0120"/>
  <outline>
    <contour>
      <point x="265" y="838" type="qcurve" smooth="yes"/>
      <point x="265" y="856"/>
      <point x="279" y="888"/>
      <point x="302" y="913"/>
      <point x="334" y="927"/>
      <point x="352" y="927" type="qcurve" smooth="yes"/>
      <point x="370" y="927"/>
      <point x="402" y="913"/>
      <point x="426" y="888"/>
      <point x="440" y="856"/>
      <point x="440" y="838" type="qcurve" smooth="yes"/>
      <point x="440" y="820"/>
      <point x="426" y="787"/>
      <point x="402" y="763"/>
      <point x="370" y="749"/>
      <point x="352" y="749" type="qcurve" smooth="yes"/>
      <point x="316" y="749"/>
      <point x="265" y="801"/>
    </contour>
    <contour>
      <point x="588" y="487" type="line"/>
      <point x="588" y="516"/>
      <point x="566" y="566"/>
      <point x="528" y="604"/>
      <point x="477" y="625"/>
      <point x="449" y="625" type="qcurve"/>
      <point x="449" y="69" type="line"/>
      <point x="477" y="69"/>
      <point x="528" y="91"/>
      <point x="566" y="129"/>
      <point x="588" y="179"/>
      <point x="588" y="208" type="qcurve" smooth="yes"/>
      <point x="588" y="243" type="line"/>
      <point x="518" y="243" type="line"/>
      <point x="518" y="313" type="line"/>
      <point x="657" y="313" type="line"/>
      <point x="657" y="208" type="line" smooth="yes"/>
      <point x="657" y="165"/>
      <point x="624" y="89"/>
      <point x="568" y="33"/>
      <point x="492" y="0"/>
      <point x="449" y="0" type="qcurve" smooth="yes"/>
      <point x="240" y="0" type="line" smooth="yes"/>
      <point x="197" y="0"/>
      <point x="121" y="33"/>
      <point x="65" y="89"/>
      <point x="32" y="165"/>
      <point x="32" y="208" type="qcurve" smooth="yes"/>
      <point x="32" y="487" type="line" smooth="yes"/>
      <point x="32" y="530"/>
      <point x="65" y="606"/>
      <point x="121" y="662"/>
      <point x="197" y="695"/>
      <point x="240" y="695" type="qcurve" smooth="yes"/>
      <point x="449" y="695" type="line" smooth="yes"/>
      <point x="492" y="695"/>
      <point x="568" y="662"/>
      <point x="624" y="606"/>
      <point x="657" y="530"/>
      <point x="657" y="487" type="qcurve"/>
    </contour>
  </outline>
</glyph>
<glyph name="Hbar" format="2">
  <advance width="712"/>
  <unicode hex="0126"/>
  <outline>
    <contour>
      <point x="567" y="198" type="line"/>
      <point x="567" y="318" type="line"/>
      <point x="451" y="318" type="line"/>
      <point x="451" y="198" type="line"/>
    </contour>
    <contour>
      <point x="698" y="400" type="line"/>
      <point x="698" y="318" type="line"/>
      <point x="636" y="318" type="line"/>
      <point x="636" y="0" type="line"/>
      <point x="567" y="0" type="line"/>
      <point x="567" y="129" type="line"/>
      <point x="451" y="129" type="line"/>
      <point x="451" y="0" type="line"/>
      <point x="76" y="0" type="line"/>
      <point x="76" y="318" type="line"/>
      <point x="21" y="318" type="line"/>
      <point x="21" y="400" type="line"/>
      <point x="76" y="400" type="line"/>
      <point x="76" y="695" type="line"/>
      <point x="451" y="695" type="line"/>
      <point x="451" y="400" type="line"/>
      <point x="567" y="400" type="line"/>
      <point x="567" y="695" type="line"/>
      <point x="636" y="695" type="line"/>
      <point x="636" y="400" type="line"/>
    </contour>
  </outline>
</glyph>
<glyph name="imacron" format="2">
  <advance width="501"/>
  <unicode hex="012B"/>
  <outline>
    <contour>
      <point x="456" y="695" type="line"/>
      <point x="456" y="0" type="line"/>
      <point x="39" y="0" type="line"/>
      <point x="39" y="695" type="line"/>
    </contour>
    <contour>
      <point x="50" y="856" type="line"/>
      <point x="451" y="856" type="line"/>
      <point x="451" y="745" type="line"/>
      <point x="50" y="745" type="line"/>
    </contour>
  </outline>
</glyph>
<glyph name="iogonek" format="2">
  <advance width="501"/>
  <unicode hex="012F"/>
  <outline>
    <contour>
      <point x="456" y="695" type="line"/>
      <point x="456" y="0" type="line"/>
      <point x="330" y="0" type="line"/>
      <point x="330" y="-106" type="line"/>
      <point x="223" y="-106" type="line"/>
      <point x="223" y="-135"/>
      <point x="224" y="-198"/>
      <point x="224" y="-227" type="qcurve"/>
      <point x="294" y="-227" type="line" smooth="yes"/>
      <point x="314" y="-227"/>
      <point x="342" y="-193"/>
      <point x="342" y="-170" type="qcurve"/>
      <point x="388" y="-170" type="line"/>
      <point x="388" y="-191"/>
      <point x="373" y="-228"/>
      <point x="347" y="-255"/>
      <point x="313" y="-270"/>
      <point x="294" y="-270" type="qcurve" smooth="yes"/>
      <point x="193" y="-270" type="line" smooth="yes"/>
      <point x="159" y="-270"/>
      <point x="113" y="-226"/>
      <point x="113" y="-192" type="qcurve" smooth="yes"/>
      <point x="113" y="-150" type="line" smooth="yes"/>
      <point x="113" y="-117"/>
      <point x="159" y="-71"/>
      <point x="193" y="-71" type="qcurve" smooth="yes"/>
      <point x="236" y="-71" type="line"/>
      <point x="236" y="0" type="line"/>
      <point x="39" y="0" type="line"/>
      <point x="39" y="695" type="line"/>
    </contour>
  </outline>
</glyph>
<glyph name="Idotaccent" format="2">
  <advance width="501"/>
  <unicode hex="0130"/>
  <outline>
    <contour>
      <point x="167" y="838" type="qcurve" smooth="yes"/>
      <point x="167" y="856"/>
      <point x="181" y="888"/>
      <point x="204" y="913"/>
      <point x="236" y="927"/>
      <point x="254" y="927" type="qcurve" smooth="yes"/>
      <point x="272" y="927"/>
      <point x="304" y="913"/>
      <point x="328" y="888"/>
      <point x="342" y="856"/>
      <point x="342" y="838" type="qcurve" smooth="yes"/>
      <point x="342" y="820"/>
      <point x="328" y="787"/>
      <point x="304" y="763"/>
      <point x="272" y="749"/>
      <point x="254" y="749" type="qcurve" smooth="yes"/>
      <point x="218" y="749"/>
      <point x="167" y="801"/>
    </contour>
    <contour>
      <point x="456" y="695" type="line"/>
      <point x="456" y="0" type="line"/>
      <point x="39" y="0" type="line"/>
      <point x="39" y="695" type="line"/>
    </contour>
  </outline>
</glyph>
<glyph name="dotlessi" format="2">
  <advance width="501"/>
  <unicode hex="0131"/>
  <outline>
    <contour>
      <point x="456" y="695" type="line"/>
      <point x="456" y="0" type="line"/>
      <point x="39" y="0" type="line"/>
      <point x="39" y="695" type="line"/>
    </contour>
  </outline>
</glyph>
<glyph name="uni0136" format="2">
  <advance width="713"/>
  <unicode hex="0136"/>
  <outline>
    <contour>
      <point x="510" y="386" type="line"/>
      <point x="684" y="0" type="line"/>
      <point x="614" y="0" type="line"/>
      <point x="475" y="309" type="line"/>
      <point x="458" y="270" type="line"/>
      <point x="458" y="0" type="line"/>
      <point x="41" y="0" type="line"/>
      <point x="41" y="695" type="line"/>
      <point x="458" y="695" type="line"/>
      <point x="458" y="424" type="line"/>
      <point x="580" y="695" type="line"/>
      <point x="649" y="695" type="line"/>
    </contour>
    <contour>
      <point x="276" y="-44" type="line"/>
      <point x="384" y="-44" type="line"/>
      <point x="384" y="-135" type="line"/>
      <point x="276" y="-202" type="line"/>
    </contour>
  </outline>
</glyph>
<glyph name="lacute" format="2">
  <advance width="683"/>
  <unicode hex="013A"/>
  <outline>
    <contour>
      <point x="666" y="69" type="line"/>
      <point x="666" y="0" type="line"/>
      <point x="40" y="0" type="line"/>
      <point x="40" y="695" type="line"/>
      <point x="457" y="695" type="line"/>
      <point x="457" y="69" type="line"/>
    </contour>
    <contour>
      <point x="211" y="740" type="line"/>
      <point x="125" y="774" type="line"/>
      <point x="186" y="944" type="line"/>
      <point x="305" y="886" type="line"/>
      <point x="327" y="947" type="line"/>
      <point x="449" y="888" type="line"/>
      <point x="352" y="743" type="line"/>
      <point x="266" y="777" type="line"/>
      <point x="301" y="875" type="line"/>
    </contour>
  </outline>
</glyph>
<glyph name="uni013B" format="2">
  <advance width="691"/>
  <unicode hex="013B"/>
  <outline>
    <contour>
      <point x="666" y="69" type="line"/>
      <point x="666" y="0" type="line"/>
      <point x="40" y="0" type="line"/>
      <point x="40" y="695" type="line"/>
      <point x="457" y="695" type="line"/>
      <point x="457" y="69" type="line"/>
    </contour>
    <contour>
      <point x="276" y="-44" type="line"/>
      <point x="384" y="-44" type="line"/>
      <point x="384" y="-135" type="line"/>
      <point x="276" y="-202" type="line"/>
    </contour>
  </outline>
</glyph>
<glyph name="uni013C" format="2">
  <advance width="697"/>
  <unicode hex="013C"/>
  <outline>
    <contour>
      <point x="666" y="69" type="line"/>
      <point x="666" y="0" type="line"/>
      <point x="40" y="0" type="line"/>
      <point x="40" y="695" type="line"/>
      <point x="457" y="695" type="line"/>
      <point x="457" y="69" type="line"/>
    </contour>
    <contour>
      <point x="276" y="-44" type="line"/>
      <point x="384" y="-44" type="line"/>
      <point x="384" y="-135" type="line"/>
      <point x="276" y="-202" type="line"/>
    </contour>
  </outline>
</glyph>
<glyph name="Lcaron" format="2">
  <advance width="683"/>
  <unicode hex="013D"/>
  <outline>
    <contour>
      <point x="666" y="69" type="line"/>
      <point x="666" y="0" type="line"/>
      <point x="40" y="0" type="line"/>
      <point x="40" y="695" type="line"/>
      <point x="457" y="695" type="line"/>
      <point x="457" y="69" type="line"/>
    </contour>
    <contour>
      <point x="352" y="743" type="line"/>
      <point x="266" y="777" type="line"/>
      <point x="327" y="947" type="line"/>
      <point x="449" y="888" type="line"/>
    </contour>
  </outline>
</glyph>
<glyph name="lcaron" format="2">
  <advance width="861"/>
  <unicode hex="013E"/>
  <outline>
    <contour>
      <point x="666" y="69" type="line"/>
      <point x="666" y="0" type="line"/>
      <point x="40" y="0" type="line"/>
      <point x="40" y="695" type="line"/>
      <point x="457" y="695" type="line"/>
      <point x="457" y="69" type="line"/>
    </contour>
    <contour>
      <point x="510" y="697" type="line"/>
      <point x="618" y="697" type="line"/>
      <point x="618" y="606" type="line"/>
      <point x="510" y="539" type="line"/>
    </contour>
  </outline>
</glyph>
<glyph name="lslash" format="2">
  <advance width="736"/>
  <unicode hex="0142"/>
  <outline>
    <contour>
      <point x="626" y="462" type="line"/>
      <point x="514" y="420" type="line"/>
      <point x="514" y="69" type="line"/>
      <point x="723" y="69" type="line"/>
      <point x="723" y="0" type="line"/>
      <point x="97" y="0" type="line"/>
      <point x="97" y="264" type="line"/>
      <point x="36" y="241" type="line"/>
      <point x="14" y="309" type="line"/>
      <point x="97" y="340" type="line"/>
      <point x="97" y="695" type="line"/>
      <point x="514" y="695" type="line"/>
      <point x="514" y="495" type="line"/>
      <point x="599" y="527" type="line"/>
    </contour>
  </outline>
</glyph>
<glyph name="nacute" format="2">
  <advance width="719"/>
  <unicode hex="0144"/>
  <outline>
    <contour>
      <point x="669" y="695" type="line"/>
      <point x="669" y="0" type="line"/>
      <point x="600" y="0" type="line"/>
      <point x="600" y="232" type="line"/>
      <point x="461" y="540" type="line"/>
      <point x="461" y="0" type="line"/>
      <point x="44" y="0" type="line"/>
      <point x="44" y="695" type="line"/>
      <point x="461" y="695" type="line"/>
      <point x="600" y="386" type="line"/>
      <point x="600" y="695" type="line"/>
    </contour>
    <contour>
      <point x="354" y="740" type="line"/>
      <point x="268" y="774" type="line"/>
      <point x="329" y="944" type="line"/>
      <point x="451" y="885" type="line"/>
    </contour>
  </outline>
</glyph>
<glyph name="uni0146" format="2">
  <advance width="713"/>
  <unicode hex="0146"/>
  <outline>
    <contour>
      <point x="669" y="695" type="line"/>
      <point x="669" y="0" type="line"/>
      <point x="600" y="0" type="line"/>
      <point x="600" y="232" type="line"/>
      <point x="461" y="540" type="line"/>
      <point x="461" y="0" type="line"/>
      <point x="44" y="0" type="line"/>
      <point x="44" y="695" type="line"/>
      <point x="461" y="695" type="line"/>
      <point x="600" y="386" type="line"/>
      <point x="600" y="695" type="line"/>
    </contour>
    <contour>
      <point x="276" y="-44" type="line"/>
      <point x="384" y="-44" type="line"/>
      <point x="384" y="-135" type="line"/>
      <point x="276" y="-202" type="line"/>
    </contour>
  </outline>
</glyph>
<glyph name="Ncaron" format="2">
  <advance width="719"/>
  <unicode hex="0147"/>
  <outline>
    <contour>
      <point x="669" y="695" type="line"/>
      <point x="669" y="0" type="line"/>
      <point x="600" y="0" type="line"/>
      <point x="600" y="232" type="line"/>
      <point x="461" y="540" type="line"/>
      <point x="461" y="0" type="line"/>
      <point x="44" y="0" type="line"/>
      <point x="44" y="695" type="line"/>
      <point x="461" y="695" type="line"/>
      <point x="600" y="386" type="line"/>
      <point x="600" y="695" type="line"/>
    </contour>
    <contour>
      <point x="448" y="957" type="line"/>
      <point x="534" y="923" type="line"/>
      <point x="465" y="749" type="line"/>
      <point x="254" y="749" type="line"/>
      <point x="185" y="923" type="line"/>
      <point x="271" y="957" type="line"/>
      <point x="359" y="826" type="line"/>
    </contour>
  </outline>
</glyph>
<glyph name="OE" format="2">
  <advance width="1119"/>
  <unicode hex="0152"/>
  <outline>
    <contour>
      <point x="1092" y="69" type="line"/>
      <point x="1092" y="0" type="line"/>
      <point x="567" y="0" type="line"/>
      <point x="567" y="90" type="line"/>
      <point x="560" y="82"/>
      <point x="547" y="66"/>
      <point x="539" y="59" type="qcurve" smooth="yes"/>
      <point x="511" y="32"/>
      <point x="435" y="0"/>
      <point x="395" y="0" type="qcurve" smooth="yes"/>
      <point x="248" y="0" type="line" smooth="yes"/>
      <point x="205" y="0"/>
      <point x="129" y="33"/>
      <point x="73" y="89"/>
      <point x="40" y="165"/>
      <point x="40" y="208" type="qcurve" smooth="yes"/>
      <point x="40" y="486" type="line" smooth="yes"/>
      <point x="40" y="529"/>
      <point x="73" y="605"/>
      <point x="129" y="662"/>
      <point x="205" y="695"/>
      <point x="248" y="695" type="qcurve" smooth="yes"/>
      <point x="395" y="695" type="line" smooth="yes"/>
      <point x="438" y="695"/>
      <point x="514" y="662"/>
      <point x="542" y="633" type="qcurve" smooth="yes"/>
      <point x="549" y="626"/>
      <point x="562" y="611"/>
      <point x="567" y="603" type="qcurve"/>
      <point x="567" y="695" type="line"/>
      <point x="1092" y="695" type="line"/>
      <point x="1092" y="625" type="line"/>
      <point x="919" y="625" type="line"/>
      <point x="919" y="417" type="line"/>
      <point x="1092" y="417" type="line"/>
      <point x="1092" y="347" type="line"/>
      <point x="919" y="347" type="line"/>
      <point x="919" y="69" type="line"/>
    </contour>
    <contour>
      <point x="395" y="69" type="line"/>
      <point x="432" y="69"/>
      <point x="484" y="95"/>
      <point x="518" y="139"/>
      <point x="534" y="199"/>
      <point x="534" y="232" type="qcurve" smooth="yes"/>
      <point x="534" y="486" type="line" smooth="yes"/>
      <point x="534" y="515"/>
      <point x="512" y="566"/>
      <point x="475" y="603"/>
      <point x="424" y="625"/>
      <point x="395" y="625" type="qcurve"/>
    </contour>
  </outline>
</glyph>
<glyph name="uni0163" format="2">
  <advance width="267"/>
  <unicode hex="0163"/>
  <outline>
    <contour>
      <point x="82" y="-56" type="line"/>
      <point x="190" y="-56" type="line"/>
      <point x="190" y="-147" type="line"/>
      <point x="82" y="-214" type="line"/>
    </contour>
  </outline>
</glyph>
<glyph name="Tcaron" format="2">
  <advance width="732"/>
  <unicode hex="0164"/>
  <outline>
    <contour>
      <point x="438" y="957" type="line"/>
      <point x="524" y="923" type="line"/>
      <point x="455" y="749" type="line"/>
      <point x="244" y="749" type="line"/>
      <point x="175" y="923" type="line"/>
      <point x="261" y="957" type="line"/>
      <point x="349" y="826" type="line"/>
    </contour>
    <contour>
      <point x="715" y="695" type="line"/>
      <point x="715" y="625" type="line"/>
      <point x="575" y="625" type="line"/>
      <point x="575" y="0" type="line"/>
      <point x="161" y="0" type="line"/>
      <point x="160" y="625" type="line"/>
      <point x="20" y="625" type="line"/>
      <point x="20" y="695" type="line"/>
    </contour>
  </outline>
</glyph>
<glyph name="tcaron" format="2">
  <advance width="776"/>
  <unicode hex="0165"/>
  <outline>
    <contour>
      <point x="647" y="555" type="line"/>
      <point x="755" y="555" type="line"/>
      <point x="755" y="464" type="line"/>
      <point x="647" y="397" type="line"/>
    </contour>
    <contour>
      <point x="715" y="695" type="line"/>
      <point x="715" y="625" type="line"/>
      <point x="575" y="625" type="line"/>
      <point x="575" y="0" type="line"/>
      <point x="161" y="0" type="line"/>
      <point x="160" y="625" type="line"/>
      <point x="20" y="625" type="line"/>
      <point x="20" y="695" type="line"/>
    </contour>
  </outline>
</glyph>
<glyph name="Uring" format="2">
  <advance width="714"/>
  <unicode hex="016E"/>
  <outline>
    <contour>
      <point x="357" y="740" type="qcurve" smooth="yes"/>
      <point x="336" y="740"/>
      <point x="298" y="756"/>
      <point x="270" y="785"/>
      <point x="254" y="822"/>
      <point x="254" y="843" type="qcurve" smooth="yes"/>
      <point x="254" y="886"/>
      <point x="314" y="944"/>
      <point x="357" y="944" type="qcurve" smooth="yes"/>
      <point x="378" y="944"/>
      <point x="415" y="928"/>
      <point x="443" y="901"/>
      <point x="460" y="864"/>
      <point x="460" y="843" type="qcurve" smooth="yes"/>
      <point x="460" y="822"/>
      <point x="443" y="785"/>
      <point x="415" y="756"/>
      <point x="378" y="740"/>
    </contour>
    <contour>
      <point x="360" y="890" type="qcurve" smooth="yes"/>
      <point x="338" y="890"/>
      <point x="311" y="864"/>
      <point x="311" y="844" type="qcurve" smooth="yes"/>
      <point x="311" y="827"/>
      <point x="338" y="798"/>
      <point x="360" y="798" type="qcurve" smooth="yes"/>
      <point x="380" y="798"/>
      <point x="408" y="827"/>
      <point x="408" y="844" type="qcurve" smooth="yes"/>
      <point x="408" y="864"/>
      <point x="380" y="890"/>
    </contour>
    <contour>
      <point x="672" y="308" type="qcurve" smooth="yes"/>
      <point x="672" y="281"/>
      <point x="673" y="249"/>
      <point x="673" y="244" type="qcurve" smooth="yes"/>
      <point x="673" y="233"/>
      <point x="672" y="212"/>
      <point x="671" y="201" type="qcurve" smooth="yes"/>
      <point x="669" y="159"/>
      <point x="635" y="86"/>
      <point x="579" y="31"/>
      <point x="504" y="0"/>
      <point x="462" y="0" type="qcurve" smooth="yes"/>
      <point x="254" y="0" type="line" smooth="yes"/>
      <point x="211" y="0"/>
      <point x="135" y="33"/>
      <point x="78" y="89"/>
      <point x="45" y="165"/>
      <point x="45" y="208" type="qcurve" smooth="yes"/>
      <point x="45" y="695" type="line"/>
      <point x="462" y="695" type="line"/>
      <point x="462" y="69" type="line"/>
      <point x="500" y="69"/>
      <point x="554" y="96"/>
      <point x="576" y="128" type="qcurve" smooth="yes"/>
      <point x="597" y="159"/>
      <point x="601" y="220"/>
      <point x="601" y="255" type="qcurve" smooth="yes"/>
      <point x="601" y="695" type="line"/>
      <point x="671" y="695" type="line"/>
      <point x="671" y="598"/>
      <point x="672" y="405"/>
    </contour>
  </outline>
</glyph>
<glyph name="uhungarumlaut" format="2">
  <advance width="714"/>
  <unicode hex="0171"/>
  <outline>
    <contour>
      <point x="215" y="740" type="line"/>
      <point x="129" y="774" type="line"/>
      <point x="190" y="944" type="line"/>
      <point x="312" y="885" type="line"/>
    </contour>
    <contour>
      <point x="488" y="740" type="line"/>
      <point x="402" y="774" type="line"/>
      <point x="463" y="944" type="line"/>
      <point x="585" y="885" type="line"/>
    </contour>
    <contour>
      <point x="672" y="308" type="qcurve" smooth="yes"/>
      <point x="672" y="281"/>
      <point x="673" y="249"/>
      <point x="673" y="244" type="qcurve" smooth="yes"/>
      <point x="673" y="233"/>
      <point x="672" y="212"/>
      <point x="671" y="201" type="qcurve" smooth="yes"/>
      <point x="669" y="159"/>
      <point x="635" y="86"/>
      <point x="579" y="31"/>
      <point x="504" y="0"/>
      <point x="462" y="0" type="qcurve" smooth="yes"/>
      <point x="254" y="0" type="line" smooth="yes"/>
      <point x="211" y="0"/>
      <point x="135" y="33"/>
      <point x="78" y="89"/>
      <point x="45" y="165"/>
      <point x="45" y="208" type="qcurve" smooth="yes"/>
      <point x="45" y="695" type="line"/>
      <point x="462" y="695" type="line"/>
      <point x="462" y="69" type="line"/>
      <point x="500" y="69"/>
      <point x="554" y="96"/>
      <point x="576" y="128" type="qcurve" smooth="yes"/>
      <point x="597" y="159"/>
      <point x="601" y="220"/>
      <point x="601" y="255" type="qcurve" smooth="yes"/>
      <point x="601" y="695" type="line"/>
      <point x="671" y="695" type="line"/>
      <point x="671" y="598"/>
      <point x="672" y="405"/>
    </contour>
  </outline>
</glyph>
<glyph name="Uogonek" format="2">
  <advance width="714"/>
  <unicode hex="0172"/>
  <outline>
    <contour>
      <point x="672" y="308" type="qcurve" smooth="yes"/>
      <point x="672" y="281"/>
      <point x="673" y="249"/>
      <point x="673" y="244" type="qcurve" smooth="yes"/>
      <point x="673" y="233"/>
      <point x="672" y="212"/>
      <point x="671" y="201" type="qcurve" smooth="yes"/>
      <point x="669" y="159"/>
      <point x="635" y="86"/>
      <point x="579" y="31"/>
      <point x="504" y="0"/>
      <point x="462" y="0" type="qcurve" smooth="yes"/>
      <point x="425" y="0" type="line"/>
      <point x="425" y="-106" type="line"/>
      <point x="318" y="-106" type="line"/>
      <point x="318" y="-135"/>
      <point x="319" y="-198"/>
      <point x="319" y="-227" type="qcurve"/>
      <point x="389" y="-227" type="line" smooth="yes"/>
      <point x="409" y="-227"/>
      <point x="437" y="-193"/>
      <point x="437" y="-170" type="qcurve"/>
      <point x="483" y="-170" type="line"/>
      <point x="483" y="-191"/>
      <point x="468" y="-228"/>
      <point x="442" y="-255"/>
      <point x="408" y="-270"/>
      <point x="389" y="-270" type="qcurve" smooth="yes"/>
      <point x="288" y="-270" type="line" smooth="yes"/>
      <point x="254" y="-270"/>
      <point x="208" y="-226"/>
      <point x="208" y="-192" type="qcurve" smooth="yes"/>
      <point x="208" y="-150" type="line" smooth="yes"/>
      <point x="208" y="-117"/>
      <point x="254" y="-71"/>
      <point x="288" y="-71" type="qcurve" smooth="yes"/>
      <point x="331" y="-71" type="line"/>
      <point x="331" y="0" type="line"/>
      <point x="254" y="0" type="line" smooth="yes"/>
      <point x="211" y="0"/>
      <point x="135" y="33"/>
      <point x="78" y="89"/>
      <point x="45" y="165"/>
      <point x="45" y="208" type="qcurve" smooth="yes"/>
      <point x="45" y="695" type="line"/>
      <point x="462" y="695" type="line"/>
      <point x="462" y="69" type="line"/>
      <point x="500" y="69"/>
      <point x="554" y="96"/>
      <point x="576" y="128" type="qcurve" smooth="yes"/>
      <point x="597" y="159"/>
      <point x="601" y="220"/>
      <point x="601" y="255" type="qcurve" smooth="yes"/>
      <point x="601" y="695" type="line"/>
      <point x="671" y="695" type="line"/>
      <point x="671" y="598"/>
      <point x="672" y="405"/>
    </contour>
  </outline>
</glyph>
<glyph name="Ycircumflex" format="2">
  <advance width="782"/>
  <unicode hex="0176"/>
  <outline>
    <contour>
      <point x="340" y="695" type="line"/>
      <point x="757" y="695" type="line"/>
      <point x="444" y="0" type="line"/>
      <point x="27" y="0" type="line"/>
      <point x="221" y="430" type="line"/>
      <point x="101" y="695" type="line"/>
      <point x="188" y="695" type="line"/>
      <point x="264" y="526" type="line"/>
    </contour>
    <contour>
      <point x="421" y="888" type="line"/>
      <point x="543" y="947" type="line"/>
      <point x="604" y="777" type="line"/>
      <point x="518" y="743" type="line"/>
    </contour>
    <contour>
      <point x="264" y="743" type="line"/>
      <point x="178" y="777" type="line"/>
      <point x="239" y="947" type="line"/>
      <point x="361" y="888" type="line"/>
    </contour>
  </outline>
</glyph>
<glyph name="Ydieresis" format="2">
  <advance width="782"/>
  <unicode hex="0178"/>
  <outline>
    <contour>
      <point x="174" y="824" type="qcurve" smooth="yes"/>
      <point x="174" y="858"/>
      <point x="220" y="905"/>
      <point x="254" y="905" type="qcurve" smooth="yes"/>
      <point x="288" y="905"/>
      <point x="335" y="858"/>
      <point x="335" y="824" type="qcurve" smooth="yes"/>
      <point x="335" y="790"/>
      <point x="288" y="744"/>
      <point x="254" y="744" type="qcurve" smooth="yes"/>
      <point x="220" y="744"/>
      <point x="174" y="790"/>
    </contour>
    <contour>
      <point x="447" y="824" type="qcurve" smooth="yes"/>
      <point x="447" y="858"/>
      <point x="493" y="905"/>
      <point x="527" y="905" type="qcurve" smooth="yes"/>
      <point x="561" y="905"/>
      <point x="608" y="858"/>
      <point x="608" y="824" type="qcurve" smooth="yes"/>
      <point x="608" y="790"/>
      <point x="561" y="744"/>
      <point x="527" y="744" type="qcurve" smooth="yes"/>
      <point x="493" y="744"/>
      <point x="447" y="790"/>
    </contour>
    <contour>
      <point x="340" y="695" type="line"/>
      <point x="757" y="695" type="line"/>
      <point x="444" y="0" type="line"/>
      <point x="27" y="0" type="line"/>
      <point x="221" y="430" type="line"/>
      <point x="101" y="695" type="line"/>
      <point x="188" y="695" type="line"/>
      <point x="264" y="526" type="line"/>
    </contour>
  </outline>
</glyph>
<glyph name="Zacute" format="2">
  <advance width="748"/>
  <unicode hex="0179"/>
  <outline>
    <contour>
      <point x="722" y="626" type="line"/>
      <point x="444" y="70" type="line"/>
      <point x="722" y="70" type="line"/>
      <point x="722" y="0" type="line"/>
      <point x="27" y="0" type="line"/>
      <point x="27" y="70" type="line"/>
      <point x="305" y="626" type="line"/>
      <point x="27" y="626" type="line"/>
      <point x="27" y="695" type="line"/>
      <point x="722" y="695" type="line"/>
    </contour>
    <contour>
      <point x="368" y="740" type="line"/>
      <point x="282" y="774" type="line"/>
      <point x="343" y="944" type="line"/>
      <point x="465" y="885" type="line"/>
    </contour>
  </outline>
</glyph>
<glyph name="zdotaccent" format="2">
  <advance width="748"/>
  <unicode hex="017C"/>
  <outline>
    <contour>
      <point x="281" y="838" type="qcurve" smooth="yes"/>
      <point x="281" y="856"/>
      <point x="295" y="888"/>
      <point x="318" y="913"/>
      <point x="350" y="927"/>
      <point x="368" y="927" type="qcurve" smooth="yes"/>
      <point x="386" y="927"/>
      <point x="418" y="913"/>
      <point x="442" y="888"/>
      <point x="456" y="856"/>
      <point x="456" y="838" type="qcurve" smooth="yes"/>
      <point x="456" y="820"/>
      <point x="442" y="787"/>
      <point x="418" y="763"/>
      <point x="386" y="749"/>
      <point x="368" y="749" type="qcurve" smooth="yes"/>
      <point x="332" y="749"/>
      <point x="281" y="801"/>
    </contour>
    <contour>
      <point x="722" y="626" type="line"/>
      <point x="444" y="70" type="line"/>
      <point x="722" y="70" type="line"/>
      <point x="722" y="0" type="line"/>
      <point x="27" y="0" type="line"/>
      <point x="27" y="70" type="line"/>
      <point x="305" y="626" type="line"/>
      <point x="27" y="626" type="line"/>
      <point x="27" y="695" type="line"/>
      <point x="722" y="695" type="line"/>
    </contour>
  </outline>
</glyph>
<glyph name="Zcaron" format="2">
  <advance width="748"/>
  <unicode hex="017D"/>
  <outline>
    <contour>
      <point x="722" y="626" type="line"/>
      <point x="444" y="70" type="line"/>
      <point x="722" y="70" type="line"/>
      <point x="722" y="0" type="line"/>
      <point x="27" y="0" type="line"/>
      <point x="27" y="70" type="line"/>
      <point x="305" y="626" type="line"/>
      <point x="27" y="626" type="line"/>
      <point x="27" y="695" type="line"/>
      <point x="722" y="695" type="line"/>
    </contour>
    <contour>
      <point x="462" y="957" type="line"/>
      <point x="548" y="923" type="line"/>
      <point x="479" y="749" type="line"/>
      <point x="268" y="749" type="line"/>
      <point x="199" y="923" type="line"/>
      <point x="285" y="957" type="line"/>
      <point x="373" y="826" type="line"/>
    </contour>
  </outline>
</glyph>
<glyph name="circumflex" format="2">
  <advance width="655"/>
  <unicode hex="02C6"/>
  <outline>
    <contour>
      <point x="381" y="888" type="line"/>
      <point x="503" y="947" type="line"/>
      <point x="564" y="777" type="line"/>
      <point x="478" y="743" type="line"/>
    </contour>
    <contour>
      <point x="224" y="743" type="line"/>
      <point x="138" y="777" type="line"/>
      <point x="199" y="947" type="line"/>
      <point x="321" y="888" type="line"/>
    </contour>
  </outline>
</glyph>
<glyph name="caron" format="2">
  <advance width="605"/>
  <unicode hex="02C7"/>
  <outline>
    <contour>
      <point x="382" y="957" type="line"/>
      <point x="468" y="923" type="line"/>
      <point x="399" y="749" type="line"/>
      <point x="188" y="749" type="line"/>
      <point x="119" y="923" type="line"/>
      <point x="205" y="957" type="line"/>
      <point x="293" y="826" type="line"/>
    </contour>
  </outline>
</glyph>
<glyph name="breve" format="2">
  <advance width="499"/>
  <unicode hex="02D8"/>
  <outline>
    <contour>
      <point x="268" y="827" type="qcurve" smooth="yes"/>
      <point x="294" y="827"/>
      <point x="330" y="870"/>
      <point x="330" y="899" type="qcurve"/>
      <point x="424" y="899" type="line"/>
      <point x="424" y="865"/>
      <point x="400" y="805"/>
      <point x="358" y="760"/>
      <point x="301" y="733"/>
      <point x="268" y="733" type="qcurve" smooth="yes"/>
      <point x="236" y="733"/>
      <point x="180" y="760"/>
      <point x="137" y="805"/>
      <point x="112" y="865"/>
      <point x="112" y="899" type="qcurve"/>
      <point x="206" y="899" type="line"/>
      <point x="206" y="870"/>
      <point x="242" y="827"/>
    </contour>
  </outline>
</glyph>
<glyph name="dotaccent" format="2">
  <advance width="232"/>
  <unicode hex="02D9"/>
  <outline>
    <contour>
      <point x="27" y="839" type="qcurve" smooth="yes"/>
      <point x="27" y="857"/>
      <point x="41" y="889"/>
      <point x="64" y="914"/>
      <point x="96" y="928"/>
      <point x="114" y="928" type="qcurve" smooth="yes"/>
      <point x="132" y="928"/>
      <point x="164" y="914"/>
      <point x="188" y="889"/>
      <point x="202" y="857"/>
      <point x="202" y="839" type="qcurve" smooth="yes"/>
      <point x="202" y="821"/>
      <point x="188" y="788"/>
      <point x="164" y="764"/>
      <point x="132" y="750"/>
      <point x="114" y="750" type="qcurve" smooth="yes"/>
      <point x="78" y="750"/>
      <point x="27" y="802"/>
    </contour>
  </outline>
</glyph>
<glyph name="ring" format="2">
  <advance width="342"/>
  <unicode hex="02DA"/>
  <outline>
    <contour>
      <point x="177" y="740" type="qcurve" smooth="yes"/>
      <point x="156" y="740"/>
      <point x="118" y="756"/>
      <point x="90" y="785"/>
      <point x="74" y="822"/>
      <point x="74" y="843" type="qcurve" smooth="yes"/>
      <point x="74" y="886"/>
      <point x="134" y="944"/>
      <point x="177" y="944" type="qcurve" smooth="yes"/>
      <point x="198" y="944"/>
      <point x="235" y="928"/>
      <point x="263" y="901"/>
      <point x="280" y="864"/>
      <point x="280" y="843" type="qcurve" smooth="yes"/>
      <point x="280" y="822"/>
      <point x="263" y="785"/>
      <point x="235" y="756"/>
      <point x="198" y="740"/>
    </contour>
    <contour>
      <point x="180" y="890" type="qcurve" smooth="yes"/>
      <point x="158" y="890"/>
      <point x="131" y="864"/>
      <point x="131" y="844" type="qcurve" smooth="yes"/>
      <point x="131" y="827"/>
      <point x="158" y="798"/>
      <point x="180" y="798" type="qcurve" smooth="yes"/>
      <point x="200" y="798"/>
      <point x="228" y="827"/>
      <point x="228" y="844" type="qcurve" smooth="yes"/>
      <point x="228" y="864"/>
      <point x="200" y="890"/>
    </contour>
  </outline>
</glyph>
<glyph name="ogonek" format="2">
  <advance width="833"/>
  <unicode hex="02DB"/>
  <outline>
    <contour>
      <point x="251" y="-150" type="line" smooth="yes"/>
      <point x="251" y="-117"/>
      <point x="297" y="-71"/>
      <point x="331" y="-71" type="qcurve" smooth="yes"/>
      <point x="374" y="-71" type="line"/>
      <point x="374" y="0" type="line"/>
      <point x="468" y="0" type="line"/>
      <point x="468" y="-106" type="line"/>
      <point x="361" y="-106" type="line"/>
      <point x="361" y="-135"/>
      <point x="362" y="-198"/>
      <point x="362" y="-227" type="qcurve"/>
      <point x="432" y="-227" type="line" smooth="yes"/>
      <point x="452" y="-227"/>
      <point x="480" y="-193"/>
      <point x="480" y="-170" type="qcurve"/>
      <point x="526" y="-170" type="line"/>
      <point x="526" y="-191"/>
      <point x="511" y="-228"/>
      <point x="485" y="-255"/>
      <point x="451" y="-270"/>
      <point x="432" y="-270" type="qcurve" smooth="yes"/>
      <point x="331" y="-270" type="line" smooth="yes"/>
      <point x="297" y="-270"/>
      <point x="251" y="-226"/>
      <point x="251" y="-192" type="qcurve" smooth="yes"/>
    </contour>
  </outline>
</glyph>
<glyph name="tilde" format="2">
  <advance width="713"/>
  <unicode hex="02DC"/>
  <outline>
    <contour>
      <point x="538" y="910" type="line"/>
      <point x="533" y="890"/>
      <point x="523" y="838"/>
      <point x="503" y="792"/>
      <point x="469" y="760"/>
      <point x="441" y="760" type="qcurve" smooth="yes"/>
      <point x="415" y="760"/>
      <point x="350" y="781"/>
      <point x="323" y="788" type="qcurve"/>
      <point x="323" y="789" type="line"/>
      <point x="321" y="789"/>
      <point x="305" y="793"/>
      <point x="288" y="799"/>
      <point x="273" y="803"/>
      <point x="272" y="803" type="qcurve"/>
      <point x="255" y="803"/>
      <point x="215" y="788"/>
      <point x="210" y="768" type="qcurve"/>
      <point x="165" y="780" type="line"/>
      <point x="170" y="801"/>
      <point x="180" y="853"/>
      <point x="200" y="899"/>
      <point x="233" y="930"/>
      <point x="262" y="930" type="qcurve" smooth="yes"/>
      <point x="281" y="930"/>
      <point x="326" y="917"/>
      <point x="373" y="900"/>
      <point x="416" y="887"/>
      <point x="433" y="887" type="qcurve" smooth="yes"/>
      <point x="451" y="887"/>
      <point x="489" y="903"/>
      <point x="494" y="923" type="qcurve"/>
    </contour>
  </outline>
</glyph>
<glyph name="hungarumlaut" format="2">
  <advance width="691"/>
  <unicode hex="02DD"/>
  <outline>
    <contour>
      <point x="227" y="740" type="line"/>
      <point x="141" y="774" type="line"/>
      <point x="202" y="944" type="line"/>
      <point x="324" y="885" type="line"/>
    </contour>
    <contour>
      <point x="500" y="740" type="line"/>
      <point x="414" y="774" type="line"/>
      <point x="475" y="944" type="line"/>
      <point x="597" y="885" type="line"/>
    </contour>
  </outline>
</glyph>
<glyph name="gravecomb" format="2">
  <advance width="439"/>
  <unicode hex="0300"/>
  <outline>
    <contour>
      <point x="144" y="888" type="line"/>
      <point x="266" y="947" type="line"/>
      <point x="327" y="777" type="line"/>
      <point x="241" y="743" type="line"/>
    </contour>
  </outline>
</glyph>
<glyph name="acutecomb" format="2">
  <advance width="397"/>
  <unicode hex="0301"/>
  <outline>
    <contour>
      <point x="211" y="740" type="line"/>
      <point x="125" y="774" type="line"/>
      <point x="186" y="944" type="line"/>
      <point x="308" y="885" type="line"/>
    </contour>
  </outline>
</glyph>
<glyph name="uni0304" format="2">
  <advance width="582"/>
  <unicode hex="0304"/>
  <outline>
    <contour>
      <point x="92" y="856" type="line"/>
      <point x="493" y="856" type="line"/>
      <point x="493" y="745" type="line"/>
      <point x="92" y="745" type="line"/>
    </contour>
  </outline>
</glyph>
<glyph name="uni0306" format="2">
  <advance width="463"/>
  <unicode hex="0306"/>
  <outline>
    <contour>
      <point x="257" y="827" type="qcurve" smooth="yes"/>
      <point x="283" y="827"/>
      <point x="319" y="870"/>
      <point x="319" y="899" type="qcurve"/>
      <point x="413" y="899" type="line"/>
      <point x="413" y="865"/>
      <point x="389" y="805"/>
      <point x="347" y="760"/>
      <point x="290" y="733"/>
      <point x="257" y="733" type="qcurve" smooth="yes"/>
      <point x="225" y="733"/>
      <point x="169" y="760"/>
      <point x="126" y="805"/>
      <point x="101" y="865"/>
      <point x="101" y="899" type="qcurve"/>
      <point x="195" y="899" type="line"/>
      <point x="195" y="870"/>
      <point x="231" y="827"/>
    </contour>
  </outline>
</glyph>
<glyph name="wgrave" format="2">
  <advance width="1098"/>
  <unicode hex="1E81"/>
  <outline>
    <contour>
      <point x="931" y="542" type="line"/>
      <point x="990" y="695" type="line"/>
      <point x="1065" y="695" type="line"/>
      <point x="802" y="0" type="line"/>
      <point x="734" y="0" type="line"/>
      <point x="537" y="481" type="line"/>
      <point x="346" y="0" type="line"/>
      <point x="285" y="0" type="line"/>
      <point x="20" y="695" type="line"/>
      <point x="423" y="695" type="line"/>
      <point x="484" y="536" type="line"/>
      <point x="549" y="695" type="line"/>
      <point x="873" y="695" type="line"/>
    </contour>
    <contour>
      <point x="457" y="888" type="line"/>
      <point x="579" y="947" type="line"/>
      <point x="640" y="777" type="line"/>
      <point x="554" y="743" type="line"/>
    </contour>
  </outline>
</glyph>
<glyph name="ygrave" format="2">
  <unicode hex="1EF3"/>
  <outline>
    <contour>
      <point x="144" y="888" type="line"/>
      <point x="266" y="947" type="line"/>
      <point x="327" y="777" type="line"/>
      <point x="241" y="743" type="line"/>
    </contour>
  </outline>
</glyph>
<glyph name="endash" format="2">
  <advance width="696"/>
  <unicode hex="2013"/>
  <outline>
    <contour>
      <point x="663" y="285" type="line"/>
      <point x="26" y="285" type="line"/>
      <point x="26" y="360" type="line"/>
      <point x="663" y="360" type="line"/>
    </contour>
  </outline>
</glyph>
<glyph name="emdash" format="2">
  <advance width="868"/>
  <unicode hex="2014"/>
  <outline>
    <contour>
      <point x="848" y="285" type="line"/>
      <point x="26" y="285" type="line"/>
      <point x="26" y="360" type="line"/>
      <point x="848" y="360" type="line"/>
    </contour>
  </outline>
</glyph>
<glyph name="quoteleft" format="2">
  <advance width="178"/>
  <unicode hex="2018"/>
  <outline>
    <contour>
      <point x="144" y="539" type="line"/>
      <point x="36" y="539" type="line"/>
      <point x="36" y="630" type="line"/>
      <point x="144" y="697" type="line"/>
    </contour>
  </outline>
</glyph>
<glyph name="quoteright" format="2">
  <advance width="178"/>
  <unicode hex="2019"/>
  <outline>
    <contour>
      <point x="36" y="697" type="line"/>
      <point x="144" y="697" type="line"/>
      <point x="144" y="606" type="line"/>
      <point x="36" y="539" type="line"/>
    </contour>
  </outline>
</glyph>
<glyph name="quotesinglbase" format="2">
  <advance width="172"/>
  <unicode hex="201A"/>
  <outline>
    <contour>
      <point x="36" y="92" type="line"/>
      <point x="144" y="92" type="line"/>
      <point x="144" y="1" type="line"/>
      <point x="36" y="-66" type="line"/>
    </contour>
  </outline>
</glyph>
<glyph name="quotedblleft" format="2">
  <advance width="339"/>
  <unicode hex="201C"/>
  <outline>
    <contour>
      <point x="302" y="539" type="line"/>
      <point x="194" y="539" type="line"/>
      <point x="194" y="630" type="line"/>
      <point x="302" y="697" type="line"/>
    </contour>
    <contour>
      <point x="144" y="539" type="line"/>
      <point x="36" y="539" type="line"/>
      <point x="36" y="630" type="line"/>
      <point x="144" y="697" type="line"/>
    </contour>
  </outline>
</glyph>
<glyph name="quotedblright" format="2">
  <advance width="339"/>
  <unicode hex="201D"/>
  <outline>
    <contour>
      <point x="36" y="697" type="line"/>
      <point x="144" y="697" type="line"/>
      <point x="144" y="606" type="line"/>
      <point x="36" y="539" type="line"/>
    </contour>
    <contour>
      <point x="194" y="697" type="line"/>
      <point x="302" y="697" type="line"/>
      <point x="302" y="606" type="line"/>
      <point x="194" y="539" type="line"/>
    </contour>
  </outline>
</glyph>
<glyph name="quotedblbase" format="2">
  <advance width="362"/>
  <unicode hex="201E"/>
  <outline>
    <contour>
      <point x="36" y="92" type="line"/>
      <point x="144" y="92" type="line"/>
      <point x="144" y="1" type="line"/>
      <point x="36" y="-66" type="line"/>
    </contour>
    <contour>
      <point x="198" y="92" type="line"/>
      <point x="306" y="92" type="line"/>
      <point x="306" y="1" type="line"/>
      <point x="198" y="-66" type="line"/>
    </contour>
  </outline>
</glyph>
<glyph name="bullet" format="2">
  <advance width="324"/>
  <unicode hex="2022"/>
  <outline>
    <contour>
      <point x="27" y="353" type="qcurve" smooth="yes"/>
      <point x="27" y="381"/>
      <point x="49" y="432"/>
      <point x="86" y="469"/>
      <point x="136" y="491"/>
      <point x="165" y="491" type="qcurve" smooth="yes"/>
      <point x="193" y="491"/>
      <point x="244" y="469"/>
      <point x="281" y="432"/>
      <point x="303" y="381"/>
      <point x="303" y="353" type="qcurve" smooth="yes"/>
      <point x="303" y="324"/>
      <point x="281" y="274"/>
      <point x="244" y="237"/>
      <point x="193" y="215"/>
      <point x="165" y="215" type="qcurve" smooth="yes"/>
      <point x="136" y="215"/>
      <point x="86" y="237"/>
      <point x="49" y="274"/>
      <point x="27" y="324"/>
    </contour>
  </outline>
</glyph>
<glyph name="ellipsis" format="2">
  <advance width="531"/>
  <unicode hex="2026"/>
  <outline>
    <contour>
      <point x="144" y="2" type="line"/>
      <point x="36" y="2" type="line"/>
      <point x="36" y="110" type="line"/>
      <point x="144" y="110" type="line"/>
    </contour>
    <contour>
      <point x="321" y="2" type="line"/>
      <point x="213" y="2" type="line"/>
      <point x="213" y="110" type="line"/>
      <point x="321" y="110" type="line"/>
    </contour>
    <contour>
      <point x="498" y="2" type="line"/>
      <point x="390" y="2" type="line"/>
      <point x="390" y="110" type="line"/>
      <point x="498" y="110" type="line"/>
    </contour>
  </outline>
</glyph>
<glyph name="guilsinglleft" format="2">
  <advance width="411"/>
  <unicode hex="2039"/>
  <outline>
    <contour>
      <point x="23" y="399" type="line"/>
      <point x="391" y="634" type="line"/>
      <point x="391" y="496" type="line"/>
      <point x="162" y="349" type="line"/>
      <point x="219" y="314"/>
      <point x="334" y="237"/>
      <point x="391" y="202" type="qcurve"/>
      <point x="391" y="64" type="line"/>
      <point x="23" y="300" type="line"/>
    </contour>
  </outline>
</glyph>
<glyph name="guilsinglright" format="2">
  <advance width="411"/>
  <unicode hex="203A"/>
  <outline>
    <contour>
      <point x="391" y="300" type="line"/>
      <point x="23" y="64" type="line"/>
      <point x="23" y="202" type="line"/>
      <point x="80" y="237"/>
      <point x="195" y="314"/>
      <point x="252" y="349" type="qcurve"/>
      <point x="23" y="496" type="line"/>
      <point x="23" y="634" type="line"/>
      <point x="391" y="399" type="line"/>
    </contour>
  </outline>
</glyph>
<glyph name="Euro" format="2">
  <advance width="753"/>
  <unicode hex="20AC"/>
  <outline>
    <contour>
      <point x="411" y="69" type="line"/>
      <point x="716" y="69" type="line"/>
      <point x="716" y="0" type="line"/>
      <point x="312" y="0" type="line" smooth="yes"/>
      <point x="269" y="0"/>
      <point x="193" y="33"/>
      <point x="137" y="89"/>
      <point x="104" y="165"/>
      <point x="104" y="208" type="qcurve" smooth="yes"/>
      <point x="104" y="215" type="line"/>
      <point x="25" y="215" type="line"/>
      <point x="25" y="290" type="line"/>
      <point x="104" y="290" type="line"/>
      <point x="104" y="400" type="line"/>
      <point x="25" y="400" type="line"/>
      <point x="25" y="475" type="line"/>
      <point x="104" y="475" type="line"/>
      <point x="104" y="486" type="line" smooth="yes"/>
      <point x="104" y="529"/>
      <point x="137" y="605"/>
      <point x="193" y="662"/>
      <point x="269" y="695"/>
      <point x="312" y="695" type="qcurve" smooth="yes"/>
      <point x="716" y="695" type="line"/>
      <point x="716" y="625" type="line"/>
      <point x="411" y="627" type="line"/>
      <point x="411" y="475" type="line"/>
      <point x="716" y="475" type="line"/>
      <point x="716" y="400" type="line"/>
      <point x="411" y="400" type="line"/>
      <point x="411" y="290" type="line"/>
      <point x="716" y="290" type="line"/>
      <point x="716" y="215" type="line"/>
      <point x="411" y="215" type="line"/>
    </contour>
  </outline>
</glyph>
<glyph name="trademark" format="2">
  <advance width="808"/>
  <unicode hex="2122"/>
  <outline>
    <contour>
      <point x="315" y="681" type="line"/>
      <point x="315" y="651" type="line"/>
      <point x="255" y="651" type="line"/>
      <point x="255" y="384" type="line"/>
      <point x="78" y="384" type="line"/>
      <point x="78" y="651" type="line"/>
      <point x="18" y="651" type="line"/>
      <point x="18" y="681" type="line"/>
    </contour>
    <contour>
      <point x="789" y="681" type="line"/>
      <point x="789" y="384" type="line"/>
      <point x="610" y="384" type="line"/>
      <point x="610" y="615" type="line"/>
      <point x="566" y="516" type="line"/>
      <point x="521" y="615" type="line"/>
      <point x="521" y="384" type="line"/>
      <point x="342" y="384" type="line"/>
      <point x="342" y="681" type="line"/>
      <point x="521" y="681" type="line"/>
      <point x="566" y="582" type="line"/>
      <point x="577" y="607"/>
      <point x="599" y="656"/>
      <point x="610" y="681" type="qcurve"/>
    </contour>
  </outline>
</glyph>
<glyph name="minus" format="2">
  <advance width="443"/>
  <unicode hex="2212"/>
  <outline>
    <contour>
      <point x="411" y="299" type="line"/>
      <point x="26" y="299" type="line"/>
      <point x="26" y="386" type="line"/>
      <point x="411" y="386" type="line"/>
    </contour>
  </outline>
</glyph>
<glyph name=".notdef" format="2">
  <outline>
    <contour>
      <point x="-31" y="695" type="line"/>
      <point x="-31" y="0" type="line"/>
      <point x="-591" y="0" type="line"/>
      <point x="-591" y="695" type="line"/>
    </contour>
    <contour>
      <point x="-100" y="69" type="line"/>
      <point x="-100" y="626" type="line"/>
      <point x="-517" y="626" type="line"/>
      <point x="-517" y="69" type="line"/>
    </contour>
  </outline>
</glyph>
<glyph name="dotlessi.1" format="2">
  <advance width="489"/>
  <outline>
    <contour>
      <point x="456" y="695" type="line"/>
      <point x="456" y="0" type="line"/>
      <point x="39" y="0" type="line"/>
      <point x="39" y="695" type="line"/>
    </contour>
  </outline>
</glyph>
<glyph name="guillemotleft" format="2">
  <advance width="665"/>
  <outline>
    <contour>
      <point x="320" y="403" type="line"/>
      <point x="645" y="596" type="line"/>
      <point x="645" y="483" type="line"/>
      <point x="443" y="362" type="line"/>
      <point x="494" y="333"/>
      <point x="596" y="271"/>
      <point x="645" y="242" type="qcurve"/>
      <point x="645" y="129" type="line"/>
      <point x="320" y="322" type="line"/>
    </contour>
    <contour>
      <point x="33" y="403" type="line"/>
      <point x="358" y="596" type="line"/>
      <point x="358" y="483" type="line"/>
      <point x="156" y="362" type="line"/>
      <point x="207" y="333"/>
      <point x="309" y="271"/>
      <point x="358" y="242" type="qcurve"/>
      <point x="358" y="129" type="line"/>
      <point x="33" y="322" type="line"/>
    </contour>
  </outline>
</glyph>
<glyph name="guillemotright" format="2">
  <advance width="665"/>
  <outline>
    <contour>
      <point x="645" y="322" type="line"/>
      <point x="320" y="129" type="line"/>
      <point x="320" y="242" type="line"/>
      <point x="522" y="363" type="line"/>
      <point x="471" y="392"/>
      <point x="369" y="454"/>
      <point x="320" y="483" type="qcurve"/>
      <point x="320" y="596" type="line"/>
      <point x="645" y="403" type="line"/>
    </contour>
    <contour>
      <point x="358" y="322" type="line"/>
      <point x="33" y="129" type="line"/>
      <point x="33" y="242" type="line"/>
      <point x="235" y="363" type="line"/>
      <point x="184" y="392"/>
      <point x="82" y="454"/>
      <point x="33" y="483" type="qcurve"/>
      <point x="33" y="596" type="line"/>
      <point x="358" y="403" type="line"/>
    </contour>
  </outline>
</glyph>
<glyph name="periodcentered.loclCAT" format="2">
  <advance width="352"/>
  <outline>
    <contour>
      <point x="84" y="838" type="qcurve" smooth="yes"/>
      <point x="84" y="856"/>
      <point x="98" y="888"/>
      <point x="121" y="913"/>
      <point x="153" y="927"/>
      <point x="171" y="927" type="qcurve" smooth="yes"/>
      <point x="189" y="927"/>
      <point x="221" y="913"/>
      <point x="245" y="888"/>
      <point x="259" y="856"/>
      <point x="259" y="838" type="qcurve" smooth="yes"/>
      <point x="259" y="820"/>
      <point x="245" y="787"/>
      <point x="221" y="763"/>
      <point x="189" y="749"/>
      <point x="171" y="749" type="qcurve" smooth="yes"/>
      <point x="135" y="749"/>
      <point x="84" y="801"/>
    </contour>
  </outline>
</glyph>
<glyph name="uni030A" format="2">
  <advance width="309"/>
  <outline>
    <contour>
      <point x="159" y="740" type="qcurve" smooth="yes"/>
      <point x="138" y="740"/>
      <point x="100" y="756"/>
      <point x="72" y="785"/>
      <point x="56" y="822"/>
      <point x="56" y="843" type="qcurve" smooth="yes"/>
      <point x="56" y="886"/>
      <point x="116" y="944"/>
      <point x="159" y="944" type="qcurve" smooth="yes"/>
      <point x="180" y="944"/>
      <point x="217" y="928"/>
      <point x="245" y="901"/>
      <point x="262" y="864"/>
      <point x="262" y="843" type="qcurve" smooth="yes"/>
      <point x="262" y="822"/>
      <point x="245" y="785"/>
      <point x="217" y="756"/>
      <point x="180" y="740"/>
    </contour>
    <contour>
      <point x="162" y="890" type="qcurve" smooth="yes"/>
      <point x="140" y="890"/>
      <point x="113" y="864"/>
      <point x="113" y="844" type="qcurve" smooth="yes"/>
      <point x="113" y="827"/>
      <point x="140" y="798"/>
      <point x="162" y="798" type="qcurve" smooth="yes"/>
      <point x="182" y="798"/>
      <point x="210" y="827"/>
      <point x="210" y="844" type="qcurve" smooth="yes"/>
      <point x="210" y="864"/>
      <point x="182" y="890"/>
    </contour>
  </outline>
</glyph>
<glyph name="uni030B" format="2">
  <advance width="336"/>
  <outline>
    <contour>
      <point x="163" y="933" type="line"/>
      <point x="248" y="896" type="line"/>
      <point x="179" y="729" type="line"/>
      <point x="60" y="793" type="line"/>
    </contour>
  </outline>
</glyph>
<glyph name="uni030C.alt" format="2">
  <advance width="479"/>
  <outline>
    <contour>
      <point x="254" y="740" type="line"/>
      <point x="168" y="774" type="line"/>
      <point x="229" y="944" type="line"/>
      <point x="351" y="885" type="line"/>
    </contour>
  </outline>
</glyph>
<glyph name="uni030C" format="2">
  <advance width="365"/>
  <outline>
    <contour>
      <point x="166" y="740" type="line"/>
      <point x="80" y="774" type="line"/>
      <point x="141" y="944" type="line"/>
      <point x="263" y="885" type="line"/>
    </contour>
  </outline>
</glyph>
<glyph name="uni0326" format="2">
  <advance width="267"/>
  <outline>
    <contour>
      <point x="88" y="-44" type="line"/>
      <point x="196" y="-44" type="line"/>
      <point x="196" y="-135" type="line"/>
      <point x="88" y="-202" type="line"/>
    </contour>
  </outline>
</glyph>
<glyph name="uni0327" format="2">
  <advance width="362"/>
  <outline>
    <contour>
      <point x="315" y="-192" type="line" smooth="yes"/>
      <point x="315" y="-226"/>
      <point x="269" y="-270"/>
      <point x="235" y="-270" type="qcurve" smooth="yes"/>
      <point x="134" y="-270" type="line" smooth="yes"/>
      <point x="115" y="-270"/>
      <point x="81" y="-255"/>
      <point x="55" y="-228"/>
      <point x="40" y="-191"/>
      <point x="40" y="-170" type="qcurve"/>
      <point x="86" y="-170" type="line"/>
      <point x="86" y="-193"/>
      <point x="114" y="-227"/>
      <point x="134" y="-227" type="qcurve" smooth="yes"/>
      <point x="204" y="-227" type="line"/>
      <point x="204" y="-198"/>
      <point x="205" y="-135"/>
      <point x="205" y="-106" type="qcurve"/>
      <point x="98" y="-106" type="line"/>
      <point x="98" y="0" type="line"/>
      <point x="192" y="0" type="line"/>
      <point x="192" y="-71" type="line"/>
      <point x="235" y="-71" type="line" smooth="yes"/>
      <point x="269" y="-71"/>
      <point x="315" y="-117"/>
      <point x="315" y="-150" type="qcurve" smooth="yes"/>
    </contour>
  </outline>
</glyph>
<glyph name="uni0328" format="2">
  <advance width="352"/>
  <outline>
    <contour>
      <point x="40" y="-150" type="line" smooth="yes"/>
      <point x="40" y="-117"/>
      <point x="86" y="-71"/>
      <point x="120" y="-71" type="qcurve" smooth="yes"/>
      <point x="163" y="-71" type="line"/>
      <point x="163" y="0" type="line"/>
      <point x="257" y="0" type="line"/>
      <point x="257" y="-106" type="line"/>
      <point x="150" y="-106" type="line"/>
      <point x="150" y="-135"/>
      <point x="151" y="-198"/>
      <point x="151" y="-227" type="qcurve"/>
      <point x="221" y="-227" type="line" smooth="yes"/>
      <point x="241" y="-227"/>
      <point x="269" y="-193"/>
      <point x="269" y="-170" type="qcurve"/>
      <point x="315" y="-170" type="line"/>
      <point x="315" y="-191"/>
      <point x="300" y="-228"/>
      <point x="274" y="-255"/>
      <point x="240" y="-270"/>
      <point x="221" y="-270" type="qcurve" smooth="yes"/>
      <point x="120" y="-270" type="line" smooth="yes"/>
      <point x="86" y="-270"/>
      <point x="40" y="-226"/>
      <point x="40" y="-192" type="qcurve" smooth="yes"/>
    </contour>
  </outline>
</glyph>
<glyph name="ygrave.001" format="2">
  <outline>
    <contour>
      <point x="340" y="695" type="line"/>
      <point x="757" y="695" type="line"/>
      <point x="444" y="0" type="line"/>
      <point x="27" y="0" type="line"/>
      <point x="221" y="430" type="line"/>
      <point x="101" y="695" type="line"/>
      <point x="188" y="695" type="line"/>
      <point x="264" y="526" type="line"/>
    </contour>
    <contour>
      <point x="144" y="888" type="line"/>
      <point x="266" y="947" type="line"/>
      <point x="327" y="777" type="line"/>
      <point x="241" y="743" type="line"/>
    </contour>
  </outline>
</glyph>
